<?xml version="1.0" encoding="utf-8" standalone="no"?>
<!DOCTYPE svg PUBLIC "-//W3C//DTD SVG 1.1//EN"
  "http://www.w3.org/Graphics/SVG/1.1/DTD/svg11.dtd">
<svg xmlns:xlink="http://www.w3.org/1999/xlink" width="1152pt" height="648pt" viewBox="0 0 1152 648" xmlns="http://www.w3.org/2000/svg" version="1.1">
 <metadata>
  <rdf:RDF xmlns:dc="http://purl.org/dc/elements/1.1/" xmlns:cc="http://creativecommons.org/ns#" xmlns:rdf="http://www.w3.org/1999/02/22-rdf-syntax-ns#">
   <cc:Work>
    <dc:type rdf:resource="http://purl.org/dc/dcmitype/StillImage"/>
    <dc:date>2025-03-12T19:42:02.455453</dc:date>
    <dc:format>image/svg+xml</dc:format>
    <dc:creator>
     <cc:Agent>
      <dc:title>Matplotlib v3.10.1, https://matplotlib.org/</dc:title>
     </cc:Agent>
    </dc:creator>
   </cc:Work>
  </rdf:RDF>
 </metadata>
 <defs>
  <style type="text/css">*{stroke-linejoin: round; stroke-linecap: butt}</style>
 </defs>
 <g id="figure_1">
  <g id="patch_1">
   <path d="M 0 648 
L 1152 648 
L 1152 0 
L 0 0 
z
" style="fill: #ffffff"/>
  </g>
  <g id="axes_1">
   <g id="patch_2">
    <path d="M 57.6 216.675 
L 201.6 216.675 
L 201.6 64.8 
L 57.6 64.8 
z
" style="fill: #ffffff"/>
   </g>
   <g id="matplotlib.axis_1"/>
   <g id="matplotlib.axis_2"/>
   <g id="line2d_1">
    <path d="M 64.145455 204.611977 
L 65.467769 206.703824 
L 66.790083 204.878871 
L 68.112397 204.725189 
L 69.434711 205.383043 
L 70.757025 204.534589 
L 72.079339 208.373562 
L 73.401653 206.384501 
L 74.723967 204.769718 
L 76.046281 207.363103 
L 77.368595 205.329071 
L 78.690909 205.157746 
L 80.013223 204.781787 
L 81.335537 204.625303 
L 82.657851 206.054338 
L 83.980165 205.252589 
L 85.302479 192.529267 
L 86.624793 168.383535 
L 87.947107 144.237802 
L 89.269421 168.383535 
L 90.591736 192.529267 
L 91.91405 203.940742 
L 93.236364 206.909716 
L 94.558678 203.442445 
L 95.880992 204.548403 
L 97.203306 205.921125 
L 98.52562 206.398839 
L 99.847934 204.409055 
L 101.170248 206.087213 
L 102.492562 204.558538 
L 103.814876 205.67991 
L 105.13719 206.527202 
L 106.459504 205.105592 
L 107.781818 204.861542 
L 109.104132 204.098687 
L 110.426446 205.152144 
L 111.74876 205.661147 
L 113.071074 206.03046 
L 114.393388 206.828345 
L 115.715702 204.129368 
L 117.038017 205.530214 
L 118.360331 204.71665 
L 119.682645 206.171273 
L 121.004959 204.282592 
L 122.327273 205.574929 
L 123.649587 206.559355 
L 124.971901 203.837836 
L 126.294215 205.806321 
L 127.616529 205.084578 
L 128.938843 204.959923 
L 130.261157 208.370072 
L 131.583471 205.618238 
L 132.905785 204.979392 
L 134.228099 204.889796 
L 135.550413 206.501634 
L 136.872727 203.761997 
L 138.195041 205.1769 
L 139.517355 205.294392 
L 140.839669 204.741368 
L 142.161983 203.50347 
L 143.484298 205.083854 
L 144.806612 207.083313 
L 146.128926 203.229441 
L 147.45124 204.532349 
L 148.773554 205.277176 
L 150.095868 205.632134 
L 151.418182 206.384684 
L 152.740496 206.92852 
L 154.06281 205.508259 
L 155.385124 206.047656 
L 156.707438 206.468663 
L 158.029752 207.006413 
L 159.352066 205.735981 
L 160.67438 206.936582 
L 161.996694 206.850341 
L 163.319008 206.635222 
L 164.641322 205.245568 
L 165.963636 207.1916 
L 167.28595 206.339138 
L 168.608264 203.910165 
L 169.930579 206.159178 
L 171.252893 205.046137 
L 172.575207 207.522863 
L 173.897521 206.049816 
L 175.219835 205.128548 
L 176.542149 205.309656 
L 177.864463 207.118165 
L 179.186777 205.105065 
L 180.509091 207.596722 
L 181.831405 207.228234 
L 183.153719 205.736565 
L 184.476033 209.111392 
L 185.798347 206.202239 
L 187.120661 206.721721 
L 188.442975 205.504943 
L 189.765289 205.645903 
L 191.087603 206.537822 
L 192.409917 206.076567 
L 193.732231 206.325385 
L 195.054545 205.459994 
" clip-path="url(#p48f520a7aa)" style="fill: none; stroke: #4a2e83; stroke-width: 0.8; stroke-linecap: square"/>
   </g>
   <g id="line2d_2">
    <path d="M 57.6 204.04258 
L 201.6 204.04258 
" clip-path="url(#p48f520a7aa)" style="fill: none; stroke: #999999; stroke-opacity: 0.7; stroke-width: 0.8; stroke-linecap: square"/>
   </g>
   <g id="patch_3">
    <path d="M 57.6 216.675 
L 57.6 64.8 
" style="fill: none; stroke: #cccccc; stroke-width: 0.5; stroke-linejoin: miter; stroke-linecap: square"/>
   </g>
   <g id="patch_4">
    <path d="M 201.6 216.675 
L 201.6 64.8 
" style="fill: none; stroke: #cccccc; stroke-width: 0.5; stroke-linejoin: miter; stroke-linecap: square"/>
   </g>
   <g id="patch_5">
    <path d="M 57.6 216.675 
L 201.6 216.675 
" style="fill: none; stroke: #cccccc; stroke-width: 0.5; stroke-linejoin: miter; stroke-linecap: square"/>
   </g>
   <g id="patch_6">
    <path d="M 57.6 64.8 
L 201.6 64.8 
" style="fill: none; stroke: #cccccc; stroke-width: 0.5; stroke-linejoin: miter; stroke-linecap: square"/>
   </g>
  </g>
  <g id="axes_2">
   <g id="patch_7">
    <path d="M 216 216.675 
L 360 216.675 
L 360 64.8 
L 216 64.8 
z
" style="fill: #ffffff"/>
   </g>
   <g id="matplotlib.axis_3"/>
   <g id="matplotlib.axis_4"/>
   <g id="line2d_3">
    <path d="M 222.545455 206.602451 
L 223.867769 207.085173 
L 225.190083 200.063687 
L 226.512397 183.452373 
L 227.834711 166.84106 
L 229.157025 183.452373 
L 230.479339 200.063687 
L 231.801653 207.453124 
L 233.123967 208.260713 
L 234.446281 208.976997 
L 235.768595 207.23398 
L 237.090909 207.352361 
L 238.413223 208.271516 
L 239.735537 208.153916 
L 241.057851 208.907273 
L 242.380165 201.348406 
L 243.702479 186.021811 
L 245.024793 170.695217 
L 246.347107 186.021811 
L 247.669421 201.348406 
L 248.991736 208.150714 
L 250.31405 207.466845 
L 251.636364 206.070393 
L 252.958678 207.196564 
L 254.280992 206.913945 
L 255.603306 209.213519 
L 256.92562 207.902633 
L 258.247934 207.736628 
L 259.570248 206.915845 
L 260.892562 207.750212 
L 262.214876 207.739787 
L 263.53719 208.749982 
L 264.859504 206.864797 
L 266.181818 207.780296 
L 267.504132 207.666559 
L 268.826446 208.618405 
L 270.14876 207.662301 
L 271.471074 207.738078 
L 272.793388 208.428489 
L 274.115702 163.434839 
L 275.438017 207.819525 
L 276.760331 200.732757 
L 278.082645 184.790514 
L 279.404959 168.848271 
L 280.727273 184.790514 
L 282.049587 200.732757 
L 283.371901 208.06666 
L 284.694215 208.781945 
L 286.016529 207.263486 
L 287.338843 207.976369 
L 288.661157 207.572143 
L 289.983471 208.686201 
L 291.305785 207.858615 
L 292.628099 207.676662 
L 293.950413 208.503807 
L 295.272727 208.305511 
L 296.595041 206.970748 
L 297.917355 208.15168 
L 299.239669 208.421398 
L 300.561983 207.351342 
L 301.884298 208.836588 
L 303.206612 207.480517 
L 304.528926 206.582915 
L 305.85124 208.892849 
L 307.173554 208.882538 
L 308.495868 208.648492 
L 309.818182 208.32975 
L 311.140496 207.964059 
L 312.46281 200.1308 
L 313.785124 183.586599 
L 315.107438 167.042399 
L 316.429752 183.586599 
L 317.752066 200.1308 
L 319.07438 162.644845 
L 320.396694 207.809562 
L 321.719008 208.921519 
L 323.041322 204.903657 
L 324.363636 207.380919 
L 325.68595 207.961968 
L 327.008264 207.519291 
L 328.330579 206.796321 
L 329.652893 207.358645 
L 330.975207 208.455448 
L 332.297521 209.210752 
L 333.619835 208.79649 
L 334.942149 208.563706 
L 336.264463 208.654308 
L 337.586777 207.945264 
L 338.909091 208.915436 
L 340.231405 209.158697 
L 341.553719 208.951414 
L 342.876033 205.967973 
L 344.198347 209.265662 
L 345.520661 207.439041 
L 346.842975 209.492563 
L 348.165289 208.380525 
L 349.487603 209.355589 
L 350.809917 208.758681 
L 352.132231 209.819819 
L 353.454545 208.276779 
" clip-path="url(#pe8307b0e95)" style="fill: none; stroke: #4a2e83; stroke-width: 0.8; stroke-linecap: square"/>
   </g>
   <g id="line2d_4">
    <path d="M 216 203.037078 
L 360 203.037078 
" clip-path="url(#pe8307b0e95)" style="fill: none; stroke: #999999; stroke-opacity: 0.7; stroke-width: 0.8; stroke-linecap: square"/>
   </g>
   <g id="patch_8">
    <path d="M 216 216.675 
L 216 64.8 
" style="fill: none; stroke: #cccccc; stroke-width: 0.5; stroke-linejoin: miter; stroke-linecap: square"/>
   </g>
   <g id="patch_9">
    <path d="M 360 216.675 
L 360 64.8 
" style="fill: none; stroke: #cccccc; stroke-width: 0.5; stroke-linejoin: miter; stroke-linecap: square"/>
   </g>
   <g id="patch_10">
    <path d="M 216 216.675 
L 360 216.675 
" style="fill: none; stroke: #cccccc; stroke-width: 0.5; stroke-linejoin: miter; stroke-linecap: square"/>
   </g>
   <g id="patch_11">
    <path d="M 216 64.8 
L 360 64.8 
" style="fill: none; stroke: #cccccc; stroke-width: 0.5; stroke-linejoin: miter; stroke-linecap: square"/>
   </g>
  </g>
  <g id="axes_3">
   <g id="patch_12">
    <path d="M 374.4 216.675 
L 518.4 216.675 
L 518.4 64.8 
L 374.4 64.8 
z
" style="fill: #ffffff"/>
   </g>
   <g id="matplotlib.axis_5"/>
   <g id="matplotlib.axis_6"/>
   <g id="line2d_5">
    <path d="M 380.945455 206.71928 
L 382.267769 207.172096 
L 383.590083 207.656275 
L 384.912397 206.881833 
L 386.234711 208.359145 
L 387.557025 205.887463 
L 388.879339 206.247956 
L 390.201653 207.077012 
L 391.523967 205.884385 
L 392.846281 207.283876 
L 394.168595 208.232666 
L 395.490909 207.1546 
L 396.813223 208.148504 
L 398.135537 208.013496 
L 399.457851 208.078779 
L 400.780165 207.218067 
L 402.102479 206.890893 
L 403.424793 207.239237 
L 404.747107 205.664956 
L 406.069421 208.019686 
L 407.391736 208.508324 
L 408.71405 208.195191 
L 410.036364 207.214567 
L 411.358678 207.118059 
L 412.680992 207.924804 
L 414.003306 208.539684 
L 415.32562 205.52676 
L 416.647934 206.339949 
L 417.970248 206.894768 
L 419.292562 207.178082 
L 420.614876 207.201455 
L 421.93719 208.388278 
L 423.259504 207.065342 
L 424.581818 195.338389 
L 425.904132 174.001778 
L 427.226446 152.665167 
L 428.54876 174.001778 
L 429.871074 195.338389 
L 431.193388 207.976153 
L 432.515702 205.575047 
L 433.838017 208.979697 
L 435.160331 205.496313 
L 436.482645 206.496764 
L 437.804959 206.493728 
L 439.127273 206.966687 
L 440.449587 207.820754 
L 441.771901 205.918027 
L 443.094215 208.41846 
L 444.416529 208.508135 
L 445.738843 207.073419 
L 447.061157 206.4369 
L 448.383471 206.751309 
L 449.705785 206.389116 
L 451.028099 208.038531 
L 452.350413 199.432668 
L 453.672727 182.190336 
L 454.995041 164.948003 
L 456.317355 182.190336 
L 457.639669 199.432668 
L 458.961983 207.865401 
L 460.284298 206.216578 
L 461.606612 206.704585 
L 462.928926 206.707675 
L 464.25124 208.432548 
L 465.573554 207.872979 
L 466.895868 207.427674 
L 468.218182 207.726886 
L 469.540496 207.2545 
L 470.86281 208.504204 
L 472.185124 206.682556 
L 473.507438 207.748607 
L 474.829752 208.821818 
L 476.152066 207.834149 
L 477.47438 206.598319 
L 478.796694 205.863934 
L 480.119008 208.072828 
L 481.441322 207.582103 
L 482.763636 207.674826 
L 484.08595 206.22756 
L 485.408264 206.536639 
L 486.730579 206.332324 
L 488.052893 206.759945 
L 489.375207 208.456225 
L 490.697521 207.037938 
L 492.019835 207.328258 
L 493.342149 207.843993 
L 494.664463 207.619671 
L 495.986777 206.101351 
L 497.309091 206.869874 
L 498.631405 207.276979 
L 499.953719 207.757675 
L 501.276033 207.267362 
L 502.598347 206.550196 
L 503.920661 207.114228 
L 505.242975 207.894618 
L 506.565289 207.505075 
L 507.887603 208.12222 
L 509.209917 205.751515 
L 510.532231 207.064588 
L 511.854545 207.630479 
" clip-path="url(#p4c9f725dd4)" style="fill: none; stroke: #4a2e83; stroke-width: 0.8; stroke-linecap: square"/>
   </g>
   <g id="line2d_6">
    <path d="M 374.4 204.714449 
L 518.4 204.714449 
" clip-path="url(#p4c9f725dd4)" style="fill: none; stroke: #999999; stroke-opacity: 0.7; stroke-width: 0.8; stroke-linecap: square"/>
   </g>
   <g id="patch_13">
    <path d="M 374.4 216.675 
L 374.4 64.8 
" style="fill: none; stroke: #cccccc; stroke-width: 0.5; stroke-linejoin: miter; stroke-linecap: square"/>
   </g>
   <g id="patch_14">
    <path d="M 518.4 216.675 
L 518.4 64.8 
" style="fill: none; stroke: #cccccc; stroke-width: 0.5; stroke-linejoin: miter; stroke-linecap: square"/>
   </g>
   <g id="patch_15">
    <path d="M 374.4 216.675 
L 518.4 216.675 
" style="fill: none; stroke: #cccccc; stroke-width: 0.5; stroke-linejoin: miter; stroke-linecap: square"/>
   </g>
   <g id="patch_16">
    <path d="M 374.4 64.8 
L 518.4 64.8 
" style="fill: none; stroke: #cccccc; stroke-width: 0.5; stroke-linejoin: miter; stroke-linecap: square"/>
   </g>
  </g>
  <g id="axes_4">
   <g id="patch_17">
    <path d="M 57.6 383.7375 
L 201.6 383.7375 
L 201.6 231.8625 
L 57.6 231.8625 
z
" style="fill: #ffffff"/>
   </g>
   <g id="matplotlib.axis_7"/>
   <g id="matplotlib.axis_8"/>
   <g id="line2d_7">
    <path d="M 64.145455 337.390472 
L 65.467769 360.563986 
L 66.790083 377.924318 
L 68.112397 378.388025 
L 69.434711 377.862918 
L 70.757025 377.375852 
L 72.079339 378.061952 
L 73.401653 378.123974 
L 74.723967 377.256405 
L 76.046281 377.904909 
L 77.368595 366.990211 
L 78.690909 350.242923 
L 80.013223 366.990211 
L 81.335537 376.799341 
L 82.657851 378.410465 
L 83.980165 378.190241 
L 85.302479 378.608943 
L 86.624793 378.514734 
L 87.947107 377.899569 
L 89.269421 378.037593 
L 90.591736 377.595886 
L 91.91405 377.898646 
L 93.236364 377.71851 
L 94.558678 378.481534 
L 95.880992 377.271447 
L 97.203306 377.835728 
L 98.52562 376.901633 
L 99.847934 377.744042 
L 101.170248 377.924915 
L 102.492562 378.50993 
L 103.814876 377.24851 
L 105.13719 376.308582 
L 106.459504 377.026868 
L 107.781818 376.729622 
L 109.104132 377.868028 
L 110.426446 377.473117 
L 111.74876 377.88654 
L 113.071074 378.069699 
L 114.393388 378.436058 
L 115.715702 378.327084 
L 117.038017 378.566609 
L 118.360331 378.020351 
L 119.682645 377.749668 
L 121.004959 378.959088 
L 122.327273 378.297594 
L 123.649587 378.579939 
L 124.971901 378.528085 
L 126.294215 377.760683 
L 127.616529 377.091633 
L 128.938843 378.987112 
L 130.261157 377.16312 
L 131.583471 377.25458 
L 132.905785 377.862276 
L 134.228099 377.790033 
L 135.550413 378.481645 
L 136.872727 377.358209 
L 138.195041 377.174624 
L 139.517355 377.828745 
L 140.839669 378.306395 
L 142.161983 377.514336 
L 143.484298 375.978531 
L 144.806612 377.424671 
L 146.128926 377.626593 
L 147.45124 377.04745 
L 148.773554 377.274816 
L 150.095868 377.969279 
L 151.418182 377.460923 
L 152.740496 377.37271 
L 154.06281 378.621124 
L 155.385124 377.69586 
L 156.707438 378.385064 
L 158.029752 377.130505 
L 159.352066 377.798794 
L 160.67438 378.694232 
L 161.996694 378.049353 
L 163.319008 377.459897 
L 164.641322 377.807744 
L 165.963636 377.785169 
L 167.28595 378.795357 
L 168.608264 345.071077 
L 169.930579 377.44034 
L 171.252893 377.29303 
L 172.575207 377.96755 
L 173.897521 378.842233 
L 175.219835 377.808783 
L 176.542149 378.131741 
L 177.864463 377.844098 
L 179.186777 377.942283 
L 180.509091 377.545196 
L 181.831405 377.928328 
L 183.153719 377.49857 
L 184.476033 376.639061 
L 185.798347 377.902626 
L 187.120661 378.408085 
L 188.442975 364.231724 
L 189.765289 344.725949 
L 191.087603 364.231724 
L 192.409917 377.976201 
L 193.732231 377.550511 
L 195.054545 377.706435 
" clip-path="url(#p6a46ee6418)" style="fill: none; stroke: #4a2e83; stroke-width: 0.8; stroke-linecap: square"/>
   </g>
   <g id="line2d_8">
    <path d="M 57.6 375.811318 
L 201.6 375.811318 
" clip-path="url(#p6a46ee6418)" style="fill: none; stroke: #999999; stroke-opacity: 0.7; stroke-width: 0.8; stroke-linecap: square"/>
   </g>
   <g id="patch_18">
    <path d="M 57.6 383.7375 
L 57.6 231.8625 
" style="fill: none; stroke: #cccccc; stroke-width: 0.5; stroke-linejoin: miter; stroke-linecap: square"/>
   </g>
   <g id="patch_19">
    <path d="M 201.6 383.7375 
L 201.6 231.8625 
" style="fill: none; stroke: #cccccc; stroke-width: 0.5; stroke-linejoin: miter; stroke-linecap: square"/>
   </g>
   <g id="patch_20">
    <path d="M 57.6 383.7375 
L 201.6 383.7375 
" style="fill: none; stroke: #cccccc; stroke-width: 0.5; stroke-linejoin: miter; stroke-linecap: square"/>
   </g>
   <g id="patch_21">
    <path d="M 57.6 231.8625 
L 201.6 231.8625 
" style="fill: none; stroke: #cccccc; stroke-width: 0.5; stroke-linejoin: miter; stroke-linecap: square"/>
   </g>
  </g>
  <g id="axes_5">
   <g id="patch_22">
    <path d="M 216 383.7375 
L 360 383.7375 
L 360 231.8625 
L 216 231.8625 
z
" style="fill: #ffffff"/>
   </g>
   <g id="matplotlib.axis_9"/>
   <g id="matplotlib.axis_10"/>
   <g id="line2d_9">
    <path d="M 222.545455 378.18084 
L 223.867769 378.220413 
L 225.190083 378.726698 
L 226.512397 379.111428 
L 227.834711 379.380067 
L 229.157025 378.664668 
L 230.479339 378.374288 
L 231.801653 377.126811 
L 233.123967 378.494665 
L 234.446281 372.947802 
L 235.768595 362.158104 
L 237.090909 351.368406 
L 238.413223 362.158104 
L 239.735537 372.947802 
L 241.057851 377.634844 
L 242.380165 378.725384 
L 243.702479 377.83492 
L 245.024793 378.343471 
L 246.347107 377.184125 
L 247.669421 378.12464 
L 248.991736 378.277727 
L 250.31405 378.492741 
L 251.636364 378.784002 
L 252.958678 378.878392 
L 254.280992 377.515669 
L 255.603306 379.306423 
L 256.92562 377.285998 
L 258.247934 377.640553 
L 259.570248 377.854518 
L 260.892562 378.400081 
L 262.214876 378.133191 
L 263.53719 377.858599 
L 264.859504 378.059424 
L 266.181818 379.009132 
L 267.504132 377.70042 
L 268.826446 377.837365 
L 270.14876 378.205773 
L 271.471074 369.418652 
L 272.793388 355.099804 
L 274.115702 369.418652 
L 275.438017 378.585628 
L 276.760331 378.556589 
L 278.082645 377.190154 
L 279.404959 378.054676 
L 280.727273 377.912468 
L 282.049587 378.056512 
L 283.371901 377.609424 
L 284.694215 377.579648 
L 286.016529 378.445166 
L 287.338843 377.464051 
L 288.661157 378.58324 
L 289.983471 377.485392 
L 291.305785 377.426732 
L 292.628099 378.851856 
L 293.950413 378.111398 
L 295.272727 377.313356 
L 296.595041 377.897304 
L 297.917355 378.554532 
L 299.239669 378.447331 
L 300.561983 377.910057 
L 301.884298 378.470804 
L 303.206612 378.020332 
L 304.528926 378.165065 
L 305.85124 378.684929 
L 307.173554 378.596513 
L 308.495868 378.195825 
L 309.818182 378.004664 
L 311.140496 377.359118 
L 312.46281 378.11431 
L 313.785124 378.303752 
L 315.107438 378.678617 
L 316.429752 377.687571 
L 317.752066 377.508546 
L 319.07438 378.389771 
L 320.396694 378.550934 
L 321.719008 377.67247 
L 323.041322 378.756458 
L 324.363636 378.062942 
L 325.68595 378.421504 
L 327.008264 377.236245 
L 328.330579 377.89515 
L 329.652893 340.143884 
L 330.975207 378.396893 
L 332.297521 377.313034 
L 333.619835 378.89948 
L 334.942149 378.344324 
L 336.264463 377.92514 
L 337.586777 378.471167 
L 338.909091 377.789158 
L 340.231405 378.392675 
L 341.553719 377.931032 
L 342.876033 377.801265 
L 344.198347 378.120558 
L 345.520661 378.77547 
L 346.842975 378.658551 
L 348.165289 377.914999 
L 349.487603 377.462337 
L 350.809917 379.081966 
L 352.132231 377.973831 
L 353.454545 377.139319 
" clip-path="url(#pe98fbf865d)" style="fill: none; stroke: #4a2e83; stroke-width: 0.8; stroke-linecap: square"/>
   </g>
   <g id="line2d_10">
    <path d="M 216 376.662307 
L 360 376.662307 
" clip-path="url(#pe98fbf865d)" style="fill: none; stroke: #999999; stroke-opacity: 0.7; stroke-width: 0.8; stroke-linecap: square"/>
   </g>
   <g id="patch_23">
    <path d="M 216 383.7375 
L 216 231.8625 
" style="fill: none; stroke: #cccccc; stroke-width: 0.5; stroke-linejoin: miter; stroke-linecap: square"/>
   </g>
   <g id="patch_24">
    <path d="M 360 383.7375 
L 360 231.8625 
" style="fill: none; stroke: #cccccc; stroke-width: 0.5; stroke-linejoin: miter; stroke-linecap: square"/>
   </g>
   <g id="patch_25">
    <path d="M 216 383.7375 
L 360 383.7375 
" style="fill: none; stroke: #cccccc; stroke-width: 0.5; stroke-linejoin: miter; stroke-linecap: square"/>
   </g>
   <g id="patch_26">
    <path d="M 216 231.8625 
L 360 231.8625 
" style="fill: none; stroke: #cccccc; stroke-width: 0.5; stroke-linejoin: miter; stroke-linecap: square"/>
   </g>
  </g>
  <g id="axes_6">
   <g id="patch_27">
    <path d="M 374.4 383.7375 
L 518.4 383.7375 
L 518.4 231.8625 
L 374.4 231.8625 
z
" style="fill: #ffffff"/>
   </g>
   <g id="matplotlib.axis_11"/>
   <g id="matplotlib.axis_12"/>
   <g id="line2d_11">
    <path d="M 380.945455 375.743051 
L 382.267769 375.130218 
L 383.590083 376.475083 
L 384.912397 375.337507 
L 386.234711 375.767903 
L 387.557025 374.208181 
L 388.879339 375.801201 
L 390.201653 375.49768 
L 391.523967 375.917512 
L 392.846281 375.30717 
L 394.168595 378.101492 
L 395.490909 374.620949 
L 396.813223 374.502491 
L 398.135537 375.366096 
L 399.457851 374.135 
L 400.780165 373.779958 
L 402.102479 372.996622 
L 403.424793 375.429375 
L 404.747107 373.712115 
L 406.069421 375.918144 
L 407.391736 376.047839 
L 408.71405 374.382948 
L 410.036364 375.799276 
L 411.358678 374.881018 
L 412.680992 375.800307 
L 414.003306 374.937351 
L 415.32562 376.082773 
L 416.647934 375.368672 
L 417.970248 375.659012 
L 419.292562 374.949767 
L 420.614876 375.300605 
L 421.93719 375.492612 
L 423.259504 374.857642 
L 424.581818 359.880366 
L 425.904132 336.023233 
L 427.226446 359.880366 
L 428.54876 375.270346 
L 429.871074 376.535286 
L 431.193388 376.490146 
L 432.515702 376.064936 
L 433.838017 375.399498 
L 435.160331 374.831053 
L 436.482645 375.050953 
L 437.804959 375.296331 
L 439.127273 374.695048 
L 440.449587 375.481928 
L 441.771901 374.840326 
L 443.094215 374.698405 
L 444.416529 375.867913 
L 445.738843 375.149923 
L 447.061157 375.934969 
L 448.383471 376.358432 
L 449.705785 375.668167 
L 451.028099 375.023648 
L 452.350413 375.84225 
L 453.672727 375.860362 
L 454.995041 377.193274 
L 456.317355 375.812757 
L 457.639669 375.041602 
L 458.961983 374.547394 
L 460.284298 374.880817 
L 461.606612 373.956362 
L 462.928926 374.824313 
L 464.25124 376.436237 
L 465.573554 374.583391 
L 466.895868 376.300902 
L 468.218182 374.222764 
L 469.540496 373.980994 
L 470.86281 375.367039 
L 472.185124 374.605343 
L 473.507438 376.278232 
L 474.829752 368.894791 
L 476.152066 354.052083 
L 477.47438 339.209374 
L 478.796694 354.052083 
L 480.119008 368.894791 
L 481.441322 375.041313 
L 482.763636 375.620079 
L 484.08595 373.171294 
L 485.408264 376.192605 
L 486.730579 375.982913 
L 488.052893 374.808967 
L 489.375207 376.769022 
L 490.697521 375.219016 
L 492.019835 375.681585 
L 493.342149 375.911837 
L 494.664463 376.395632 
L 495.986777 375.565905 
L 497.309091 375.355057 
L 498.631405 375.505595 
L 499.953719 376.048767 
L 501.276033 376.441752 
L 502.598347 376.129944 
L 503.920661 374.690144 
L 505.242975 376.709782 
L 506.565289 376.308798 
L 507.887603 374.697299 
L 509.209917 375.048829 
L 510.532231 377.039779 
L 511.854545 374.976091 
" clip-path="url(#p88694fb404)" style="fill: none; stroke: #4a2e83; stroke-width: 0.8; stroke-linecap: square"/>
   </g>
   <g id="line2d_12">
    <path d="M 374.4 373.77898 
L 518.4 373.77898 
" clip-path="url(#p88694fb404)" style="fill: none; stroke: #999999; stroke-opacity: 0.7; stroke-width: 0.8; stroke-linecap: square"/>
   </g>
   <g id="patch_28">
    <path d="M 374.4 383.7375 
L 374.4 231.8625 
" style="fill: none; stroke: #cccccc; stroke-width: 0.5; stroke-linejoin: miter; stroke-linecap: square"/>
   </g>
   <g id="patch_29">
    <path d="M 518.4 383.7375 
L 518.4 231.8625 
" style="fill: none; stroke: #cccccc; stroke-width: 0.5; stroke-linejoin: miter; stroke-linecap: square"/>
   </g>
   <g id="patch_30">
    <path d="M 374.4 383.7375 
L 518.4 383.7375 
" style="fill: none; stroke: #cccccc; stroke-width: 0.5; stroke-linejoin: miter; stroke-linecap: square"/>
   </g>
   <g id="patch_31">
    <path d="M 374.4 231.8625 
L 518.4 231.8625 
" style="fill: none; stroke: #cccccc; stroke-width: 0.5; stroke-linejoin: miter; stroke-linecap: square"/>
   </g>
  </g>
  <g id="axes_7">
   <g id="patch_32">
    <path d="M 57.6 550.8 
L 201.6 550.8 
L 201.6 398.925 
L 57.6 398.925 
z
" style="fill: #ffffff"/>
   </g>
   <g id="matplotlib.axis_13"/>
   <g id="matplotlib.axis_14"/>
   <g id="line2d_13">
    <path d="M 64.145455 544.051904 
L 65.467769 543.959567 
L 66.790083 542.944244 
L 68.112397 545.576368 
L 69.434711 545.350927 
L 70.757025 544.753504 
L 72.079339 544.641688 
L 73.401653 544.893682 
L 74.723967 544.526022 
L 76.046281 543.103852 
L 77.368595 544.456407 
L 78.690909 544.404723 
L 80.013223 544.416416 
L 81.335537 544.215701 
L 82.657851 545.057944 
L 83.980165 544.440811 
L 85.302479 544.326283 
L 86.624793 544.555805 
L 87.947107 544.137189 
L 89.269421 544.011676 
L 90.591736 545.520752 
L 91.91405 544.784309 
L 93.236364 545.007789 
L 94.558678 545.224116 
L 95.880992 543.709208 
L 97.203306 543.458487 
L 98.52562 545.329259 
L 99.847934 544.486268 
L 101.170248 543.475701 
L 102.492562 544.946476 
L 103.814876 544.585266 
L 105.13719 544.425111 
L 106.459504 544.371659 
L 107.781818 544.274255 
L 109.104132 544.65475 
L 110.426446 544.092891 
L 111.74876 543.62447 
L 113.071074 545.035431 
L 114.393388 544.375255 
L 115.715702 543.706426 
L 117.038017 545.372176 
L 118.360331 543.109776 
L 119.682645 544.679995 
L 121.004959 544.609593 
L 122.327273 544.089795 
L 123.649587 544.102645 
L 124.971901 543.585116 
L 126.294215 544.638473 
L 127.616529 544.965436 
L 128.938843 544.970775 
L 130.261157 544.334274 
L 131.583471 544.511438 
L 132.905785 545.621984 
L 134.228099 512.292497 
L 135.550413 544.14252 
L 136.872727 543.651575 
L 138.195041 545.060474 
L 139.517355 544.41314 
L 140.839669 544.5847 
L 142.161983 544.443192 
L 143.484298 544.584079 
L 144.806612 543.773847 
L 146.128926 543.787648 
L 147.45124 514.674633 
L 148.773554 545.131006 
L 150.095868 545.222611 
L 151.418182 544.344693 
L 152.740496 545.036742 
L 154.06281 545.218408 
L 155.385124 544.601207 
L 156.707438 545.44904 
L 158.029752 544.656736 
L 159.352066 544.762624 
L 160.67438 546.087379 
L 161.996694 544.161979 
L 163.319008 545.37243 
L 164.641322 544.571121 
L 165.963636 544.713028 
L 167.28595 544.439114 
L 168.608264 544.854998 
L 169.930579 545.359241 
L 171.252893 544.850001 
L 172.575207 544.703851 
L 173.897521 543.391024 
L 175.219835 544.895993 
L 176.542149 545.217092 
L 177.864463 543.908449 
L 179.186777 543.578528 
L 180.509091 535.342905 
L 181.831405 519.88581 
L 183.153719 504.428715 
L 184.476033 519.88581 
L 185.798347 535.342905 
L 187.120661 544.31445 
L 188.442975 529.635859 
L 189.765289 508.471718 
L 191.087603 529.635859 
L 192.409917 545.055182 
L 193.732231 545.197301 
L 195.054545 544.854435 
" clip-path="url(#pbd884cee4c)" style="fill: none; stroke: #4a2e83; stroke-width: 0.8; stroke-linecap: square"/>
   </g>
   <g id="line2d_14">
    <path d="M 57.6 542.174906 
L 201.6 542.174906 
" clip-path="url(#pbd884cee4c)" style="fill: none; stroke: #999999; stroke-opacity: 0.7; stroke-width: 0.8; stroke-linecap: square"/>
   </g>
   <g id="patch_33">
    <path d="M 57.6 550.8 
L 57.6 398.925 
" style="fill: none; stroke: #cccccc; stroke-width: 0.5; stroke-linejoin: miter; stroke-linecap: square"/>
   </g>
   <g id="patch_34">
    <path d="M 201.6 550.8 
L 201.6 398.925 
" style="fill: none; stroke: #cccccc; stroke-width: 0.5; stroke-linejoin: miter; stroke-linecap: square"/>
   </g>
   <g id="patch_35">
    <path d="M 57.6 550.8 
L 201.6 550.8 
" style="fill: none; stroke: #cccccc; stroke-width: 0.5; stroke-linejoin: miter; stroke-linecap: square"/>
   </g>
   <g id="patch_36">
    <path d="M 57.6 398.925 
L 201.6 398.925 
" style="fill: none; stroke: #cccccc; stroke-width: 0.5; stroke-linejoin: miter; stroke-linecap: square"/>
   </g>
  </g>
  <g id="axes_8">
   <g id="patch_37">
    <path d="M 216 550.8 
L 360 550.8 
L 360 398.925 
L 216 398.925 
z
" style="fill: #ffffff"/>
   </g>
   <g id="matplotlib.axis_15"/>
   <g id="matplotlib.axis_16"/>
   <g id="line2d_15">
    <path d="M 222.545455 541.04288 
L 223.867769 541.436676 
L 225.190083 541.123029 
L 226.512397 540.570249 
L 227.834711 539.914967 
L 229.157025 541.334693 
L 230.479339 540.796853 
L 231.801653 542.68376 
L 233.123967 542.017385 
L 234.446281 541.879426 
L 235.768595 542.048734 
L 237.090909 543.430999 
L 238.413223 542.66577 
L 239.735537 542.308531 
L 241.057851 541.44866 
L 242.380165 542.474175 
L 243.702479 541.888121 
L 245.024793 543.493536 
L 246.347107 541.158779 
L 247.669421 540.961228 
L 248.991736 540.681995 
L 250.31405 540.58608 
L 251.636364 542.347018 
L 252.958678 541.197988 
L 254.280992 542.352956 
L 255.603306 542.070512 
L 256.92562 539.980713 
L 258.247934 541.974341 
L 259.570248 540.711757 
L 260.892562 541.730226 
L 262.214876 542.346009 
L 263.53719 541.604002 
L 264.859504 540.818262 
L 266.181818 541.66168 
L 267.504132 541.590206 
L 268.826446 540.785668 
L 270.14876 542.054352 
L 271.471074 542.447185 
L 272.793388 542.589604 
L 274.115702 541.017766 
L 275.438017 540.986204 
L 276.760331 541.332637 
L 278.082645 541.278067 
L 279.404959 541.289407 
L 280.727273 542.181508 
L 282.049587 542.361315 
L 283.371901 541.342725 
L 284.694215 541.947194 
L 286.016529 543.447308 
L 287.338843 541.099561 
L 288.661157 542.563441 
L 289.983471 541.507052 
L 291.305785 542.468015 
L 292.628099 541.337483 
L 293.950413 541.378865 
L 295.272727 540.392497 
L 296.595041 541.243338 
L 297.917355 541.457826 
L 299.239669 541.398792 
L 300.561983 542.22639 
L 301.884298 519.348906 
L 303.206612 487.897811 
L 304.528926 519.348906 
L 305.85124 542.083721 
L 307.173554 542.242258 
L 308.495868 542.919518 
L 309.818182 540.197818 
L 311.140496 542.859961 
L 312.46281 541.258968 
L 313.785124 541.700166 
L 315.107438 541.233672 
L 316.429752 541.656811 
L 317.752066 540.543849 
L 319.07438 540.557038 
L 320.396694 541.955957 
L 321.719008 542.248702 
L 323.041322 540.70197 
L 324.363636 518.614067 
L 325.68595 486.428134 
L 327.008264 518.614067 
L 328.330579 540.734072 
L 329.652893 542.573458 
L 330.975207 542.026006 
L 332.297521 540.617567 
L 333.619835 541.766667 
L 334.942149 540.848238 
L 336.264463 541.583291 
L 337.586777 541.216333 
L 338.909091 541.682038 
L 340.231405 543.527941 
L 341.553719 541.699876 
L 342.876033 542.921858 
L 344.198347 541.753792 
L 345.520661 539.75446 
L 346.842975 541.08817 
L 348.165289 541.617566 
L 349.487603 541.372471 
L 350.809917 542.336764 
L 352.132231 541.437972 
L 353.454545 543.796051 
" clip-path="url(#p192ab2ed1f)" style="fill: none; stroke: #4a2e83; stroke-width: 0.8; stroke-linecap: square"/>
   </g>
   <g id="line2d_16">
    <path d="M 216 539.652333 
L 360 539.652333 
" clip-path="url(#p192ab2ed1f)" style="fill: none; stroke: #999999; stroke-opacity: 0.7; stroke-width: 0.8; stroke-linecap: square"/>
   </g>
   <g id="patch_38">
    <path d="M 216 550.8 
L 216 398.925 
" style="fill: none; stroke: #cccccc; stroke-width: 0.5; stroke-linejoin: miter; stroke-linecap: square"/>
   </g>
   <g id="patch_39">
    <path d="M 360 550.8 
L 360 398.925 
" style="fill: none; stroke: #cccccc; stroke-width: 0.5; stroke-linejoin: miter; stroke-linecap: square"/>
   </g>
   <g id="patch_40">
    <path d="M 216 550.8 
L 360 550.8 
" style="fill: none; stroke: #cccccc; stroke-width: 0.5; stroke-linejoin: miter; stroke-linecap: square"/>
   </g>
   <g id="patch_41">
    <path d="M 216 398.925 
L 360 398.925 
" style="fill: none; stroke: #cccccc; stroke-width: 0.5; stroke-linejoin: miter; stroke-linecap: square"/>
   </g>
  </g>
  <g id="axes_9">
   <g id="patch_42">
    <path d="M 374.4 550.8 
L 518.4 550.8 
L 518.4 398.925 
L 374.4 398.925 
z
" style="fill: #ffffff"/>
   </g>
   <g id="matplotlib.axis_17"/>
   <g id="matplotlib.axis_18"/>
   <g id="line2d_17">
    <path d="M 380.945455 537.716003 
L 382.267769 537.951899 
L 383.590083 537.432586 
L 384.912397 539.41788 
L 386.234711 537.223658 
L 387.557025 538.764071 
L 388.879339 538.211857 
L 390.201653 538.414872 
L 391.523967 504.568108 
L 392.846281 458.336215 
L 394.168595 504.568108 
L 395.490909 539.433159 
L 396.813223 539.569783 
L 398.135537 538.788171 
L 399.457851 537.531976 
L 400.780165 538.48937 
L 402.102479 537.370178 
L 403.424793 538.768771 
L 404.747107 539.645003 
L 406.069421 538.235953 
L 407.391736 539.172845 
L 408.71405 535.504745 
L 410.036364 537.259213 
L 411.358678 539.644 
L 412.680992 539.071296 
L 414.003306 534.934409 
L 415.32562 536.494903 
L 416.647934 539.025789 
L 417.970248 538.711335 
L 419.292562 537.165975 
L 420.614876 537.843774 
L 421.93719 538.600353 
L 423.259504 536.621037 
L 424.581818 536.521511 
L 425.904132 538.227981 
L 427.226446 535.73963 
L 428.54876 536.032122 
L 429.871074 538.775399 
L 431.193388 535.604413 
L 432.515702 537.868529 
L 433.838017 539.333103 
L 435.160331 536.615393 
L 436.482645 525.047573 
L 437.804959 499.295146 
L 439.127273 473.542719 
L 440.449587 499.295146 
L 441.771901 525.047573 
L 443.094215 536.112802 
L 444.416529 537.796253 
L 445.738843 537.445649 
L 447.061157 538.301798 
L 448.383471 536.407273 
L 449.705785 536.037522 
L 451.028099 538.176571 
L 452.350413 538.507181 
L 453.672727 538.638492 
L 454.995041 538.782144 
L 456.317355 537.580727 
L 457.639669 534.580263 
L 458.961983 537.79462 
L 460.284298 538.236058 
L 461.606612 537.49222 
L 462.928926 536.984842 
L 464.25124 536.912593 
L 465.573554 537.408129 
L 466.895868 539.34293 
L 468.218182 539.649956 
L 469.540496 538.680098 
L 470.86281 537.614911 
L 472.185124 538.16993 
L 473.507438 538.626809 
L 474.829752 538.076553 
L 476.152066 537.152628 
L 477.47438 537.835439 
L 478.796694 537.387268 
L 480.119008 537.816227 
L 481.441322 535.807057 
L 482.763636 539.291209 
L 484.08595 537.888929 
L 485.408264 538.269679 
L 486.730579 539.897825 
L 488.052893 536.045234 
L 489.375207 536.898163 
L 490.697521 538.628064 
L 492.019835 539.619665 
L 493.342149 463.911775 
L 494.664463 536.300876 
L 495.986777 539.866773 
L 497.309091 539.907609 
L 498.631405 538.058787 
L 499.953719 538.176104 
L 501.276033 537.40952 
L 502.598347 537.677899 
L 503.920661 539.843922 
L 505.242975 536.617729 
L 506.565289 539.652112 
L 507.887603 536.904876 
L 509.209917 537.346532 
L 510.532231 538.883857 
L 511.854545 535.513781 
" clip-path="url(#pf1a30cfdc2)" style="fill: none; stroke: #4a2e83; stroke-width: 0.8; stroke-linecap: square"/>
   </g>
   <g id="line2d_18">
    <path d="M 374.4 533.993994 
L 518.4 533.993994 
" clip-path="url(#pf1a30cfdc2)" style="fill: none; stroke: #999999; stroke-opacity: 0.7; stroke-width: 0.8; stroke-linecap: square"/>
   </g>
   <g id="patch_43">
    <path d="M 374.4 550.8 
L 374.4 398.925 
" style="fill: none; stroke: #cccccc; stroke-width: 0.5; stroke-linejoin: miter; stroke-linecap: square"/>
   </g>
   <g id="patch_44">
    <path d="M 518.4 550.8 
L 518.4 398.925 
" style="fill: none; stroke: #cccccc; stroke-width: 0.5; stroke-linejoin: miter; stroke-linecap: square"/>
   </g>
   <g id="patch_45">
    <path d="M 374.4 550.8 
L 518.4 550.8 
" style="fill: none; stroke: #cccccc; stroke-width: 0.5; stroke-linejoin: miter; stroke-linecap: square"/>
   </g>
   <g id="patch_46">
    <path d="M 374.4 398.925 
L 518.4 398.925 
" style="fill: none; stroke: #cccccc; stroke-width: 0.5; stroke-linejoin: miter; stroke-linecap: square"/>
   </g>
  </g>
  <g id="axes_10">
   <g id="patch_47">
    <path d="M 668.16 550.8 
L 1094.4 550.8 
L 1094.4 64.8 
L 668.16 64.8 
z
" style="fill: #ffffff"/>
   </g>
   <g id="matplotlib.axis_19">
    <g id="text_1">
     <!-- time -->
     <g transform="translate(866.033437 563.918125) scale(0.12 -0.12)">
      <defs>
       <path id="DejaVuSans-Bold-74" d="M 1759 4494 
L 1759 3500 
L 2913 3500 
L 2913 2700 
L 1759 2700 
L 1759 1216 
Q 1759 972 1856 886 
Q 1953 800 2241 800 
L 2816 800 
L 2816 0 
L 1856 0 
Q 1194 0 917 276 
Q 641 553 641 1216 
L 641 2700 
L 84 2700 
L 84 3500 
L 641 3500 
L 641 4494 
L 1759 4494 
z
" transform="scale(0.015625)"/>
       <path id="DejaVuSans-Bold-69" d="M 538 3500 
L 1656 3500 
L 1656 0 
L 538 0 
L 538 3500 
z
M 538 4863 
L 1656 4863 
L 1656 3950 
L 538 3950 
L 538 4863 
z
" transform="scale(0.015625)"/>
       <path id="DejaVuSans-Bold-6d" d="M 3781 2919 
Q 3994 3244 4286 3414 
Q 4578 3584 4928 3584 
Q 5531 3584 5847 3212 
Q 6163 2841 6163 2131 
L 6163 0 
L 5038 0 
L 5038 1825 
Q 5041 1866 5042 1909 
Q 5044 1953 5044 2034 
Q 5044 2406 4934 2573 
Q 4825 2741 4581 2741 
Q 4263 2741 4089 2478 
Q 3916 2216 3909 1719 
L 3909 0 
L 2784 0 
L 2784 1825 
Q 2784 2406 2684 2573 
Q 2584 2741 2328 2741 
Q 2006 2741 1831 2477 
Q 1656 2213 1656 1722 
L 1656 0 
L 531 0 
L 531 3500 
L 1656 3500 
L 1656 2988 
Q 1863 3284 2130 3434 
Q 2397 3584 2719 3584 
Q 3081 3584 3359 3409 
Q 3638 3234 3781 2919 
z
" transform="scale(0.015625)"/>
       <path id="DejaVuSans-Bold-65" d="M 4031 1759 
L 4031 1441 
L 1416 1441 
Q 1456 1047 1700 850 
Q 1944 653 2381 653 
Q 2734 653 3104 758 
Q 3475 863 3866 1075 
L 3866 213 
Q 3469 63 3072 -14 
Q 2675 -91 2278 -91 
Q 1328 -91 801 392 
Q 275 875 275 1747 
Q 275 2603 792 3093 
Q 1309 3584 2216 3584 
Q 3041 3584 3536 3087 
Q 4031 2591 4031 1759 
z
M 2881 2131 
Q 2881 2450 2695 2645 
Q 2509 2841 2209 2841 
Q 1884 2841 1681 2658 
Q 1478 2475 1428 2131 
L 2881 2131 
z
" transform="scale(0.015625)"/>
      </defs>
      <use xlink:href="#DejaVuSans-Bold-74"/>
      <use xlink:href="#DejaVuSans-Bold-69" transform="translate(47.802734 0)"/>
      <use xlink:href="#DejaVuSans-Bold-6d" transform="translate(82.080078 0)"/>
      <use xlink:href="#DejaVuSans-Bold-65" transform="translate(186.279297 0)"/>
     </g>
    </g>
   </g>
   <g id="matplotlib.axis_20">
    <g id="ytick_1">
     <g id="line2d_19">
      <path d="M 668.16 550.8 
L 1094.4 550.8 
" clip-path="url(#p3783c0132c)" style="fill: none; stroke: #cccccc; stroke-opacity: 0.5; stroke-width: 0.8; stroke-linecap: square"/>
     </g>
     <g id="line2d_20">
      <defs>
       <path id="mc8523f348a" d="M 0 0 
L -3.5 0 
" style="stroke: #000000; stroke-width: 0.8"/>
      </defs>
      <g>
       <use xlink:href="#mc8523f348a" x="668.16" y="550.8" style="stroke: #000000; stroke-width: 0.8"/>
      </g>
     </g>
     <g id="text_2">
      <!-- 0 -->
      <g transform="translate(654.7975 554.599219) scale(0.1 -0.1)">
       <defs>
        <path id="DejaVuSans-30" d="M 2034 4250 
Q 1547 4250 1301 3770 
Q 1056 3291 1056 2328 
Q 1056 1369 1301 889 
Q 1547 409 2034 409 
Q 2525 409 2770 889 
Q 3016 1369 3016 2328 
Q 3016 3291 2770 3770 
Q 2525 4250 2034 4250 
z
M 2034 4750 
Q 2819 4750 3233 4129 
Q 3647 3509 3647 2328 
Q 3647 1150 3233 529 
Q 2819 -91 2034 -91 
Q 1250 -91 836 529 
Q 422 1150 422 2328 
Q 422 3509 836 4129 
Q 1250 4750 2034 4750 
z
" transform="scale(0.015625)"/>
       </defs>
       <use xlink:href="#DejaVuSans-30"/>
      </g>
     </g>
    </g>
    <g id="ytick_2">
     <g id="line2d_21">
      <path d="M 668.16 453.6 
L 1094.4 453.6 
" clip-path="url(#p3783c0132c)" style="fill: none; stroke: #cccccc; stroke-opacity: 0.5; stroke-width: 0.8; stroke-linecap: square"/>
     </g>
     <g id="line2d_22">
      <g>
       <use xlink:href="#mc8523f348a" x="668.16" y="453.6" style="stroke: #000000; stroke-width: 0.8"/>
      </g>
     </g>
     <g id="text_3">
      <!-- 1.8M -->
      <g transform="translate(636.62875 457.399219) scale(0.1 -0.1)">
       <defs>
        <path id="DejaVuSans-31" d="M 794 531 
L 1825 531 
L 1825 4091 
L 703 3866 
L 703 4441 
L 1819 4666 
L 2450 4666 
L 2450 531 
L 3481 531 
L 3481 0 
L 794 0 
L 794 531 
z
" transform="scale(0.015625)"/>
        <path id="DejaVuSans-2e" d="M 684 794 
L 1344 794 
L 1344 0 
L 684 0 
L 684 794 
z
" transform="scale(0.015625)"/>
        <path id="DejaVuSans-38" d="M 2034 2216 
Q 1584 2216 1326 1975 
Q 1069 1734 1069 1313 
Q 1069 891 1326 650 
Q 1584 409 2034 409 
Q 2484 409 2743 651 
Q 3003 894 3003 1313 
Q 3003 1734 2745 1975 
Q 2488 2216 2034 2216 
z
M 1403 2484 
Q 997 2584 770 2862 
Q 544 3141 544 3541 
Q 544 4100 942 4425 
Q 1341 4750 2034 4750 
Q 2731 4750 3128 4425 
Q 3525 4100 3525 3541 
Q 3525 3141 3298 2862 
Q 3072 2584 2669 2484 
Q 3125 2378 3379 2068 
Q 3634 1759 3634 1313 
Q 3634 634 3220 271 
Q 2806 -91 2034 -91 
Q 1263 -91 848 271 
Q 434 634 434 1313 
Q 434 1759 690 2068 
Q 947 2378 1403 2484 
z
M 1172 3481 
Q 1172 3119 1398 2916 
Q 1625 2713 2034 2713 
Q 2441 2713 2670 2916 
Q 2900 3119 2900 3481 
Q 2900 3844 2670 4047 
Q 2441 4250 2034 4250 
Q 1625 4250 1398 4047 
Q 1172 3844 1172 3481 
z
" transform="scale(0.015625)"/>
        <path id="DejaVuSans-4d" d="M 628 4666 
L 1569 4666 
L 2759 1491 
L 3956 4666 
L 4897 4666 
L 4897 0 
L 4281 0 
L 4281 4097 
L 3078 897 
L 2444 897 
L 1241 4097 
L 1241 0 
L 628 0 
L 628 4666 
z
" transform="scale(0.015625)"/>
       </defs>
       <use xlink:href="#DejaVuSans-31"/>
       <use xlink:href="#DejaVuSans-2e" transform="translate(63.623047 0)"/>
       <use xlink:href="#DejaVuSans-38" transform="translate(95.410156 0)"/>
       <use xlink:href="#DejaVuSans-4d" transform="translate(159.033203 0)"/>
      </g>
     </g>
    </g>
    <g id="ytick_3">
     <g id="line2d_23">
      <path d="M 668.16 356.4 
L 1094.4 356.4 
" clip-path="url(#p3783c0132c)" style="fill: none; stroke: #cccccc; stroke-opacity: 0.5; stroke-width: 0.8; stroke-linecap: square"/>
     </g>
     <g id="line2d_24">
      <g>
       <use xlink:href="#mc8523f348a" x="668.16" y="356.4" style="stroke: #000000; stroke-width: 0.8"/>
      </g>
     </g>
     <g id="text_4">
      <!-- 3.6M -->
      <g transform="translate(636.62875 360.199219) scale(0.1 -0.1)">
       <defs>
        <path id="DejaVuSans-33" d="M 2597 2516 
Q 3050 2419 3304 2112 
Q 3559 1806 3559 1356 
Q 3559 666 3084 287 
Q 2609 -91 1734 -91 
Q 1441 -91 1130 -33 
Q 819 25 488 141 
L 488 750 
Q 750 597 1062 519 
Q 1375 441 1716 441 
Q 2309 441 2620 675 
Q 2931 909 2931 1356 
Q 2931 1769 2642 2001 
Q 2353 2234 1838 2234 
L 1294 2234 
L 1294 2753 
L 1863 2753 
Q 2328 2753 2575 2939 
Q 2822 3125 2822 3475 
Q 2822 3834 2567 4026 
Q 2313 4219 1838 4219 
Q 1578 4219 1281 4162 
Q 984 4106 628 3988 
L 628 4550 
Q 988 4650 1302 4700 
Q 1616 4750 1894 4750 
Q 2613 4750 3031 4423 
Q 3450 4097 3450 3541 
Q 3450 3153 3228 2886 
Q 3006 2619 2597 2516 
z
" transform="scale(0.015625)"/>
        <path id="DejaVuSans-36" d="M 2113 2584 
Q 1688 2584 1439 2293 
Q 1191 2003 1191 1497 
Q 1191 994 1439 701 
Q 1688 409 2113 409 
Q 2538 409 2786 701 
Q 3034 994 3034 1497 
Q 3034 2003 2786 2293 
Q 2538 2584 2113 2584 
z
M 3366 4563 
L 3366 3988 
Q 3128 4100 2886 4159 
Q 2644 4219 2406 4219 
Q 1781 4219 1451 3797 
Q 1122 3375 1075 2522 
Q 1259 2794 1537 2939 
Q 1816 3084 2150 3084 
Q 2853 3084 3261 2657 
Q 3669 2231 3669 1497 
Q 3669 778 3244 343 
Q 2819 -91 2113 -91 
Q 1303 -91 875 529 
Q 447 1150 447 2328 
Q 447 3434 972 4092 
Q 1497 4750 2381 4750 
Q 2619 4750 2861 4703 
Q 3103 4656 3366 4563 
z
" transform="scale(0.015625)"/>
       </defs>
       <use xlink:href="#DejaVuSans-33"/>
       <use xlink:href="#DejaVuSans-2e" transform="translate(63.623047 0)"/>
       <use xlink:href="#DejaVuSans-36" transform="translate(95.410156 0)"/>
       <use xlink:href="#DejaVuSans-4d" transform="translate(159.033203 0)"/>
      </g>
     </g>
    </g>
    <g id="ytick_4">
     <g id="line2d_25">
      <path d="M 668.16 259.2 
L 1094.4 259.2 
" clip-path="url(#p3783c0132c)" style="fill: none; stroke: #cccccc; stroke-opacity: 0.5; stroke-width: 0.8; stroke-linecap: square"/>
     </g>
     <g id="line2d_26">
      <g>
       <use xlink:href="#mc8523f348a" x="668.16" y="259.2" style="stroke: #000000; stroke-width: 0.8"/>
      </g>
     </g>
     <g id="text_5">
      <!-- 5.4M -->
      <g transform="translate(636.62875 262.999219) scale(0.1 -0.1)">
       <defs>
        <path id="DejaVuSans-35" d="M 691 4666 
L 3169 4666 
L 3169 4134 
L 1269 4134 
L 1269 2991 
Q 1406 3038 1543 3061 
Q 1681 3084 1819 3084 
Q 2600 3084 3056 2656 
Q 3513 2228 3513 1497 
Q 3513 744 3044 326 
Q 2575 -91 1722 -91 
Q 1428 -91 1123 -41 
Q 819 9 494 109 
L 494 744 
Q 775 591 1075 516 
Q 1375 441 1709 441 
Q 2250 441 2565 725 
Q 2881 1009 2881 1497 
Q 2881 1984 2565 2268 
Q 2250 2553 1709 2553 
Q 1456 2553 1204 2497 
Q 953 2441 691 2322 
L 691 4666 
z
" transform="scale(0.015625)"/>
        <path id="DejaVuSans-34" d="M 2419 4116 
L 825 1625 
L 2419 1625 
L 2419 4116 
z
M 2253 4666 
L 3047 4666 
L 3047 1625 
L 3713 1625 
L 3713 1100 
L 3047 1100 
L 3047 0 
L 2419 0 
L 2419 1100 
L 313 1100 
L 313 1709 
L 2253 4666 
z
" transform="scale(0.015625)"/>
       </defs>
       <use xlink:href="#DejaVuSans-35"/>
       <use xlink:href="#DejaVuSans-2e" transform="translate(63.623047 0)"/>
       <use xlink:href="#DejaVuSans-34" transform="translate(95.410156 0)"/>
       <use xlink:href="#DejaVuSans-4d" transform="translate(159.033203 0)"/>
      </g>
     </g>
    </g>
    <g id="ytick_5">
     <g id="line2d_27">
      <path d="M 668.16 162 
L 1094.4 162 
" clip-path="url(#p3783c0132c)" style="fill: none; stroke: #cccccc; stroke-opacity: 0.5; stroke-width: 0.8; stroke-linecap: square"/>
     </g>
     <g id="line2d_28">
      <g>
       <use xlink:href="#mc8523f348a" x="668.16" y="162" style="stroke: #000000; stroke-width: 0.8"/>
      </g>
     </g>
     <g id="text_6">
      <!-- 7.2M -->
      <g transform="translate(636.62875 165.799219) scale(0.1 -0.1)">
       <defs>
        <path id="DejaVuSans-37" d="M 525 4666 
L 3525 4666 
L 3525 4397 
L 1831 0 
L 1172 0 
L 2766 4134 
L 525 4134 
L 525 4666 
z
" transform="scale(0.015625)"/>
        <path id="DejaVuSans-32" d="M 1228 531 
L 3431 531 
L 3431 0 
L 469 0 
L 469 531 
Q 828 903 1448 1529 
Q 2069 2156 2228 2338 
Q 2531 2678 2651 2914 
Q 2772 3150 2772 3378 
Q 2772 3750 2511 3984 
Q 2250 4219 1831 4219 
Q 1534 4219 1204 4116 
Q 875 4013 500 3803 
L 500 4441 
Q 881 4594 1212 4672 
Q 1544 4750 1819 4750 
Q 2544 4750 2975 4387 
Q 3406 4025 3406 3419 
Q 3406 3131 3298 2873 
Q 3191 2616 2906 2266 
Q 2828 2175 2409 1742 
Q 1991 1309 1228 531 
z
" transform="scale(0.015625)"/>
       </defs>
       <use xlink:href="#DejaVuSans-37"/>
       <use xlink:href="#DejaVuSans-2e" transform="translate(63.623047 0)"/>
       <use xlink:href="#DejaVuSans-32" transform="translate(95.410156 0)"/>
       <use xlink:href="#DejaVuSans-4d" transform="translate(159.033203 0)"/>
      </g>
     </g>
    </g>
    <g id="ytick_6">
     <g id="line2d_29">
      <path d="M 668.16 64.8 
L 1094.4 64.8 
" clip-path="url(#p3783c0132c)" style="fill: none; stroke: #cccccc; stroke-opacity: 0.5; stroke-width: 0.8; stroke-linecap: square"/>
     </g>
     <g id="line2d_30">
      <g>
       <use xlink:href="#mc8523f348a" x="668.16" y="64.8" style="stroke: #000000; stroke-width: 0.8"/>
      </g>
     </g>
     <g id="text_7">
      <!-- 9.0M -->
      <g transform="translate(636.62875 68.599219) scale(0.1 -0.1)">
       <defs>
        <path id="DejaVuSans-39" d="M 703 97 
L 703 672 
Q 941 559 1184 500 
Q 1428 441 1663 441 
Q 2288 441 2617 861 
Q 2947 1281 2994 2138 
Q 2813 1869 2534 1725 
Q 2256 1581 1919 1581 
Q 1219 1581 811 2004 
Q 403 2428 403 3163 
Q 403 3881 828 4315 
Q 1253 4750 1959 4750 
Q 2769 4750 3195 4129 
Q 3622 3509 3622 2328 
Q 3622 1225 3098 567 
Q 2575 -91 1691 -91 
Q 1453 -91 1209 -44 
Q 966 3 703 97 
z
M 1959 2075 
Q 2384 2075 2632 2365 
Q 2881 2656 2881 3163 
Q 2881 3666 2632 3958 
Q 2384 4250 1959 4250 
Q 1534 4250 1286 3958 
Q 1038 3666 1038 3163 
Q 1038 2656 1286 2365 
Q 1534 2075 1959 2075 
z
" transform="scale(0.015625)"/>
       </defs>
       <use xlink:href="#DejaVuSans-39"/>
       <use xlink:href="#DejaVuSans-2e" transform="translate(63.623047 0)"/>
       <use xlink:href="#DejaVuSans-30" transform="translate(95.410156 0)"/>
       <use xlink:href="#DejaVuSans-4d" transform="translate(159.033203 0)"/>
      </g>
     </g>
    </g>
    <g id="text_8">
     <!-- msgs/s -->
     <g transform="translate(624.039375 331.251562) rotate(-90) scale(0.12 -0.12)">
      <defs>
       <path id="DejaVuSans-Bold-73" d="M 3272 3391 
L 3272 2541 
Q 2913 2691 2578 2766 
Q 2244 2841 1947 2841 
Q 1628 2841 1473 2761 
Q 1319 2681 1319 2516 
Q 1319 2381 1436 2309 
Q 1553 2238 1856 2203 
L 2053 2175 
Q 2913 2066 3209 1816 
Q 3506 1566 3506 1031 
Q 3506 472 3093 190 
Q 2681 -91 1863 -91 
Q 1516 -91 1145 -36 
Q 775 19 384 128 
L 384 978 
Q 719 816 1070 734 
Q 1422 653 1784 653 
Q 2113 653 2278 743 
Q 2444 834 2444 1013 
Q 2444 1163 2330 1236 
Q 2216 1309 1875 1350 
L 1678 1375 
Q 931 1469 631 1722 
Q 331 1975 331 2491 
Q 331 3047 712 3315 
Q 1094 3584 1881 3584 
Q 2191 3584 2531 3537 
Q 2872 3491 3272 3391 
z
" transform="scale(0.015625)"/>
       <path id="DejaVuSans-Bold-67" d="M 2919 594 
Q 2688 288 2409 144 
Q 2131 0 1766 0 
Q 1125 0 706 504 
Q 288 1009 288 1791 
Q 288 2575 706 3076 
Q 1125 3578 1766 3578 
Q 2131 3578 2409 3434 
Q 2688 3291 2919 2981 
L 2919 3500 
L 4044 3500 
L 4044 353 
Q 4044 -491 3511 -936 
Q 2978 -1381 1966 -1381 
Q 1638 -1381 1331 -1331 
Q 1025 -1281 716 -1178 
L 716 -306 
Q 1009 -475 1290 -558 
Q 1572 -641 1856 -641 
Q 2406 -641 2662 -400 
Q 2919 -159 2919 353 
L 2919 594 
z
M 2181 2772 
Q 1834 2772 1640 2515 
Q 1447 2259 1447 1791 
Q 1447 1309 1634 1061 
Q 1822 813 2181 813 
Q 2531 813 2725 1069 
Q 2919 1325 2919 1791 
Q 2919 2259 2725 2515 
Q 2531 2772 2181 2772 
z
" transform="scale(0.015625)"/>
       <path id="DejaVuSans-Bold-2f" d="M 1644 4666 
L 2338 4666 
L 691 -594 
L 0 -594 
L 1644 4666 
z
" transform="scale(0.015625)"/>
      </defs>
      <use xlink:href="#DejaVuSans-Bold-6d"/>
      <use xlink:href="#DejaVuSans-Bold-73" transform="translate(104.199219 0)"/>
      <use xlink:href="#DejaVuSans-Bold-67" transform="translate(163.720703 0)"/>
      <use xlink:href="#DejaVuSans-Bold-73" transform="translate(235.302734 0)"/>
      <use xlink:href="#DejaVuSans-Bold-2f" transform="translate(294.824219 0)"/>
      <use xlink:href="#DejaVuSans-Bold-73" transform="translate(331.347656 0)"/>
     </g>
    </g>
   </g>
   <g id="line2d_31">
    <path d="M 687.534545 507.572038 
L 691.448595 516.875147 
L 695.362645 520.075481 
L 699.276694 515.181636 
L 703.190744 509.003089 
L 707.104793 513.586807 
L 711.018843 521.265971 
L 714.932893 523.784148 
L 718.846942 510.998191 
L 722.760992 493.721192 
L 726.675041 502.97112 
L 730.589091 504.410085 
L 734.50314 514.486074 
L 738.41719 521.495416 
L 742.33124 523.643299 
L 746.245289 521.033422 
L 750.159339 509.850502 
L 754.073388 498.101754 
L 757.987438 492.497368 
L 761.901488 507.921195 
L 765.815537 519.812569 
L 769.729587 521.507465 
L 773.643636 523.590394 
L 777.557686 523.218353 
L 781.471736 522.878412 
L 785.385785 523.272796 
L 789.299835 521.739026 
L 793.213884 522.742328 
L 797.127934 522.568023 
L 801.041983 522.907302 
L 804.956033 523.223469 
L 808.870083 523.890568 
L 812.784132 521.343333 
L 816.698182 512.549082 
L 820.612231 496.824584 
L 824.526281 496.971468 
L 828.440331 510.537361 
L 832.35438 517.289273 
L 836.26843 516.023384 
L 840.182479 503.12183 
L 844.096529 524.821388 
L 848.010579 518.719651 
L 851.924628 509.846208 
L 855.838678 495.152474 
L 859.752727 491.924893 
L 863.666777 507.903236 
L 867.580826 517.071386 
L 871.494876 523.104509 
L 875.408926 524.073745 
L 879.322975 522.885078 
L 883.237025 524.354651 
L 887.151074 522.690636 
L 891.065124 522.595314 
L 894.979174 511.845182 
L 898.893223 521.382922 
L 902.807273 513.052386 
L 906.721322 508.421088 
L 910.635372 514.407692 
L 914.549421 519.268273 
L 918.463471 522.184427 
L 922.377521 514.532876 
L 926.29157 503.225301 
L 930.20562 512.975964 
L 934.119669 513.132377 
L 938.033719 523.646686 
L 941.947769 525.207775 
L 945.861818 523.310094 
L 949.775868 523.706383 
L 953.689917 521.182408 
L 957.603967 514.446424 
L 961.518017 510.363948 
L 965.432066 513.06855 
L 969.346116 512.358028 
L 973.260165 495.089948 
L 977.174215 515.615613 
L 981.088264 522.162342 
L 985.002314 521.210486 
L 988.916364 516.203143 
L 992.830413 503.168177 
L 996.744463 502.646139 
L 1000.658512 523.407951 
L 1004.572562 508.574862 
L 1008.486612 525.043029 
L 1012.400661 523.30558 
L 1016.314711 524.591278 
L 1020.22876 497.62484 
L 1024.14281 523.675424 
L 1028.05686 523.121838 
L 1031.970909 521.419198 
L 1035.884959 516.426861 
L 1039.799008 509.765766 
L 1043.713058 515.176354 
L 1047.627107 520.687403 
L 1051.541157 523.572985 
L 1055.455207 513.892068 
L 1059.369256 499.808052 
L 1063.283306 513.353848 
L 1067.197355 523.704795 
L 1071.111405 525.077527 
L 1075.025455 522.96564 
" clip-path="url(#p3783c0132c)" style="fill: none; stroke: #4a2e83; stroke-width: 2; stroke-linecap: square"/>
   </g>
   <g id="line2d_32">
    <path d="M 668.16 525.207775 
L 1094.4 525.207775 
" clip-path="url(#p3783c0132c)" style="fill: none; stroke-dasharray: 5.55,2.4; stroke-dashoffset: 0; stroke: #777777; stroke-opacity: 0.7; stroke-width: 1.5"/>
   </g>
   <g id="line2d_33">
    <path d="M 668.16 491.924893 
L 1094.4 491.924893 
" clip-path="url(#p3783c0132c)" style="fill: none; stroke-dasharray: 5.55,2.4; stroke-dashoffset: 0; stroke: #777777; stroke-opacity: 0.7; stroke-width: 1.5"/>
   </g>
   <g id="line2d_34">
    <path d="M 668.16 515.326381 
L 1094.4 515.326381 
" clip-path="url(#p3783c0132c)" style="fill: none; stroke: #999999; stroke-opacity: 0.7; stroke-width: 1.5; stroke-linecap: square"/>
   </g>
   <g id="patch_48">
    <path d="M 668.16 550.8 
L 668.16 64.8 
" style="fill: none; stroke: #000000; stroke-width: 0.8; stroke-linejoin: miter; stroke-linecap: square"/>
   </g>
   <g id="patch_49">
    <path d="M 1094.4 550.8 
L 1094.4 64.8 
" style="fill: none; stroke: #000000; stroke-width: 0.8; stroke-linejoin: miter; stroke-linecap: square"/>
   </g>
   <g id="patch_50">
    <path d="M 668.16 550.8 
L 1094.4 550.8 
" style="fill: none; stroke: #000000; stroke-width: 0.8; stroke-linejoin: miter; stroke-linecap: square"/>
   </g>
   <g id="patch_51">
    <path d="M 668.16 64.8 
L 1094.4 64.8 
" style="fill: none; stroke: #000000; stroke-width: 0.8; stroke-linejoin: miter; stroke-linecap: square"/>
   </g>
  </g>
  <g id="text_9">
   <!-- Effect of aggregating decorrelated workloads on net system load (n=9) -->
   <g transform="translate(172.253125 21.676875) scale(0.2 -0.2)">
    <defs>
     <path id="DejaVuSans-Bold-45" d="M 588 4666 
L 3834 4666 
L 3834 3756 
L 1791 3756 
L 1791 2888 
L 3713 2888 
L 3713 1978 
L 1791 1978 
L 1791 909 
L 3903 909 
L 3903 0 
L 588 0 
L 588 4666 
z
" transform="scale(0.015625)"/>
     <path id="DejaVuSans-Bold-66" d="M 2841 4863 
L 2841 4128 
L 2222 4128 
Q 1984 4128 1890 4042 
Q 1797 3956 1797 3744 
L 1797 3500 
L 2753 3500 
L 2753 2700 
L 1797 2700 
L 1797 0 
L 678 0 
L 678 2700 
L 122 2700 
L 122 3500 
L 678 3500 
L 678 3744 
Q 678 4316 997 4589 
Q 1316 4863 1984 4863 
L 2841 4863 
z
" transform="scale(0.015625)"/>
     <path id="DejaVuSans-Bold-63" d="M 3366 3391 
L 3366 2478 
Q 3138 2634 2908 2709 
Q 2678 2784 2431 2784 
Q 1963 2784 1702 2511 
Q 1441 2238 1441 1747 
Q 1441 1256 1702 982 
Q 1963 709 2431 709 
Q 2694 709 2930 787 
Q 3166 866 3366 1019 
L 3366 103 
Q 3103 6 2833 -42 
Q 2563 -91 2291 -91 
Q 1344 -91 809 395 
Q 275 881 275 1747 
Q 275 2613 809 3098 
Q 1344 3584 2291 3584 
Q 2566 3584 2833 3536 
Q 3100 3488 3366 3391 
z
" transform="scale(0.015625)"/>
     <path id="DejaVuSans-Bold-20" transform="scale(0.015625)"/>
     <path id="DejaVuSans-Bold-6f" d="M 2203 2784 
Q 1831 2784 1636 2517 
Q 1441 2250 1441 1747 
Q 1441 1244 1636 976 
Q 1831 709 2203 709 
Q 2569 709 2762 976 
Q 2956 1244 2956 1747 
Q 2956 2250 2762 2517 
Q 2569 2784 2203 2784 
z
M 2203 3584 
Q 3106 3584 3614 3096 
Q 4122 2609 4122 1747 
Q 4122 884 3614 396 
Q 3106 -91 2203 -91 
Q 1297 -91 786 396 
Q 275 884 275 1747 
Q 275 2609 786 3096 
Q 1297 3584 2203 3584 
z
" transform="scale(0.015625)"/>
     <path id="DejaVuSans-Bold-61" d="M 2106 1575 
Q 1756 1575 1579 1456 
Q 1403 1338 1403 1106 
Q 1403 894 1545 773 
Q 1688 653 1941 653 
Q 2256 653 2472 879 
Q 2688 1106 2688 1447 
L 2688 1575 
L 2106 1575 
z
M 3816 1997 
L 3816 0 
L 2688 0 
L 2688 519 
Q 2463 200 2181 54 
Q 1900 -91 1497 -91 
Q 953 -91 614 226 
Q 275 544 275 1050 
Q 275 1666 698 1953 
Q 1122 2241 2028 2241 
L 2688 2241 
L 2688 2328 
Q 2688 2594 2478 2717 
Q 2269 2841 1825 2841 
Q 1466 2841 1156 2769 
Q 847 2697 581 2553 
L 581 3406 
Q 941 3494 1303 3539 
Q 1666 3584 2028 3584 
Q 2975 3584 3395 3211 
Q 3816 2838 3816 1997 
z
" transform="scale(0.015625)"/>
     <path id="DejaVuSans-Bold-72" d="M 3138 2547 
Q 2991 2616 2845 2648 
Q 2700 2681 2553 2681 
Q 2122 2681 1889 2404 
Q 1656 2128 1656 1613 
L 1656 0 
L 538 0 
L 538 3500 
L 1656 3500 
L 1656 2925 
Q 1872 3269 2151 3426 
Q 2431 3584 2822 3584 
Q 2878 3584 2943 3579 
Q 3009 3575 3134 3559 
L 3138 2547 
z
" transform="scale(0.015625)"/>
     <path id="DejaVuSans-Bold-6e" d="M 4056 2131 
L 4056 0 
L 2931 0 
L 2931 347 
L 2931 1631 
Q 2931 2084 2911 2256 
Q 2891 2428 2841 2509 
Q 2775 2619 2662 2680 
Q 2550 2741 2406 2741 
Q 2056 2741 1856 2470 
Q 1656 2200 1656 1722 
L 1656 0 
L 538 0 
L 538 3500 
L 1656 3500 
L 1656 2988 
Q 1909 3294 2193 3439 
Q 2478 3584 2822 3584 
Q 3428 3584 3742 3212 
Q 4056 2841 4056 2131 
z
" transform="scale(0.015625)"/>
     <path id="DejaVuSans-Bold-64" d="M 2919 2988 
L 2919 4863 
L 4044 4863 
L 4044 0 
L 2919 0 
L 2919 506 
Q 2688 197 2409 53 
Q 2131 -91 1766 -91 
Q 1119 -91 703 423 
Q 288 938 288 1747 
Q 288 2556 703 3070 
Q 1119 3584 1766 3584 
Q 2128 3584 2408 3439 
Q 2688 3294 2919 2988 
z
M 2181 722 
Q 2541 722 2730 984 
Q 2919 1247 2919 1747 
Q 2919 2247 2730 2509 
Q 2541 2772 2181 2772 
Q 1825 2772 1636 2509 
Q 1447 2247 1447 1747 
Q 1447 1247 1636 984 
Q 1825 722 2181 722 
z
" transform="scale(0.015625)"/>
     <path id="DejaVuSans-Bold-6c" d="M 538 4863 
L 1656 4863 
L 1656 0 
L 538 0 
L 538 4863 
z
" transform="scale(0.015625)"/>
     <path id="DejaVuSans-Bold-77" d="M 225 3500 
L 1313 3500 
L 1900 1088 
L 2491 3500 
L 3425 3500 
L 4013 1113 
L 4603 3500 
L 5691 3500 
L 4769 0 
L 3547 0 
L 2956 2406 
L 2369 0 
L 1147 0 
L 225 3500 
z
" transform="scale(0.015625)"/>
     <path id="DejaVuSans-Bold-6b" d="M 538 4863 
L 1656 4863 
L 1656 2216 
L 2944 3500 
L 4244 3500 
L 2534 1894 
L 4378 0 
L 3022 0 
L 1656 1459 
L 1656 0 
L 538 0 
L 538 4863 
z
" transform="scale(0.015625)"/>
     <path id="DejaVuSans-Bold-79" d="M 78 3500 
L 1197 3500 
L 2138 1125 
L 2938 3500 
L 4056 3500 
L 2584 -331 
Q 2363 -916 2067 -1148 
Q 1772 -1381 1288 -1381 
L 641 -1381 
L 641 -647 
L 991 -647 
Q 1275 -647 1404 -556 
Q 1534 -466 1606 -231 
L 1638 -134 
L 78 3500 
z
" transform="scale(0.015625)"/>
     <path id="DejaVuSans-Bold-28" d="M 2413 -844 
L 1484 -844 
Q 1006 -72 778 623 
Q 550 1319 550 2003 
Q 550 2688 779 3389 
Q 1009 4091 1484 4856 
L 2413 4856 
Q 2013 4116 1813 3408 
Q 1613 2700 1613 2009 
Q 1613 1319 1811 609 
Q 2009 -100 2413 -844 
z
" transform="scale(0.015625)"/>
     <path id="DejaVuSans-Bold-3d" d="M 678 3084 
L 4684 3084 
L 4684 2350 
L 678 2350 
L 678 3084 
z
M 678 1663 
L 4684 1663 
L 4684 922 
L 678 922 
L 678 1663 
z
" transform="scale(0.015625)"/>
     <path id="DejaVuSans-Bold-39" d="M 641 103 
L 641 966 
Q 928 831 1190 764 
Q 1453 697 1709 697 
Q 2247 697 2547 995 
Q 2847 1294 2900 1881 
Q 2688 1725 2447 1647 
Q 2206 1569 1925 1569 
Q 1209 1569 770 1986 
Q 331 2403 331 3084 
Q 331 3838 820 4291 
Q 1309 4744 2131 4744 
Q 3044 4744 3544 4128 
Q 4044 3513 4044 2388 
Q 4044 1231 3459 570 
Q 2875 -91 1856 -91 
Q 1528 -91 1228 -42 
Q 928 6 641 103 
z
M 2125 2350 
Q 2441 2350 2600 2554 
Q 2759 2759 2759 3169 
Q 2759 3575 2600 3781 
Q 2441 3988 2125 3988 
Q 1809 3988 1650 3781 
Q 1491 3575 1491 3169 
Q 1491 2759 1650 2554 
Q 1809 2350 2125 2350 
z
" transform="scale(0.015625)"/>
     <path id="DejaVuSans-Bold-29" d="M 513 -844 
Q 913 -100 1113 609 
Q 1313 1319 1313 2009 
Q 1313 2700 1113 3408 
Q 913 4116 513 4856 
L 1441 4856 
Q 1916 4091 2145 3389 
Q 2375 2688 2375 2003 
Q 2375 1319 2147 623 
Q 1919 -72 1441 -844 
L 513 -844 
z
" transform="scale(0.015625)"/>
    </defs>
    <use xlink:href="#DejaVuSans-Bold-45"/>
    <use xlink:href="#DejaVuSans-Bold-66" transform="translate(68.310547 0)"/>
    <use xlink:href="#DejaVuSans-Bold-66" transform="translate(111.816406 0)"/>
    <use xlink:href="#DejaVuSans-Bold-65" transform="translate(155.322266 0)"/>
    <use xlink:href="#DejaVuSans-Bold-63" transform="translate(223.144531 0)"/>
    <use xlink:href="#DejaVuSans-Bold-74" transform="translate(282.421875 0)"/>
    <use xlink:href="#DejaVuSans-Bold-20" transform="translate(330.224609 0)"/>
    <use xlink:href="#DejaVuSans-Bold-6f" transform="translate(365.039062 0)"/>
    <use xlink:href="#DejaVuSans-Bold-66" transform="translate(433.740234 0)"/>
    <use xlink:href="#DejaVuSans-Bold-20" transform="translate(477.246094 0)"/>
    <use xlink:href="#DejaVuSans-Bold-61" transform="translate(512.060547 0)"/>
    <use xlink:href="#DejaVuSans-Bold-67" transform="translate(579.541016 0)"/>
    <use xlink:href="#DejaVuSans-Bold-67" transform="translate(651.123047 0)"/>
    <use xlink:href="#DejaVuSans-Bold-72" transform="translate(722.705078 0)"/>
    <use xlink:href="#DejaVuSans-Bold-65" transform="translate(772.021484 0)"/>
    <use xlink:href="#DejaVuSans-Bold-67" transform="translate(839.84375 0)"/>
    <use xlink:href="#DejaVuSans-Bold-61" transform="translate(911.425781 0)"/>
    <use xlink:href="#DejaVuSans-Bold-74" transform="translate(978.90625 0)"/>
    <use xlink:href="#DejaVuSans-Bold-69" transform="translate(1026.708984 0)"/>
    <use xlink:href="#DejaVuSans-Bold-6e" transform="translate(1060.986328 0)"/>
    <use xlink:href="#DejaVuSans-Bold-67" transform="translate(1132.177734 0)"/>
    <use xlink:href="#DejaVuSans-Bold-20" transform="translate(1203.759766 0)"/>
    <use xlink:href="#DejaVuSans-Bold-64" transform="translate(1238.574219 0)"/>
    <use xlink:href="#DejaVuSans-Bold-65" transform="translate(1310.15625 0)"/>
    <use xlink:href="#DejaVuSans-Bold-63" transform="translate(1377.978516 0)"/>
    <use xlink:href="#DejaVuSans-Bold-6f" transform="translate(1437.255859 0)"/>
    <use xlink:href="#DejaVuSans-Bold-72" transform="translate(1505.957031 0)"/>
    <use xlink:href="#DejaVuSans-Bold-72" transform="translate(1555.273438 0)"/>
    <use xlink:href="#DejaVuSans-Bold-65" transform="translate(1604.589844 0)"/>
    <use xlink:href="#DejaVuSans-Bold-6c" transform="translate(1672.412109 0)"/>
    <use xlink:href="#DejaVuSans-Bold-61" transform="translate(1706.689453 0)"/>
    <use xlink:href="#DejaVuSans-Bold-74" transform="translate(1774.169922 0)"/>
    <use xlink:href="#DejaVuSans-Bold-65" transform="translate(1821.972656 0)"/>
    <use xlink:href="#DejaVuSans-Bold-64" transform="translate(1889.794922 0)"/>
    <use xlink:href="#DejaVuSans-Bold-20" transform="translate(1961.376953 0)"/>
    <use xlink:href="#DejaVuSans-Bold-77" transform="translate(1996.191406 0)"/>
    <use xlink:href="#DejaVuSans-Bold-6f" transform="translate(2088.574219 0)"/>
    <use xlink:href="#DejaVuSans-Bold-72" transform="translate(2157.275391 0)"/>
    <use xlink:href="#DejaVuSans-Bold-6b" transform="translate(2206.591797 0)"/>
    <use xlink:href="#DejaVuSans-Bold-6c" transform="translate(2273.095703 0)"/>
    <use xlink:href="#DejaVuSans-Bold-6f" transform="translate(2307.373047 0)"/>
    <use xlink:href="#DejaVuSans-Bold-61" transform="translate(2376.074219 0)"/>
    <use xlink:href="#DejaVuSans-Bold-64" transform="translate(2443.554688 0)"/>
    <use xlink:href="#DejaVuSans-Bold-73" transform="translate(2515.136719 0)"/>
    <use xlink:href="#DejaVuSans-Bold-20" transform="translate(2574.658203 0)"/>
    <use xlink:href="#DejaVuSans-Bold-6f" transform="translate(2609.472656 0)"/>
    <use xlink:href="#DejaVuSans-Bold-6e" transform="translate(2678.173828 0)"/>
    <use xlink:href="#DejaVuSans-Bold-20" transform="translate(2749.365234 0)"/>
    <use xlink:href="#DejaVuSans-Bold-6e" transform="translate(2784.179688 0)"/>
    <use xlink:href="#DejaVuSans-Bold-65" transform="translate(2855.371094 0)"/>
    <use xlink:href="#DejaVuSans-Bold-74" transform="translate(2923.193359 0)"/>
    <use xlink:href="#DejaVuSans-Bold-20" transform="translate(2970.996094 0)"/>
    <use xlink:href="#DejaVuSans-Bold-73" transform="translate(3005.810547 0)"/>
    <use xlink:href="#DejaVuSans-Bold-79" transform="translate(3065.332031 0)"/>
    <use xlink:href="#DejaVuSans-Bold-73" transform="translate(3130.517578 0)"/>
    <use xlink:href="#DejaVuSans-Bold-74" transform="translate(3190.039062 0)"/>
    <use xlink:href="#DejaVuSans-Bold-65" transform="translate(3237.841797 0)"/>
    <use xlink:href="#DejaVuSans-Bold-6d" transform="translate(3305.664062 0)"/>
    <use xlink:href="#DejaVuSans-Bold-20" transform="translate(3409.863281 0)"/>
    <use xlink:href="#DejaVuSans-Bold-6c" transform="translate(3444.677734 0)"/>
    <use xlink:href="#DejaVuSans-Bold-6f" transform="translate(3478.955078 0)"/>
    <use xlink:href="#DejaVuSans-Bold-61" transform="translate(3547.65625 0)"/>
    <use xlink:href="#DejaVuSans-Bold-64" transform="translate(3615.136719 0)"/>
    <use xlink:href="#DejaVuSans-Bold-20" transform="translate(3686.71875 0)"/>
    <use xlink:href="#DejaVuSans-Bold-28" transform="translate(3721.533203 0)"/>
    <use xlink:href="#DejaVuSans-Bold-6e" transform="translate(3767.236328 0)"/>
    <use xlink:href="#DejaVuSans-Bold-3d" transform="translate(3838.427734 0)"/>
    <use xlink:href="#DejaVuSans-Bold-39" transform="translate(3922.216797 0)"/>
    <use xlink:href="#DejaVuSans-Bold-29" transform="translate(3991.796875 0)"/>
   </g>
  </g>
  <g id="text_10">
   <!-- Individual workloads -->
   <g transform="translate(205.992812 51.84) scale(0.14 -0.14)">
    <defs>
     <path id="DejaVuSans-Bold-49" d="M 588 4666 
L 1791 4666 
L 1791 0 
L 588 0 
L 588 4666 
z
" transform="scale(0.015625)"/>
     <path id="DejaVuSans-Bold-76" d="M 97 3500 
L 1216 3500 
L 2088 1081 
L 2956 3500 
L 4078 3500 
L 2700 0 
L 1472 0 
L 97 3500 
z
" transform="scale(0.015625)"/>
     <path id="DejaVuSans-Bold-75" d="M 500 1363 
L 500 3500 
L 1625 3500 
L 1625 3150 
Q 1625 2866 1622 2436 
Q 1619 2006 1619 1863 
Q 1619 1441 1641 1255 
Q 1663 1069 1716 984 
Q 1784 875 1895 815 
Q 2006 756 2150 756 
Q 2500 756 2700 1025 
Q 2900 1294 2900 1772 
L 2900 3500 
L 4019 3500 
L 4019 0 
L 2900 0 
L 2900 506 
Q 2647 200 2364 54 
Q 2081 -91 1741 -91 
Q 1134 -91 817 281 
Q 500 653 500 1363 
z
" transform="scale(0.015625)"/>
    </defs>
    <use xlink:href="#DejaVuSans-Bold-49"/>
    <use xlink:href="#DejaVuSans-Bold-6e" transform="translate(37.207031 0)"/>
    <use xlink:href="#DejaVuSans-Bold-64" transform="translate(108.398438 0)"/>
    <use xlink:href="#DejaVuSans-Bold-69" transform="translate(179.980469 0)"/>
    <use xlink:href="#DejaVuSans-Bold-76" transform="translate(214.257812 0)"/>
    <use xlink:href="#DejaVuSans-Bold-69" transform="translate(279.443359 0)"/>
    <use xlink:href="#DejaVuSans-Bold-64" transform="translate(313.720703 0)"/>
    <use xlink:href="#DejaVuSans-Bold-75" transform="translate(385.302734 0)"/>
    <use xlink:href="#DejaVuSans-Bold-61" transform="translate(456.494141 0)"/>
    <use xlink:href="#DejaVuSans-Bold-6c" transform="translate(523.974609 0)"/>
    <use xlink:href="#DejaVuSans-Bold-20" transform="translate(558.251953 0)"/>
    <use xlink:href="#DejaVuSans-Bold-77" transform="translate(593.066406 0)"/>
    <use xlink:href="#DejaVuSans-Bold-6f" transform="translate(685.449219 0)"/>
    <use xlink:href="#DejaVuSans-Bold-72" transform="translate(754.150391 0)"/>
    <use xlink:href="#DejaVuSans-Bold-6b" transform="translate(803.466797 0)"/>
    <use xlink:href="#DejaVuSans-Bold-6c" transform="translate(869.970703 0)"/>
    <use xlink:href="#DejaVuSans-Bold-6f" transform="translate(904.248047 0)"/>
    <use xlink:href="#DejaVuSans-Bold-61" transform="translate(972.949219 0)"/>
    <use xlink:href="#DejaVuSans-Bold-64" transform="translate(1040.429688 0)"/>
    <use xlink:href="#DejaVuSans-Bold-73" transform="translate(1112.011719 0)"/>
   </g>
  </g>
  <g id="text_11">
   <!-- Aggregate -->
   <g transform="translate(834.05375 51.84) scale(0.14 -0.14)">
    <defs>
     <path id="DejaVuSans-Bold-41" d="M 3419 850 
L 1538 850 
L 1241 0 
L 31 0 
L 1759 4666 
L 3194 4666 
L 4922 0 
L 3713 0 
L 3419 850 
z
M 1838 1716 
L 3116 1716 
L 2478 3572 
L 1838 1716 
z
" transform="scale(0.015625)"/>
    </defs>
    <use xlink:href="#DejaVuSans-Bold-41"/>
    <use xlink:href="#DejaVuSans-Bold-67" transform="translate(77.392578 0)"/>
    <use xlink:href="#DejaVuSans-Bold-67" transform="translate(148.974609 0)"/>
    <use xlink:href="#DejaVuSans-Bold-72" transform="translate(220.556641 0)"/>
    <use xlink:href="#DejaVuSans-Bold-65" transform="translate(269.873047 0)"/>
    <use xlink:href="#DejaVuSans-Bold-67" transform="translate(337.695312 0)"/>
    <use xlink:href="#DejaVuSans-Bold-61" transform="translate(409.277344 0)"/>
    <use xlink:href="#DejaVuSans-Bold-74" transform="translate(476.757812 0)"/>
    <use xlink:href="#DejaVuSans-Bold-65" transform="translate(524.560547 0)"/>
   </g>
  </g>
 </g>
 <defs>
  <clipPath id="p48f520a7aa">
   <rect x="57.6" y="64.8" width="144" height="151.875"/>
  </clipPath>
  <clipPath id="pe8307b0e95">
   <rect x="216" y="64.8" width="144" height="151.875"/>
  </clipPath>
  <clipPath id="p4c9f725dd4">
   <rect x="374.4" y="64.8" width="144" height="151.875"/>
  </clipPath>
  <clipPath id="p6a46ee6418">
   <rect x="57.6" y="231.8625" width="144" height="151.875"/>
  </clipPath>
  <clipPath id="pe98fbf865d">
   <rect x="216" y="231.8625" width="144" height="151.875"/>
  </clipPath>
  <clipPath id="p88694fb404">
   <rect x="374.4" y="231.8625" width="144" height="151.875"/>
  </clipPath>
  <clipPath id="pbd884cee4c">
   <rect x="57.6" y="398.925" width="144" height="151.875"/>
  </clipPath>
  <clipPath id="p192ab2ed1f">
   <rect x="216" y="398.925" width="144" height="151.875"/>
  </clipPath>
  <clipPath id="pf1a30cfdc2">
   <rect x="374.4" y="398.925" width="144" height="151.875"/>
  </clipPath>
  <clipPath id="p3783c0132c">
   <rect x="668.16" y="64.8" width="426.24" height="486"/>
  </clipPath>
 </defs>
</svg>
