<?xml version="1.0" encoding="utf-8" standalone="no"?>
<!DOCTYPE svg PUBLIC "-//W3C//DTD SVG 1.1//EN"
  "http://www.w3.org/Graphics/SVG/1.1/DTD/svg11.dtd">
<svg xmlns:xlink="http://www.w3.org/1999/xlink" width="1152pt" height="648pt" viewBox="0 0 1152 648" xmlns="http://www.w3.org/2000/svg" version="1.1">
 <metadata>
  <rdf:RDF xmlns:dc="http://purl.org/dc/elements/1.1/" xmlns:cc="http://creativecommons.org/ns#" xmlns:rdf="http://www.w3.org/1999/02/22-rdf-syntax-ns#">
   <cc:Work>
    <dc:type rdf:resource="http://purl.org/dc/dcmitype/StillImage"/>
    <dc:date>2025-03-12T19:42:02.076335</dc:date>
    <dc:format>image/svg+xml</dc:format>
    <dc:creator>
     <cc:Agent>
      <dc:title>Matplotlib v3.10.1, https://matplotlib.org/</dc:title>
     </cc:Agent>
    </dc:creator>
   </cc:Work>
  </rdf:RDF>
 </metadata>
 <defs>
  <style type="text/css">*{stroke-linejoin: round; stroke-linecap: butt}</style>
 </defs>
 <g id="figure_1">
  <g id="patch_1">
   <path d="M 0 648 
L 1152 648 
L 1152 0 
L 0 0 
z
" style="fill: #ffffff"/>
  </g>
  <g id="axes_1">
   <g id="patch_2">
    <path d="M 57.6 550.8 
L 518.4 550.8 
L 518.4 64.8 
L 57.6 64.8 
z
" style="fill: #ffffff"/>
   </g>
   <g id="matplotlib.axis_1"/>
   <g id="matplotlib.axis_2"/>
   <g id="line2d_1">
    <path d="M 78.545455 512.198325 
L 82.77686 518.892236 
L 87.008264 513.052387 
L 91.239669 512.560605 
L 95.471074 514.665737 
L 99.702479 511.950683 
L 103.933884 524.235398 
L 108.165289 517.870405 
L 112.396694 512.703098 
L 116.628099 521.001931 
L 120.859504 514.493028 
L 125.090909 513.944787 
L 129.322314 512.741719 
L 133.553719 512.24097 
L 137.785124 516.81388 
L 142.016529 514.248284 
L 146.247934 473.533656 
L 150.479339 396.267311 
L 154.710744 319.000967 
L 158.942149 396.267311 
L 163.173554 473.533656 
L 167.404959 510.050375 
L 171.636364 519.551091 
L 175.867769 508.455824 
L 180.099174 511.99489 
L 184.330579 516.387599 
L 188.561983 517.916284 
L 192.793388 511.548976 
L 197.024793 516.919082 
L 201.256198 512.027323 
L 205.487603 515.615711 
L 209.719008 518.327048 
L 213.950413 513.777895 
L 218.181818 512.996936 
L 222.413223 510.555798 
L 226.644628 513.926862 
L 230.876033 515.555672 
L 235.107438 516.737472 
L 239.338843 519.290704 
L 243.570248 510.653976 
L 247.801653 515.136685 
L 252.033058 512.533279 
L 256.264463 517.188073 
L 260.495868 511.144294 
L 264.727273 515.279773 
L 268.958678 518.429937 
L 273.190083 509.721076 
L 277.421488 516.020227 
L 281.652893 513.71065 
L 285.884298 513.311754 
L 290.115702 524.224231 
L 294.347107 515.418361 
L 298.578512 513.374054 
L 302.809917 513.087348 
L 307.041322 518.24523 
L 311.272727 509.478391 
L 315.504132 514.006081 
L 319.735537 514.382054 
L 323.966942 512.612379 
L 328.198347 508.651103 
L 332.429752 513.708333 
L 336.661157 520.106601 
L 340.892562 507.774211 
L 345.123967 511.943518 
L 349.355372 514.326963 
L 353.586777 515.462829 
L 357.818182 517.870988 
L 362.049587 519.611263 
L 366.280992 515.066428 
L 370.512397 516.792498 
L 374.743802 518.139723 
L 378.975207 519.860521 
L 383.206612 515.795139 
L 387.438017 519.637062 
L 391.669421 519.361092 
L 395.900826 518.67271 
L 400.132231 514.225819 
L 404.363636 520.453121 
L 408.595041 517.725243 
L 412.826446 509.95253 
L 417.057851 517.149369 
L 421.289256 513.587639 
L 425.520661 521.51316 
L 429.752066 516.799411 
L 433.983471 513.851353 
L 438.214876 514.430901 
L 442.446281 520.218128 
L 446.677686 513.776208 
L 450.909091 521.749511 
L 455.140496 520.570347 
L 459.371901 515.797007 
L 463.603306 526.596456 
L 467.834711 517.287165 
L 472.066116 518.949508 
L 476.297521 515.055818 
L 480.528926 515.50689 
L 484.760331 518.361029 
L 488.991736 516.885013 
L 493.22314 517.681231 
L 497.454545 514.911979 
" clip-path="url(#p9b3967031c)" style="fill: none; stroke: #4a2e83; stroke-width: 0.8; stroke-linecap: square"/>
   </g>
   <g id="line2d_2">
    <path d="M 57.6 510.376256 
L 518.4 510.376256 
" clip-path="url(#p9b3967031c)" style="fill: none; stroke: #999999; stroke-opacity: 0.7; stroke-width: 0.8; stroke-linecap: square"/>
   </g>
   <g id="patch_3">
    <path d="M 57.6 550.8 
L 57.6 64.8 
" style="fill: none; stroke: #cccccc; stroke-width: 0.5; stroke-linejoin: miter; stroke-linecap: square"/>
   </g>
   <g id="patch_4">
    <path d="M 518.4 550.8 
L 518.4 64.8 
" style="fill: none; stroke: #cccccc; stroke-width: 0.5; stroke-linejoin: miter; stroke-linecap: square"/>
   </g>
   <g id="patch_5">
    <path d="M 57.6 550.8 
L 518.4 550.8 
" style="fill: none; stroke: #cccccc; stroke-width: 0.5; stroke-linejoin: miter; stroke-linecap: square"/>
   </g>
   <g id="patch_6">
    <path d="M 57.6 64.8 
L 518.4 64.8 
" style="fill: none; stroke: #cccccc; stroke-width: 0.5; stroke-linejoin: miter; stroke-linecap: square"/>
   </g>
  </g>
  <g id="axes_2">
   <g id="patch_7">
    <path d="M 668.16 550.8 
L 1094.4 550.8 
L 1094.4 64.8 
L 668.16 64.8 
z
" style="fill: #ffffff"/>
   </g>
   <g id="matplotlib.axis_3">
    <g id="text_1">
     <!-- time -->
     <g transform="translate(866.033437 563.918125) scale(0.12 -0.12)">
      <defs>
       <path id="DejaVuSans-Bold-74" d="M 1759 4494 
L 1759 3500 
L 2913 3500 
L 2913 2700 
L 1759 2700 
L 1759 1216 
Q 1759 972 1856 886 
Q 1953 800 2241 800 
L 2816 800 
L 2816 0 
L 1856 0 
Q 1194 0 917 276 
Q 641 553 641 1216 
L 641 2700 
L 84 2700 
L 84 3500 
L 641 3500 
L 641 4494 
L 1759 4494 
z
" transform="scale(0.015625)"/>
       <path id="DejaVuSans-Bold-69" d="M 538 3500 
L 1656 3500 
L 1656 0 
L 538 0 
L 538 3500 
z
M 538 4863 
L 1656 4863 
L 1656 3950 
L 538 3950 
L 538 4863 
z
" transform="scale(0.015625)"/>
       <path id="DejaVuSans-Bold-6d" d="M 3781 2919 
Q 3994 3244 4286 3414 
Q 4578 3584 4928 3584 
Q 5531 3584 5847 3212 
Q 6163 2841 6163 2131 
L 6163 0 
L 5038 0 
L 5038 1825 
Q 5041 1866 5042 1909 
Q 5044 1953 5044 2034 
Q 5044 2406 4934 2573 
Q 4825 2741 4581 2741 
Q 4263 2741 4089 2478 
Q 3916 2216 3909 1719 
L 3909 0 
L 2784 0 
L 2784 1825 
Q 2784 2406 2684 2573 
Q 2584 2741 2328 2741 
Q 2006 2741 1831 2477 
Q 1656 2213 1656 1722 
L 1656 0 
L 531 0 
L 531 3500 
L 1656 3500 
L 1656 2988 
Q 1863 3284 2130 3434 
Q 2397 3584 2719 3584 
Q 3081 3584 3359 3409 
Q 3638 3234 3781 2919 
z
" transform="scale(0.015625)"/>
       <path id="DejaVuSans-Bold-65" d="M 4031 1759 
L 4031 1441 
L 1416 1441 
Q 1456 1047 1700 850 
Q 1944 653 2381 653 
Q 2734 653 3104 758 
Q 3475 863 3866 1075 
L 3866 213 
Q 3469 63 3072 -14 
Q 2675 -91 2278 -91 
Q 1328 -91 801 392 
Q 275 875 275 1747 
Q 275 2603 792 3093 
Q 1309 3584 2216 3584 
Q 3041 3584 3536 3087 
Q 4031 2591 4031 1759 
z
M 2881 2131 
Q 2881 2450 2695 2645 
Q 2509 2841 2209 2841 
Q 1884 2841 1681 2658 
Q 1478 2475 1428 2131 
L 2881 2131 
z
" transform="scale(0.015625)"/>
      </defs>
      <use xlink:href="#DejaVuSans-Bold-74"/>
      <use xlink:href="#DejaVuSans-Bold-69" transform="translate(47.802734 0)"/>
      <use xlink:href="#DejaVuSans-Bold-6d" transform="translate(82.080078 0)"/>
      <use xlink:href="#DejaVuSans-Bold-65" transform="translate(186.279297 0)"/>
     </g>
    </g>
   </g>
   <g id="matplotlib.axis_4">
    <g id="ytick_1">
     <g id="line2d_3">
      <path d="M 668.16 550.8 
L 1094.4 550.8 
" clip-path="url(#pfa8e342525)" style="fill: none; stroke: #cccccc; stroke-opacity: 0.5; stroke-width: 0.8; stroke-linecap: square"/>
     </g>
     <g id="line2d_4">
      <defs>
       <path id="m3f9901dbca" d="M 0 0 
L -3.5 0 
" style="stroke: #000000; stroke-width: 0.8"/>
      </defs>
      <g>
       <use xlink:href="#m3f9901dbca" x="668.16" y="550.8" style="stroke: #000000; stroke-width: 0.8"/>
      </g>
     </g>
     <g id="text_2">
      <!-- 0 -->
      <g transform="translate(654.7975 554.599219) scale(0.1 -0.1)">
       <defs>
        <path id="DejaVuSans-30" d="M 2034 4250 
Q 1547 4250 1301 3770 
Q 1056 3291 1056 2328 
Q 1056 1369 1301 889 
Q 1547 409 2034 409 
Q 2525 409 2770 889 
Q 3016 1369 3016 2328 
Q 3016 3291 2770 3770 
Q 2525 4250 2034 4250 
z
M 2034 4750 
Q 2819 4750 3233 4129 
Q 3647 3509 3647 2328 
Q 3647 1150 3233 529 
Q 2819 -91 2034 -91 
Q 1250 -91 836 529 
Q 422 1150 422 2328 
Q 422 3509 836 4129 
Q 1250 4750 2034 4750 
z
" transform="scale(0.015625)"/>
       </defs>
       <use xlink:href="#DejaVuSans-30"/>
      </g>
     </g>
    </g>
    <g id="ytick_2">
     <g id="line2d_5">
      <path d="M 668.16 453.6 
L 1094.4 453.6 
" clip-path="url(#pfa8e342525)" style="fill: none; stroke: #cccccc; stroke-opacity: 0.5; stroke-width: 0.8; stroke-linecap: square"/>
     </g>
     <g id="line2d_6">
      <g>
       <use xlink:href="#m3f9901dbca" x="668.16" y="453.6" style="stroke: #000000; stroke-width: 0.8"/>
      </g>
     </g>
     <g id="text_3">
      <!-- 1.8M -->
      <g transform="translate(636.62875 457.399219) scale(0.1 -0.1)">
       <defs>
        <path id="DejaVuSans-31" d="M 794 531 
L 1825 531 
L 1825 4091 
L 703 3866 
L 703 4441 
L 1819 4666 
L 2450 4666 
L 2450 531 
L 3481 531 
L 3481 0 
L 794 0 
L 794 531 
z
" transform="scale(0.015625)"/>
        <path id="DejaVuSans-2e" d="M 684 794 
L 1344 794 
L 1344 0 
L 684 0 
L 684 794 
z
" transform="scale(0.015625)"/>
        <path id="DejaVuSans-38" d="M 2034 2216 
Q 1584 2216 1326 1975 
Q 1069 1734 1069 1313 
Q 1069 891 1326 650 
Q 1584 409 2034 409 
Q 2484 409 2743 651 
Q 3003 894 3003 1313 
Q 3003 1734 2745 1975 
Q 2488 2216 2034 2216 
z
M 1403 2484 
Q 997 2584 770 2862 
Q 544 3141 544 3541 
Q 544 4100 942 4425 
Q 1341 4750 2034 4750 
Q 2731 4750 3128 4425 
Q 3525 4100 3525 3541 
Q 3525 3141 3298 2862 
Q 3072 2584 2669 2484 
Q 3125 2378 3379 2068 
Q 3634 1759 3634 1313 
Q 3634 634 3220 271 
Q 2806 -91 2034 -91 
Q 1263 -91 848 271 
Q 434 634 434 1313 
Q 434 1759 690 2068 
Q 947 2378 1403 2484 
z
M 1172 3481 
Q 1172 3119 1398 2916 
Q 1625 2713 2034 2713 
Q 2441 2713 2670 2916 
Q 2900 3119 2900 3481 
Q 2900 3844 2670 4047 
Q 2441 4250 2034 4250 
Q 1625 4250 1398 4047 
Q 1172 3844 1172 3481 
z
" transform="scale(0.015625)"/>
        <path id="DejaVuSans-4d" d="M 628 4666 
L 1569 4666 
L 2759 1491 
L 3956 4666 
L 4897 4666 
L 4897 0 
L 4281 0 
L 4281 4097 
L 3078 897 
L 2444 897 
L 1241 4097 
L 1241 0 
L 628 0 
L 628 4666 
z
" transform="scale(0.015625)"/>
       </defs>
       <use xlink:href="#DejaVuSans-31"/>
       <use xlink:href="#DejaVuSans-2e" transform="translate(63.623047 0)"/>
       <use xlink:href="#DejaVuSans-38" transform="translate(95.410156 0)"/>
       <use xlink:href="#DejaVuSans-4d" transform="translate(159.033203 0)"/>
      </g>
     </g>
    </g>
    <g id="ytick_3">
     <g id="line2d_7">
      <path d="M 668.16 356.4 
L 1094.4 356.4 
" clip-path="url(#pfa8e342525)" style="fill: none; stroke: #cccccc; stroke-opacity: 0.5; stroke-width: 0.8; stroke-linecap: square"/>
     </g>
     <g id="line2d_8">
      <g>
       <use xlink:href="#m3f9901dbca" x="668.16" y="356.4" style="stroke: #000000; stroke-width: 0.8"/>
      </g>
     </g>
     <g id="text_4">
      <!-- 3.6M -->
      <g transform="translate(636.62875 360.199219) scale(0.1 -0.1)">
       <defs>
        <path id="DejaVuSans-33" d="M 2597 2516 
Q 3050 2419 3304 2112 
Q 3559 1806 3559 1356 
Q 3559 666 3084 287 
Q 2609 -91 1734 -91 
Q 1441 -91 1130 -33 
Q 819 25 488 141 
L 488 750 
Q 750 597 1062 519 
Q 1375 441 1716 441 
Q 2309 441 2620 675 
Q 2931 909 2931 1356 
Q 2931 1769 2642 2001 
Q 2353 2234 1838 2234 
L 1294 2234 
L 1294 2753 
L 1863 2753 
Q 2328 2753 2575 2939 
Q 2822 3125 2822 3475 
Q 2822 3834 2567 4026 
Q 2313 4219 1838 4219 
Q 1578 4219 1281 4162 
Q 984 4106 628 3988 
L 628 4550 
Q 988 4650 1302 4700 
Q 1616 4750 1894 4750 
Q 2613 4750 3031 4423 
Q 3450 4097 3450 3541 
Q 3450 3153 3228 2886 
Q 3006 2619 2597 2516 
z
" transform="scale(0.015625)"/>
        <path id="DejaVuSans-36" d="M 2113 2584 
Q 1688 2584 1439 2293 
Q 1191 2003 1191 1497 
Q 1191 994 1439 701 
Q 1688 409 2113 409 
Q 2538 409 2786 701 
Q 3034 994 3034 1497 
Q 3034 2003 2786 2293 
Q 2538 2584 2113 2584 
z
M 3366 4563 
L 3366 3988 
Q 3128 4100 2886 4159 
Q 2644 4219 2406 4219 
Q 1781 4219 1451 3797 
Q 1122 3375 1075 2522 
Q 1259 2794 1537 2939 
Q 1816 3084 2150 3084 
Q 2853 3084 3261 2657 
Q 3669 2231 3669 1497 
Q 3669 778 3244 343 
Q 2819 -91 2113 -91 
Q 1303 -91 875 529 
Q 447 1150 447 2328 
Q 447 3434 972 4092 
Q 1497 4750 2381 4750 
Q 2619 4750 2861 4703 
Q 3103 4656 3366 4563 
z
" transform="scale(0.015625)"/>
       </defs>
       <use xlink:href="#DejaVuSans-33"/>
       <use xlink:href="#DejaVuSans-2e" transform="translate(63.623047 0)"/>
       <use xlink:href="#DejaVuSans-36" transform="translate(95.410156 0)"/>
       <use xlink:href="#DejaVuSans-4d" transform="translate(159.033203 0)"/>
      </g>
     </g>
    </g>
    <g id="ytick_4">
     <g id="line2d_9">
      <path d="M 668.16 259.2 
L 1094.4 259.2 
" clip-path="url(#pfa8e342525)" style="fill: none; stroke: #cccccc; stroke-opacity: 0.5; stroke-width: 0.8; stroke-linecap: square"/>
     </g>
     <g id="line2d_10">
      <g>
       <use xlink:href="#m3f9901dbca" x="668.16" y="259.2" style="stroke: #000000; stroke-width: 0.8"/>
      </g>
     </g>
     <g id="text_5">
      <!-- 5.4M -->
      <g transform="translate(636.62875 262.999219) scale(0.1 -0.1)">
       <defs>
        <path id="DejaVuSans-35" d="M 691 4666 
L 3169 4666 
L 3169 4134 
L 1269 4134 
L 1269 2991 
Q 1406 3038 1543 3061 
Q 1681 3084 1819 3084 
Q 2600 3084 3056 2656 
Q 3513 2228 3513 1497 
Q 3513 744 3044 326 
Q 2575 -91 1722 -91 
Q 1428 -91 1123 -41 
Q 819 9 494 109 
L 494 744 
Q 775 591 1075 516 
Q 1375 441 1709 441 
Q 2250 441 2565 725 
Q 2881 1009 2881 1497 
Q 2881 1984 2565 2268 
Q 2250 2553 1709 2553 
Q 1456 2553 1204 2497 
Q 953 2441 691 2322 
L 691 4666 
z
" transform="scale(0.015625)"/>
        <path id="DejaVuSans-34" d="M 2419 4116 
L 825 1625 
L 2419 1625 
L 2419 4116 
z
M 2253 4666 
L 3047 4666 
L 3047 1625 
L 3713 1625 
L 3713 1100 
L 3047 1100 
L 3047 0 
L 2419 0 
L 2419 1100 
L 313 1100 
L 313 1709 
L 2253 4666 
z
" transform="scale(0.015625)"/>
       </defs>
       <use xlink:href="#DejaVuSans-35"/>
       <use xlink:href="#DejaVuSans-2e" transform="translate(63.623047 0)"/>
       <use xlink:href="#DejaVuSans-34" transform="translate(95.410156 0)"/>
       <use xlink:href="#DejaVuSans-4d" transform="translate(159.033203 0)"/>
      </g>
     </g>
    </g>
    <g id="ytick_5">
     <g id="line2d_11">
      <path d="M 668.16 162 
L 1094.4 162 
" clip-path="url(#pfa8e342525)" style="fill: none; stroke: #cccccc; stroke-opacity: 0.5; stroke-width: 0.8; stroke-linecap: square"/>
     </g>
     <g id="line2d_12">
      <g>
       <use xlink:href="#m3f9901dbca" x="668.16" y="162" style="stroke: #000000; stroke-width: 0.8"/>
      </g>
     </g>
     <g id="text_6">
      <!-- 7.2M -->
      <g transform="translate(636.62875 165.799219) scale(0.1 -0.1)">
       <defs>
        <path id="DejaVuSans-37" d="M 525 4666 
L 3525 4666 
L 3525 4397 
L 1831 0 
L 1172 0 
L 2766 4134 
L 525 4134 
L 525 4666 
z
" transform="scale(0.015625)"/>
        <path id="DejaVuSans-32" d="M 1228 531 
L 3431 531 
L 3431 0 
L 469 0 
L 469 531 
Q 828 903 1448 1529 
Q 2069 2156 2228 2338 
Q 2531 2678 2651 2914 
Q 2772 3150 2772 3378 
Q 2772 3750 2511 3984 
Q 2250 4219 1831 4219 
Q 1534 4219 1204 4116 
Q 875 4013 500 3803 
L 500 4441 
Q 881 4594 1212 4672 
Q 1544 4750 1819 4750 
Q 2544 4750 2975 4387 
Q 3406 4025 3406 3419 
Q 3406 3131 3298 2873 
Q 3191 2616 2906 2266 
Q 2828 2175 2409 1742 
Q 1991 1309 1228 531 
z
" transform="scale(0.015625)"/>
       </defs>
       <use xlink:href="#DejaVuSans-37"/>
       <use xlink:href="#DejaVuSans-2e" transform="translate(63.623047 0)"/>
       <use xlink:href="#DejaVuSans-32" transform="translate(95.410156 0)"/>
       <use xlink:href="#DejaVuSans-4d" transform="translate(159.033203 0)"/>
      </g>
     </g>
    </g>
    <g id="ytick_6">
     <g id="line2d_13">
      <path d="M 668.16 64.8 
L 1094.4 64.8 
" clip-path="url(#pfa8e342525)" style="fill: none; stroke: #cccccc; stroke-opacity: 0.5; stroke-width: 0.8; stroke-linecap: square"/>
     </g>
     <g id="line2d_14">
      <g>
       <use xlink:href="#m3f9901dbca" x="668.16" y="64.8" style="stroke: #000000; stroke-width: 0.8"/>
      </g>
     </g>
     <g id="text_7">
      <!-- 9.0M -->
      <g transform="translate(636.62875 68.599219) scale(0.1 -0.1)">
       <defs>
        <path id="DejaVuSans-39" d="M 703 97 
L 703 672 
Q 941 559 1184 500 
Q 1428 441 1663 441 
Q 2288 441 2617 861 
Q 2947 1281 2994 2138 
Q 2813 1869 2534 1725 
Q 2256 1581 1919 1581 
Q 1219 1581 811 2004 
Q 403 2428 403 3163 
Q 403 3881 828 4315 
Q 1253 4750 1959 4750 
Q 2769 4750 3195 4129 
Q 3622 3509 3622 2328 
Q 3622 1225 3098 567 
Q 2575 -91 1691 -91 
Q 1453 -91 1209 -44 
Q 966 3 703 97 
z
M 1959 2075 
Q 2384 2075 2632 2365 
Q 2881 2656 2881 3163 
Q 2881 3666 2632 3958 
Q 2384 4250 1959 4250 
Q 1534 4250 1286 3958 
Q 1038 3666 1038 3163 
Q 1038 2656 1286 2365 
Q 1534 2075 1959 2075 
z
" transform="scale(0.015625)"/>
       </defs>
       <use xlink:href="#DejaVuSans-39"/>
       <use xlink:href="#DejaVuSans-2e" transform="translate(63.623047 0)"/>
       <use xlink:href="#DejaVuSans-30" transform="translate(95.410156 0)"/>
       <use xlink:href="#DejaVuSans-4d" transform="translate(159.033203 0)"/>
      </g>
     </g>
    </g>
    <g id="text_8">
     <!-- msgs/s -->
     <g transform="translate(624.039375 331.251562) rotate(-90) scale(0.12 -0.12)">
      <defs>
       <path id="DejaVuSans-Bold-73" d="M 3272 3391 
L 3272 2541 
Q 2913 2691 2578 2766 
Q 2244 2841 1947 2841 
Q 1628 2841 1473 2761 
Q 1319 2681 1319 2516 
Q 1319 2381 1436 2309 
Q 1553 2238 1856 2203 
L 2053 2175 
Q 2913 2066 3209 1816 
Q 3506 1566 3506 1031 
Q 3506 472 3093 190 
Q 2681 -91 1863 -91 
Q 1516 -91 1145 -36 
Q 775 19 384 128 
L 384 978 
Q 719 816 1070 734 
Q 1422 653 1784 653 
Q 2113 653 2278 743 
Q 2444 834 2444 1013 
Q 2444 1163 2330 1236 
Q 2216 1309 1875 1350 
L 1678 1375 
Q 931 1469 631 1722 
Q 331 1975 331 2491 
Q 331 3047 712 3315 
Q 1094 3584 1881 3584 
Q 2191 3584 2531 3537 
Q 2872 3491 3272 3391 
z
" transform="scale(0.015625)"/>
       <path id="DejaVuSans-Bold-67" d="M 2919 594 
Q 2688 288 2409 144 
Q 2131 0 1766 0 
Q 1125 0 706 504 
Q 288 1009 288 1791 
Q 288 2575 706 3076 
Q 1125 3578 1766 3578 
Q 2131 3578 2409 3434 
Q 2688 3291 2919 2981 
L 2919 3500 
L 4044 3500 
L 4044 353 
Q 4044 -491 3511 -936 
Q 2978 -1381 1966 -1381 
Q 1638 -1381 1331 -1331 
Q 1025 -1281 716 -1178 
L 716 -306 
Q 1009 -475 1290 -558 
Q 1572 -641 1856 -641 
Q 2406 -641 2662 -400 
Q 2919 -159 2919 353 
L 2919 594 
z
M 2181 2772 
Q 1834 2772 1640 2515 
Q 1447 2259 1447 1791 
Q 1447 1309 1634 1061 
Q 1822 813 2181 813 
Q 2531 813 2725 1069 
Q 2919 1325 2919 1791 
Q 2919 2259 2725 2515 
Q 2531 2772 2181 2772 
z
" transform="scale(0.015625)"/>
       <path id="DejaVuSans-Bold-2f" d="M 1644 4666 
L 2338 4666 
L 691 -594 
L 0 -594 
L 1644 4666 
z
" transform="scale(0.015625)"/>
      </defs>
      <use xlink:href="#DejaVuSans-Bold-6d"/>
      <use xlink:href="#DejaVuSans-Bold-73" transform="translate(104.199219 0)"/>
      <use xlink:href="#DejaVuSans-Bold-67" transform="translate(163.720703 0)"/>
      <use xlink:href="#DejaVuSans-Bold-73" transform="translate(235.302734 0)"/>
      <use xlink:href="#DejaVuSans-Bold-2f" transform="translate(294.824219 0)"/>
      <use xlink:href="#DejaVuSans-Bold-73" transform="translate(331.347656 0)"/>
     </g>
    </g>
   </g>
   <g id="line2d_15">
    <path d="M 687.534545 546.510925 
L 691.448595 547.254693 
L 695.362645 546.605821 
L 699.276694 546.551178 
L 703.190744 546.785082 
L 707.104793 546.483409 
L 711.018843 547.848378 
L 714.932893 547.141156 
L 718.846942 546.567011 
L 722.760992 547.489103 
L 726.675041 546.765892 
L 730.589091 546.704976 
L 734.50314 546.571302 
L 738.41719 546.515663 
L 742.33124 547.023764 
L 746.245289 546.738698 
L 750.159339 542.214851 
L 754.073388 533.629701 
L 757.987438 525.044552 
L 761.901488 533.629701 
L 765.815537 542.214851 
L 769.729587 546.272264 
L 773.643636 547.327899 
L 777.557686 546.095092 
L 781.471736 546.488321 
L 785.385785 546.9764 
L 789.299835 547.146254 
L 793.213884 546.438775 
L 797.127934 547.035454 
L 801.041983 546.491925 
L 804.956033 546.890635 
L 808.870083 547.191894 
L 812.784132 546.686433 
L 816.698182 546.59966 
L 820.612231 546.328422 
L 824.526281 546.702985 
L 828.440331 546.883964 
L 832.35438 547.015275 
L 836.26843 547.298967 
L 840.182479 546.339331 
L 844.096529 546.837409 
L 848.010579 546.548142 
L 851.924628 547.065341 
L 855.838678 546.39381 
L 859.752727 546.853308 
L 863.666777 547.203326 
L 867.580826 546.235675 
L 871.494876 546.935581 
L 875.408926 546.678961 
L 879.322975 546.634639 
L 883.237025 547.847137 
L 887.151074 546.868707 
L 891.065124 546.641562 
L 894.979174 546.609705 
L 898.893223 547.182803 
L 902.807273 546.20871 
L 906.721322 546.711787 
L 910.635372 546.753562 
L 914.549421 546.556931 
L 918.463471 546.116789 
L 922.377521 546.678704 
L 926.29157 547.389622 
L 930.20562 546.019357 
L 934.119669 546.482613 
L 938.033719 546.74744 
L 941.947769 546.873648 
L 945.861818 547.141221 
L 949.775868 547.334585 
L 953.689917 546.829603 
L 957.603967 547.021389 
L 961.518017 547.17108 
L 965.432066 547.36228 
L 969.346116 546.910571 
L 973.260165 547.337451 
L 977.174215 547.306788 
L 981.088264 547.230301 
L 985.002314 546.736202 
L 988.916364 547.428125 
L 992.830413 547.125027 
L 996.744463 546.261392 
L 1000.658512 547.061041 
L 1004.572562 546.665293 
L 1008.486612 547.545907 
L 1012.400661 547.022157 
L 1016.314711 546.694595 
L 1020.22876 546.758989 
L 1024.14281 547.402014 
L 1028.05686 546.686245 
L 1031.970909 547.572168 
L 1035.884959 547.44115 
L 1039.799008 546.910779 
L 1043.713058 548.110717 
L 1047.627107 547.076352 
L 1051.541157 547.261056 
L 1055.455207 546.828424 
L 1059.369256 546.878543 
L 1063.283306 547.19567 
L 1067.197355 547.031668 
L 1071.111405 547.120137 
L 1075.025455 546.812442 
" clip-path="url(#pfa8e342525)" style="fill: none; stroke: #4a2e83; stroke-width: 2; stroke-linecap: square"/>
   </g>
   <g id="line2d_16">
    <path d="M 668.16 548.110717 
L 1094.4 548.110717 
" clip-path="url(#pfa8e342525)" style="fill: none; stroke-dasharray: 5.55,2.4; stroke-dashoffset: 0; stroke: #777777; stroke-opacity: 0.7; stroke-width: 1.5"/>
   </g>
   <g id="line2d_17">
    <path d="M 668.16 525.044552 
L 1094.4 525.044552 
" clip-path="url(#pfa8e342525)" style="fill: none; stroke-dasharray: 5.55,2.4; stroke-dashoffset: 0; stroke: #777777; stroke-opacity: 0.7; stroke-width: 1.5"/>
   </g>
   <g id="line2d_18">
    <path d="M 668.16 546.308473 
L 1094.4 546.308473 
" clip-path="url(#pfa8e342525)" style="fill: none; stroke: #999999; stroke-opacity: 0.7; stroke-width: 1.5; stroke-linecap: square"/>
   </g>
   <g id="patch_8">
    <path d="M 668.16 550.8 
L 668.16 64.8 
" style="fill: none; stroke: #000000; stroke-width: 0.8; stroke-linejoin: miter; stroke-linecap: square"/>
   </g>
   <g id="patch_9">
    <path d="M 1094.4 550.8 
L 1094.4 64.8 
" style="fill: none; stroke: #000000; stroke-width: 0.8; stroke-linejoin: miter; stroke-linecap: square"/>
   </g>
   <g id="patch_10">
    <path d="M 668.16 550.8 
L 1094.4 550.8 
" style="fill: none; stroke: #000000; stroke-width: 0.8; stroke-linejoin: miter; stroke-linecap: square"/>
   </g>
   <g id="patch_11">
    <path d="M 668.16 64.8 
L 1094.4 64.8 
" style="fill: none; stroke: #000000; stroke-width: 0.8; stroke-linejoin: miter; stroke-linecap: square"/>
   </g>
  </g>
  <g id="text_9">
   <!-- Effect of aggregating decorrelated workloads on net system load (n=1) -->
   <g transform="translate(172.253125 21.676875) scale(0.2 -0.2)">
    <defs>
     <path id="DejaVuSans-Bold-45" d="M 588 4666 
L 3834 4666 
L 3834 3756 
L 1791 3756 
L 1791 2888 
L 3713 2888 
L 3713 1978 
L 1791 1978 
L 1791 909 
L 3903 909 
L 3903 0 
L 588 0 
L 588 4666 
z
" transform="scale(0.015625)"/>
     <path id="DejaVuSans-Bold-66" d="M 2841 4863 
L 2841 4128 
L 2222 4128 
Q 1984 4128 1890 4042 
Q 1797 3956 1797 3744 
L 1797 3500 
L 2753 3500 
L 2753 2700 
L 1797 2700 
L 1797 0 
L 678 0 
L 678 2700 
L 122 2700 
L 122 3500 
L 678 3500 
L 678 3744 
Q 678 4316 997 4589 
Q 1316 4863 1984 4863 
L 2841 4863 
z
" transform="scale(0.015625)"/>
     <path id="DejaVuSans-Bold-63" d="M 3366 3391 
L 3366 2478 
Q 3138 2634 2908 2709 
Q 2678 2784 2431 2784 
Q 1963 2784 1702 2511 
Q 1441 2238 1441 1747 
Q 1441 1256 1702 982 
Q 1963 709 2431 709 
Q 2694 709 2930 787 
Q 3166 866 3366 1019 
L 3366 103 
Q 3103 6 2833 -42 
Q 2563 -91 2291 -91 
Q 1344 -91 809 395 
Q 275 881 275 1747 
Q 275 2613 809 3098 
Q 1344 3584 2291 3584 
Q 2566 3584 2833 3536 
Q 3100 3488 3366 3391 
z
" transform="scale(0.015625)"/>
     <path id="DejaVuSans-Bold-20" transform="scale(0.015625)"/>
     <path id="DejaVuSans-Bold-6f" d="M 2203 2784 
Q 1831 2784 1636 2517 
Q 1441 2250 1441 1747 
Q 1441 1244 1636 976 
Q 1831 709 2203 709 
Q 2569 709 2762 976 
Q 2956 1244 2956 1747 
Q 2956 2250 2762 2517 
Q 2569 2784 2203 2784 
z
M 2203 3584 
Q 3106 3584 3614 3096 
Q 4122 2609 4122 1747 
Q 4122 884 3614 396 
Q 3106 -91 2203 -91 
Q 1297 -91 786 396 
Q 275 884 275 1747 
Q 275 2609 786 3096 
Q 1297 3584 2203 3584 
z
" transform="scale(0.015625)"/>
     <path id="DejaVuSans-Bold-61" d="M 2106 1575 
Q 1756 1575 1579 1456 
Q 1403 1338 1403 1106 
Q 1403 894 1545 773 
Q 1688 653 1941 653 
Q 2256 653 2472 879 
Q 2688 1106 2688 1447 
L 2688 1575 
L 2106 1575 
z
M 3816 1997 
L 3816 0 
L 2688 0 
L 2688 519 
Q 2463 200 2181 54 
Q 1900 -91 1497 -91 
Q 953 -91 614 226 
Q 275 544 275 1050 
Q 275 1666 698 1953 
Q 1122 2241 2028 2241 
L 2688 2241 
L 2688 2328 
Q 2688 2594 2478 2717 
Q 2269 2841 1825 2841 
Q 1466 2841 1156 2769 
Q 847 2697 581 2553 
L 581 3406 
Q 941 3494 1303 3539 
Q 1666 3584 2028 3584 
Q 2975 3584 3395 3211 
Q 3816 2838 3816 1997 
z
" transform="scale(0.015625)"/>
     <path id="DejaVuSans-Bold-72" d="M 3138 2547 
Q 2991 2616 2845 2648 
Q 2700 2681 2553 2681 
Q 2122 2681 1889 2404 
Q 1656 2128 1656 1613 
L 1656 0 
L 538 0 
L 538 3500 
L 1656 3500 
L 1656 2925 
Q 1872 3269 2151 3426 
Q 2431 3584 2822 3584 
Q 2878 3584 2943 3579 
Q 3009 3575 3134 3559 
L 3138 2547 
z
" transform="scale(0.015625)"/>
     <path id="DejaVuSans-Bold-6e" d="M 4056 2131 
L 4056 0 
L 2931 0 
L 2931 347 
L 2931 1631 
Q 2931 2084 2911 2256 
Q 2891 2428 2841 2509 
Q 2775 2619 2662 2680 
Q 2550 2741 2406 2741 
Q 2056 2741 1856 2470 
Q 1656 2200 1656 1722 
L 1656 0 
L 538 0 
L 538 3500 
L 1656 3500 
L 1656 2988 
Q 1909 3294 2193 3439 
Q 2478 3584 2822 3584 
Q 3428 3584 3742 3212 
Q 4056 2841 4056 2131 
z
" transform="scale(0.015625)"/>
     <path id="DejaVuSans-Bold-64" d="M 2919 2988 
L 2919 4863 
L 4044 4863 
L 4044 0 
L 2919 0 
L 2919 506 
Q 2688 197 2409 53 
Q 2131 -91 1766 -91 
Q 1119 -91 703 423 
Q 288 938 288 1747 
Q 288 2556 703 3070 
Q 1119 3584 1766 3584 
Q 2128 3584 2408 3439 
Q 2688 3294 2919 2988 
z
M 2181 722 
Q 2541 722 2730 984 
Q 2919 1247 2919 1747 
Q 2919 2247 2730 2509 
Q 2541 2772 2181 2772 
Q 1825 2772 1636 2509 
Q 1447 2247 1447 1747 
Q 1447 1247 1636 984 
Q 1825 722 2181 722 
z
" transform="scale(0.015625)"/>
     <path id="DejaVuSans-Bold-6c" d="M 538 4863 
L 1656 4863 
L 1656 0 
L 538 0 
L 538 4863 
z
" transform="scale(0.015625)"/>
     <path id="DejaVuSans-Bold-77" d="M 225 3500 
L 1313 3500 
L 1900 1088 
L 2491 3500 
L 3425 3500 
L 4013 1113 
L 4603 3500 
L 5691 3500 
L 4769 0 
L 3547 0 
L 2956 2406 
L 2369 0 
L 1147 0 
L 225 3500 
z
" transform="scale(0.015625)"/>
     <path id="DejaVuSans-Bold-6b" d="M 538 4863 
L 1656 4863 
L 1656 2216 
L 2944 3500 
L 4244 3500 
L 2534 1894 
L 4378 0 
L 3022 0 
L 1656 1459 
L 1656 0 
L 538 0 
L 538 4863 
z
" transform="scale(0.015625)"/>
     <path id="DejaVuSans-Bold-79" d="M 78 3500 
L 1197 3500 
L 2138 1125 
L 2938 3500 
L 4056 3500 
L 2584 -331 
Q 2363 -916 2067 -1148 
Q 1772 -1381 1288 -1381 
L 641 -1381 
L 641 -647 
L 991 -647 
Q 1275 -647 1404 -556 
Q 1534 -466 1606 -231 
L 1638 -134 
L 78 3500 
z
" transform="scale(0.015625)"/>
     <path id="DejaVuSans-Bold-28" d="M 2413 -844 
L 1484 -844 
Q 1006 -72 778 623 
Q 550 1319 550 2003 
Q 550 2688 779 3389 
Q 1009 4091 1484 4856 
L 2413 4856 
Q 2013 4116 1813 3408 
Q 1613 2700 1613 2009 
Q 1613 1319 1811 609 
Q 2009 -100 2413 -844 
z
" transform="scale(0.015625)"/>
     <path id="DejaVuSans-Bold-3d" d="M 678 3084 
L 4684 3084 
L 4684 2350 
L 678 2350 
L 678 3084 
z
M 678 1663 
L 4684 1663 
L 4684 922 
L 678 922 
L 678 1663 
z
" transform="scale(0.015625)"/>
     <path id="DejaVuSans-Bold-31" d="M 750 831 
L 1813 831 
L 1813 3847 
L 722 3622 
L 722 4441 
L 1806 4666 
L 2950 4666 
L 2950 831 
L 4013 831 
L 4013 0 
L 750 0 
L 750 831 
z
" transform="scale(0.015625)"/>
     <path id="DejaVuSans-Bold-29" d="M 513 -844 
Q 913 -100 1113 609 
Q 1313 1319 1313 2009 
Q 1313 2700 1113 3408 
Q 913 4116 513 4856 
L 1441 4856 
Q 1916 4091 2145 3389 
Q 2375 2688 2375 2003 
Q 2375 1319 2147 623 
Q 1919 -72 1441 -844 
L 513 -844 
z
" transform="scale(0.015625)"/>
    </defs>
    <use xlink:href="#DejaVuSans-Bold-45"/>
    <use xlink:href="#DejaVuSans-Bold-66" transform="translate(68.310547 0)"/>
    <use xlink:href="#DejaVuSans-Bold-66" transform="translate(111.816406 0)"/>
    <use xlink:href="#DejaVuSans-Bold-65" transform="translate(155.322266 0)"/>
    <use xlink:href="#DejaVuSans-Bold-63" transform="translate(223.144531 0)"/>
    <use xlink:href="#DejaVuSans-Bold-74" transform="translate(282.421875 0)"/>
    <use xlink:href="#DejaVuSans-Bold-20" transform="translate(330.224609 0)"/>
    <use xlink:href="#DejaVuSans-Bold-6f" transform="translate(365.039062 0)"/>
    <use xlink:href="#DejaVuSans-Bold-66" transform="translate(433.740234 0)"/>
    <use xlink:href="#DejaVuSans-Bold-20" transform="translate(477.246094 0)"/>
    <use xlink:href="#DejaVuSans-Bold-61" transform="translate(512.060547 0)"/>
    <use xlink:href="#DejaVuSans-Bold-67" transform="translate(579.541016 0)"/>
    <use xlink:href="#DejaVuSans-Bold-67" transform="translate(651.123047 0)"/>
    <use xlink:href="#DejaVuSans-Bold-72" transform="translate(722.705078 0)"/>
    <use xlink:href="#DejaVuSans-Bold-65" transform="translate(772.021484 0)"/>
    <use xlink:href="#DejaVuSans-Bold-67" transform="translate(839.84375 0)"/>
    <use xlink:href="#DejaVuSans-Bold-61" transform="translate(911.425781 0)"/>
    <use xlink:href="#DejaVuSans-Bold-74" transform="translate(978.90625 0)"/>
    <use xlink:href="#DejaVuSans-Bold-69" transform="translate(1026.708984 0)"/>
    <use xlink:href="#DejaVuSans-Bold-6e" transform="translate(1060.986328 0)"/>
    <use xlink:href="#DejaVuSans-Bold-67" transform="translate(1132.177734 0)"/>
    <use xlink:href="#DejaVuSans-Bold-20" transform="translate(1203.759766 0)"/>
    <use xlink:href="#DejaVuSans-Bold-64" transform="translate(1238.574219 0)"/>
    <use xlink:href="#DejaVuSans-Bold-65" transform="translate(1310.15625 0)"/>
    <use xlink:href="#DejaVuSans-Bold-63" transform="translate(1377.978516 0)"/>
    <use xlink:href="#DejaVuSans-Bold-6f" transform="translate(1437.255859 0)"/>
    <use xlink:href="#DejaVuSans-Bold-72" transform="translate(1505.957031 0)"/>
    <use xlink:href="#DejaVuSans-Bold-72" transform="translate(1555.273438 0)"/>
    <use xlink:href="#DejaVuSans-Bold-65" transform="translate(1604.589844 0)"/>
    <use xlink:href="#DejaVuSans-Bold-6c" transform="translate(1672.412109 0)"/>
    <use xlink:href="#DejaVuSans-Bold-61" transform="translate(1706.689453 0)"/>
    <use xlink:href="#DejaVuSans-Bold-74" transform="translate(1774.169922 0)"/>
    <use xlink:href="#DejaVuSans-Bold-65" transform="translate(1821.972656 0)"/>
    <use xlink:href="#DejaVuSans-Bold-64" transform="translate(1889.794922 0)"/>
    <use xlink:href="#DejaVuSans-Bold-20" transform="translate(1961.376953 0)"/>
    <use xlink:href="#DejaVuSans-Bold-77" transform="translate(1996.191406 0)"/>
    <use xlink:href="#DejaVuSans-Bold-6f" transform="translate(2088.574219 0)"/>
    <use xlink:href="#DejaVuSans-Bold-72" transform="translate(2157.275391 0)"/>
    <use xlink:href="#DejaVuSans-Bold-6b" transform="translate(2206.591797 0)"/>
    <use xlink:href="#DejaVuSans-Bold-6c" transform="translate(2273.095703 0)"/>
    <use xlink:href="#DejaVuSans-Bold-6f" transform="translate(2307.373047 0)"/>
    <use xlink:href="#DejaVuSans-Bold-61" transform="translate(2376.074219 0)"/>
    <use xlink:href="#DejaVuSans-Bold-64" transform="translate(2443.554688 0)"/>
    <use xlink:href="#DejaVuSans-Bold-73" transform="translate(2515.136719 0)"/>
    <use xlink:href="#DejaVuSans-Bold-20" transform="translate(2574.658203 0)"/>
    <use xlink:href="#DejaVuSans-Bold-6f" transform="translate(2609.472656 0)"/>
    <use xlink:href="#DejaVuSans-Bold-6e" transform="translate(2678.173828 0)"/>
    <use xlink:href="#DejaVuSans-Bold-20" transform="translate(2749.365234 0)"/>
    <use xlink:href="#DejaVuSans-Bold-6e" transform="translate(2784.179688 0)"/>
    <use xlink:href="#DejaVuSans-Bold-65" transform="translate(2855.371094 0)"/>
    <use xlink:href="#DejaVuSans-Bold-74" transform="translate(2923.193359 0)"/>
    <use xlink:href="#DejaVuSans-Bold-20" transform="translate(2970.996094 0)"/>
    <use xlink:href="#DejaVuSans-Bold-73" transform="translate(3005.810547 0)"/>
    <use xlink:href="#DejaVuSans-Bold-79" transform="translate(3065.332031 0)"/>
    <use xlink:href="#DejaVuSans-Bold-73" transform="translate(3130.517578 0)"/>
    <use xlink:href="#DejaVuSans-Bold-74" transform="translate(3190.039062 0)"/>
    <use xlink:href="#DejaVuSans-Bold-65" transform="translate(3237.841797 0)"/>
    <use xlink:href="#DejaVuSans-Bold-6d" transform="translate(3305.664062 0)"/>
    <use xlink:href="#DejaVuSans-Bold-20" transform="translate(3409.863281 0)"/>
    <use xlink:href="#DejaVuSans-Bold-6c" transform="translate(3444.677734 0)"/>
    <use xlink:href="#DejaVuSans-Bold-6f" transform="translate(3478.955078 0)"/>
    <use xlink:href="#DejaVuSans-Bold-61" transform="translate(3547.65625 0)"/>
    <use xlink:href="#DejaVuSans-Bold-64" transform="translate(3615.136719 0)"/>
    <use xlink:href="#DejaVuSans-Bold-20" transform="translate(3686.71875 0)"/>
    <use xlink:href="#DejaVuSans-Bold-28" transform="translate(3721.533203 0)"/>
    <use xlink:href="#DejaVuSans-Bold-6e" transform="translate(3767.236328 0)"/>
    <use xlink:href="#DejaVuSans-Bold-3d" transform="translate(3838.427734 0)"/>
    <use xlink:href="#DejaVuSans-Bold-31" transform="translate(3922.216797 0)"/>
    <use xlink:href="#DejaVuSans-Bold-29" transform="translate(3991.796875 0)"/>
   </g>
  </g>
  <g id="text_10">
   <!-- Individual workloads -->
   <g transform="translate(205.992812 51.84) scale(0.14 -0.14)">
    <defs>
     <path id="DejaVuSans-Bold-49" d="M 588 4666 
L 1791 4666 
L 1791 0 
L 588 0 
L 588 4666 
z
" transform="scale(0.015625)"/>
     <path id="DejaVuSans-Bold-76" d="M 97 3500 
L 1216 3500 
L 2088 1081 
L 2956 3500 
L 4078 3500 
L 2700 0 
L 1472 0 
L 97 3500 
z
" transform="scale(0.015625)"/>
     <path id="DejaVuSans-Bold-75" d="M 500 1363 
L 500 3500 
L 1625 3500 
L 1625 3150 
Q 1625 2866 1622 2436 
Q 1619 2006 1619 1863 
Q 1619 1441 1641 1255 
Q 1663 1069 1716 984 
Q 1784 875 1895 815 
Q 2006 756 2150 756 
Q 2500 756 2700 1025 
Q 2900 1294 2900 1772 
L 2900 3500 
L 4019 3500 
L 4019 0 
L 2900 0 
L 2900 506 
Q 2647 200 2364 54 
Q 2081 -91 1741 -91 
Q 1134 -91 817 281 
Q 500 653 500 1363 
z
" transform="scale(0.015625)"/>
    </defs>
    <use xlink:href="#DejaVuSans-Bold-49"/>
    <use xlink:href="#DejaVuSans-Bold-6e" transform="translate(37.207031 0)"/>
    <use xlink:href="#DejaVuSans-Bold-64" transform="translate(108.398438 0)"/>
    <use xlink:href="#DejaVuSans-Bold-69" transform="translate(179.980469 0)"/>
    <use xlink:href="#DejaVuSans-Bold-76" transform="translate(214.257812 0)"/>
    <use xlink:href="#DejaVuSans-Bold-69" transform="translate(279.443359 0)"/>
    <use xlink:href="#DejaVuSans-Bold-64" transform="translate(313.720703 0)"/>
    <use xlink:href="#DejaVuSans-Bold-75" transform="translate(385.302734 0)"/>
    <use xlink:href="#DejaVuSans-Bold-61" transform="translate(456.494141 0)"/>
    <use xlink:href="#DejaVuSans-Bold-6c" transform="translate(523.974609 0)"/>
    <use xlink:href="#DejaVuSans-Bold-20" transform="translate(558.251953 0)"/>
    <use xlink:href="#DejaVuSans-Bold-77" transform="translate(593.066406 0)"/>
    <use xlink:href="#DejaVuSans-Bold-6f" transform="translate(685.449219 0)"/>
    <use xlink:href="#DejaVuSans-Bold-72" transform="translate(754.150391 0)"/>
    <use xlink:href="#DejaVuSans-Bold-6b" transform="translate(803.466797 0)"/>
    <use xlink:href="#DejaVuSans-Bold-6c" transform="translate(869.970703 0)"/>
    <use xlink:href="#DejaVuSans-Bold-6f" transform="translate(904.248047 0)"/>
    <use xlink:href="#DejaVuSans-Bold-61" transform="translate(972.949219 0)"/>
    <use xlink:href="#DejaVuSans-Bold-64" transform="translate(1040.429688 0)"/>
    <use xlink:href="#DejaVuSans-Bold-73" transform="translate(1112.011719 0)"/>
   </g>
  </g>
  <g id="text_11">
   <!-- Aggregate -->
   <g transform="translate(834.05375 51.84) scale(0.14 -0.14)">
    <defs>
     <path id="DejaVuSans-Bold-41" d="M 3419 850 
L 1538 850 
L 1241 0 
L 31 0 
L 1759 4666 
L 3194 4666 
L 4922 0 
L 3713 0 
L 3419 850 
z
M 1838 1716 
L 3116 1716 
L 2478 3572 
L 1838 1716 
z
" transform="scale(0.015625)"/>
    </defs>
    <use xlink:href="#DejaVuSans-Bold-41"/>
    <use xlink:href="#DejaVuSans-Bold-67" transform="translate(77.392578 0)"/>
    <use xlink:href="#DejaVuSans-Bold-67" transform="translate(148.974609 0)"/>
    <use xlink:href="#DejaVuSans-Bold-72" transform="translate(220.556641 0)"/>
    <use xlink:href="#DejaVuSans-Bold-65" transform="translate(269.873047 0)"/>
    <use xlink:href="#DejaVuSans-Bold-67" transform="translate(337.695312 0)"/>
    <use xlink:href="#DejaVuSans-Bold-61" transform="translate(409.277344 0)"/>
    <use xlink:href="#DejaVuSans-Bold-74" transform="translate(476.757812 0)"/>
    <use xlink:href="#DejaVuSans-Bold-65" transform="translate(524.560547 0)"/>
   </g>
  </g>
 </g>
 <defs>
  <clipPath id="p9b3967031c">
   <rect x="57.6" y="64.8" width="460.8" height="486"/>
  </clipPath>
  <clipPath id="pfa8e342525">
   <rect x="668.16" y="64.8" width="426.24" height="486"/>
  </clipPath>
 </defs>
</svg>
