<?xml version="1.0" encoding="utf-8" standalone="no"?>
<!DOCTYPE svg PUBLIC "-//W3C//DTD SVG 1.1//EN"
  "http://www.w3.org/Graphics/SVG/1.1/DTD/svg11.dtd">
<svg xmlns:xlink="http://www.w3.org/1999/xlink" width="1152pt" height="648pt" viewBox="0 0 1152 648" xmlns="http://www.w3.org/2000/svg" version="1.1">
 <metadata>
  <rdf:RDF xmlns:dc="http://purl.org/dc/elements/1.1/" xmlns:cc="http://creativecommons.org/ns#" xmlns:rdf="http://www.w3.org/1999/02/22-rdf-syntax-ns#">
   <cc:Work>
    <dc:type rdf:resource="http://purl.org/dc/dcmitype/StillImage"/>
    <dc:date>2025-03-12T19:42:02.678230</dc:date>
    <dc:format>image/svg+xml</dc:format>
    <dc:creator>
     <cc:Agent>
      <dc:title>Matplotlib v3.10.1, https://matplotlib.org/</dc:title>
     </cc:Agent>
    </dc:creator>
   </cc:Work>
  </rdf:RDF>
 </metadata>
 <defs>
  <style type="text/css">*{stroke-linejoin: round; stroke-linecap: butt}</style>
 </defs>
 <g id="figure_1">
  <g id="patch_1">
   <path d="M 0 648 
L 1152 648 
L 1152 0 
L 0 0 
z
" style="fill: #ffffff"/>
  </g>
  <g id="axes_1">
   <g id="patch_2">
    <path d="M 57.6 177.823256 
L 164.762791 177.823256 
L 164.762791 64.8 
L 57.6 64.8 
z
" style="fill: #ffffff"/>
   </g>
   <g id="matplotlib.axis_1"/>
   <g id="matplotlib.axis_2"/>
   <g id="line2d_1">
    <path d="M 62.471036 168.846122 
L 63.455084 170.402846 
L 64.439131 169.044741 
L 65.423179 168.930373 
L 66.407227 169.419939 
L 67.391274 168.788531 
L 68.375322 171.645441 
L 69.35937 170.16521 
L 70.343417 168.963511 
L 71.327465 170.893472 
L 72.311513 169.379774 
L 73.29556 169.252276 
L 74.279608 168.972493 
L 75.263656 168.85604 
L 76.247703 169.919507 
L 77.231751 169.322857 
L 78.215799 159.854339 
L 79.199846 141.885421 
L 80.183894 123.916504 
L 81.167942 141.885421 
L 82.151989 159.854339 
L 83.136037 168.346599 
L 84.120085 170.556068 
L 85.104132 167.975773 
L 86.08818 168.798812 
L 87.072228 169.820372 
L 88.056275 170.17588 
L 89.040323 168.695111 
L 90.024371 169.943973 
L 91.008418 168.806354 
L 91.992466 169.640863 
L 92.976514 170.271406 
L 93.960561 169.213464 
L 94.944609 169.031845 
L 95.928657 168.464139 
L 96.912704 169.248108 
L 97.896752 169.6269 
L 98.8808 169.901738 
L 99.864847 170.495513 
L 100.848895 168.486971 
L 101.832943 169.529462 
L 102.81699 168.924018 
L 103.801038 170.006529 
L 104.785086 168.600999 
L 105.769133 169.562738 
L 106.753181 170.295334 
L 107.737229 168.270018 
L 108.721276 169.734937 
L 109.705324 169.197826 
L 110.689372 169.105059 
L 111.673419 171.642844 
L 112.657467 169.594968 
L 113.641515 169.119547 
L 114.625562 169.052872 
L 115.60961 170.252379 
L 116.593658 168.213579 
L 117.577705 169.266531 
L 118.561753 169.353966 
L 119.5458 168.942414 
L 120.529848 168.021187 
L 121.513896 169.197287 
L 122.497943 170.685256 
L 123.481991 167.817258 
L 124.466039 168.786865 
L 125.450086 169.341154 
L 126.434134 169.605309 
L 127.418182 170.165346 
L 128.402229 170.570061 
L 129.386277 169.513123 
L 130.370325 169.914534 
L 131.354372 170.227842 
L 132.33842 170.628028 
L 133.322468 169.68259 
L 134.306515 170.576061 
L 135.290563 170.511882 
L 136.274611 170.351793 
L 137.258658 169.317632 
L 138.242706 170.765842 
L 139.226754 170.131452 
L 140.210801 168.323844 
L 141.194849 169.997528 
L 142.178897 169.169218 
L 143.162944 171.012363 
L 144.146992 169.916142 
L 145.13104 169.230547 
L 146.115087 169.365326 
L 147.099135 170.711193 
L 148.083183 169.213072 
L 149.06723 171.067328 
L 150.051278 170.793104 
L 151.035326 169.683025 
L 152.019373 172.194525 
L 153.003421 170.029573 
L 153.987469 170.416165 
L 154.971516 169.510655 
L 155.955564 169.615556 
L 156.939612 170.279309 
L 157.923659 169.93605 
L 158.907707 170.121216 
L 159.891755 169.477204 
" clip-path="url(#p89eb1b0437)" style="fill: none; stroke: #4a2e83; stroke-width: 0.8; stroke-linecap: square"/>
   </g>
   <g id="line2d_2">
    <path d="M 57.6 168.422385 
L 164.762791 168.422385 
" clip-path="url(#p89eb1b0437)" style="fill: none; stroke: #999999; stroke-opacity: 0.7; stroke-width: 0.8; stroke-linecap: square"/>
   </g>
   <g id="patch_3">
    <path d="M 57.6 177.823256 
L 57.6 64.8 
" style="fill: none; stroke: #cccccc; stroke-width: 0.5; stroke-linejoin: miter; stroke-linecap: square"/>
   </g>
   <g id="patch_4">
    <path d="M 164.762791 177.823256 
L 164.762791 64.8 
" style="fill: none; stroke: #cccccc; stroke-width: 0.5; stroke-linejoin: miter; stroke-linecap: square"/>
   </g>
   <g id="patch_5">
    <path d="M 57.6 177.823256 
L 164.762791 177.823256 
" style="fill: none; stroke: #cccccc; stroke-width: 0.5; stroke-linejoin: miter; stroke-linecap: square"/>
   </g>
   <g id="patch_6">
    <path d="M 57.6 64.8 
L 164.762791 64.8 
" style="fill: none; stroke: #cccccc; stroke-width: 0.5; stroke-linejoin: miter; stroke-linecap: square"/>
   </g>
  </g>
  <g id="axes_2">
   <g id="patch_7">
    <path d="M 175.47907 177.823256 
L 282.64186 177.823256 
L 282.64186 64.8 
L 175.47907 64.8 
z
" style="fill: #ffffff"/>
   </g>
   <g id="matplotlib.axis_3"/>
   <g id="matplotlib.axis_4"/>
   <g id="line2d_3">
    <path d="M 180.350106 170.327406 
L 181.334153 170.686641 
L 182.318201 165.461348 
L 183.302249 153.099441 
L 184.286296 140.737533 
L 185.270344 153.099441 
L 186.254392 165.461348 
L 187.238439 170.960464 
L 188.222487 171.561461 
L 189.206535 172.09451 
L 190.190582 170.797381 
L 191.17463 170.885478 
L 192.158678 171.5695 
L 193.142725 171.481984 
L 194.126773 172.042622 
L 195.110821 166.417418 
L 196.094868 155.01158 
L 197.078916 143.605743 
L 198.062964 155.01158 
L 199.047011 166.417418 
L 200.031059 171.479601 
L 201.015107 170.970675 
L 201.999154 169.931455 
L 202.983202 170.769536 
L 203.96725 170.559215 
L 204.951297 172.270526 
L 205.935345 171.294983 
L 206.919393 171.171444 
L 207.90344 170.560629 
L 208.887488 171.181553 
L 209.871536 171.173795 
L 210.855583 171.925568 
L 211.839631 170.52264 
L 212.823679 171.203941 
L 213.807726 171.119299 
L 214.791774 171.82765 
L 215.775822 171.116131 
L 216.759869 171.172523 
L 217.743917 171.686317 
L 218.727965 138.202671 
L 219.712012 171.233135 
L 220.69606 165.959261 
L 221.680108 154.095266 
L 222.664155 142.231271 
L 223.648203 154.095266 
L 224.632251 165.959261 
L 225.616298 171.417049 
L 226.600346 171.949354 
L 227.584394 170.819338 
L 228.568441 171.349856 
L 229.552489 171.049036 
L 230.536537 171.878103 
L 231.520584 171.262225 
L 232.504632 171.126819 
L 233.48868 171.742368 
L 234.472727 171.594799 
L 235.456775 170.601487 
L 236.440823 171.48032 
L 237.42487 171.681041 
L 238.408918 170.88472 
L 239.392966 171.990019 
L 240.377013 170.98085 
L 241.361061 170.312867 
L 242.345109 172.031888 
L 243.329156 172.024214 
L 244.313204 171.850041 
L 245.297252 171.612837 
L 246.281299 171.340695 
L 247.265347 165.511293 
L 248.249395 153.19933 
L 249.233442 140.887366 
L 250.21749 153.19933 
L 251.201538 165.511293 
L 252.185585 137.614768 
L 253.169633 171.225721 
L 254.153681 172.053223 
L 255.137728 169.063187 
L 256.121776 170.906731 
L 257.105824 171.339139 
L 258.089871 171.009705 
L 259.073919 170.471681 
L 260.057967 170.890154 
L 261.042014 171.70638 
L 262.026062 172.268466 
L 263.01011 171.960179 
L 263.994157 171.786944 
L 264.978205 171.854369 
L 265.962253 171.326708 
L 266.9463 172.048696 
L 267.930348 172.229728 
L 268.914396 172.075471 
L 269.898443 169.855236 
L 270.882491 172.30933 
L 271.866539 170.949984 
L 272.850586 172.478187 
L 273.834634 171.650623 
L 274.818682 172.376253 
L 275.802729 171.932041 
L 276.786777 172.721726 
L 277.770825 171.573417 
" clip-path="url(#p20fc9984f4)" style="fill: none; stroke: #4a2e83; stroke-width: 0.8; stroke-linecap: square"/>
   </g>
   <g id="line2d_4">
    <path d="M 175.47907 167.674105 
L 282.64186 167.674105 
" clip-path="url(#p20fc9984f4)" style="fill: none; stroke: #999999; stroke-opacity: 0.7; stroke-width: 0.8; stroke-linecap: square"/>
   </g>
   <g id="patch_8">
    <path d="M 175.47907 177.823256 
L 175.47907 64.8 
" style="fill: none; stroke: #cccccc; stroke-width: 0.5; stroke-linejoin: miter; stroke-linecap: square"/>
   </g>
   <g id="patch_9">
    <path d="M 282.64186 177.823256 
L 282.64186 64.8 
" style="fill: none; stroke: #cccccc; stroke-width: 0.5; stroke-linejoin: miter; stroke-linecap: square"/>
   </g>
   <g id="patch_10">
    <path d="M 175.47907 177.823256 
L 282.64186 177.823256 
" style="fill: none; stroke: #cccccc; stroke-width: 0.5; stroke-linejoin: miter; stroke-linecap: square"/>
   </g>
   <g id="patch_11">
    <path d="M 175.47907 64.8 
L 282.64186 64.8 
" style="fill: none; stroke: #cccccc; stroke-width: 0.5; stroke-linejoin: miter; stroke-linecap: square"/>
   </g>
  </g>
  <g id="axes_3">
   <g id="patch_12">
    <path d="M 293.35814 177.823256 
L 400.52093 177.823256 
L 400.52093 64.8 
L 293.35814 64.8 
z
" style="fill: #ffffff"/>
   </g>
   <g id="matplotlib.axis_5"/>
   <g id="matplotlib.axis_6"/>
   <g id="line2d_5">
    <path d="M 298.229175 170.414348 
L 299.213223 170.751327 
L 300.197271 171.111646 
L 301.181318 170.535317 
L 302.165366 171.634713 
L 303.149414 169.795321 
L 304.133461 170.063595 
L 305.117509 170.680567 
L 306.101557 169.793031 
L 307.085604 170.834513 
L 308.069652 171.540589 
L 309.0537 170.738307 
L 310.037747 171.477957 
L 311.021795 171.377486 
L 312.005843 171.426068 
L 312.98989 170.785538 
L 313.973938 170.54206 
L 314.957986 170.801293 
L 315.942033 169.629734 
L 316.926081 171.382092 
L 317.910129 171.74573 
L 318.894176 171.5127 
L 319.878224 170.782933 
L 320.862272 170.711114 
L 321.846319 171.311482 
L 322.830367 171.769067 
L 323.814415 169.526891 
L 324.798462 170.132055 
L 325.78251 170.544943 
L 326.766558 170.755782 
L 327.750605 170.773175 
L 328.734653 171.656393 
L 329.718701 170.671883 
L 330.702748 161.944848 
L 331.686796 146.066439 
L 332.670844 130.188031 
L 333.654891 146.066439 
L 334.638939 161.944848 
L 335.622987 171.349695 
L 336.607034 169.562826 
L 337.591082 172.096518 
L 338.57513 169.504233 
L 339.559177 170.248754 
L 340.543225 170.246496 
L 341.527273 170.598465 
L 342.51132 171.234049 
L 343.495368 169.818067 
L 344.479416 171.678854 
L 345.463463 171.745589 
L 346.447511 170.677893 
L 347.431559 170.204205 
L 348.415606 170.438184 
L 349.399654 170.168645 
L 350.383702 171.396116 
L 351.367749 164.991753 
L 352.351797 152.16025 
L 353.335845 139.328747 
L 354.319892 152.16025 
L 355.30394 164.991753 
L 356.287988 171.267275 
L 357.272035 170.040244 
L 358.256083 170.403412 
L 359.240131 170.405712 
L 360.224178 171.689338 
L 361.208226 171.272915 
L 362.192274 170.941525 
L 363.176321 171.164194 
L 364.160369 170.812651 
L 365.144417 171.742664 
L 366.128464 170.387018 
L 367.112512 171.180359 
L 368.09656 171.979027 
L 369.080607 171.244018 
L 370.064655 170.324331 
L 371.048703 169.777812 
L 372.03275 171.42164 
L 373.016798 171.056449 
L 374.000846 171.125452 
L 374.984893 170.048417 
L 375.968941 170.278429 
L 376.952989 170.126381 
L 377.937036 170.44461 
L 378.921084 171.706958 
L 379.905132 170.651489 
L 380.889179 170.867541 
L 381.873227 171.251343 
L 382.857275 171.084406 
L 383.841322 169.954494 
L 384.82537 170.526418 
L 385.809418 170.82938 
L 386.793465 171.187107 
L 387.777513 170.822223 
L 388.761561 170.288518 
L 389.745608 170.708263 
L 390.729656 171.289018 
L 391.713704 170.999126 
L 392.697751 171.458396 
L 393.681799 169.694151 
L 394.665847 170.671322 
L 395.649894 171.09245 
" clip-path="url(#p60fbb0dbda)" style="fill: none; stroke: #4a2e83; stroke-width: 0.8; stroke-linecap: square"/>
   </g>
   <g id="line2d_6">
    <path d="M 293.35814 168.922381 
L 400.52093 168.922381 
" clip-path="url(#p60fbb0dbda)" style="fill: none; stroke: #999999; stroke-opacity: 0.7; stroke-width: 0.8; stroke-linecap: square"/>
   </g>
   <g id="patch_13">
    <path d="M 293.35814 177.823256 
L 293.35814 64.8 
" style="fill: none; stroke: #cccccc; stroke-width: 0.5; stroke-linejoin: miter; stroke-linecap: square"/>
   </g>
   <g id="patch_14">
    <path d="M 400.52093 177.823256 
L 400.52093 64.8 
" style="fill: none; stroke: #cccccc; stroke-width: 0.5; stroke-linejoin: miter; stroke-linecap: square"/>
   </g>
   <g id="patch_15">
    <path d="M 293.35814 177.823256 
L 400.52093 177.823256 
" style="fill: none; stroke: #cccccc; stroke-width: 0.5; stroke-linejoin: miter; stroke-linecap: square"/>
   </g>
   <g id="patch_16">
    <path d="M 293.35814 64.8 
L 400.52093 64.8 
" style="fill: none; stroke: #cccccc; stroke-width: 0.5; stroke-linejoin: miter; stroke-linecap: square"/>
   </g>
  </g>
  <g id="axes_4">
   <g id="patch_17">
    <path d="M 411.237209 177.823256 
L 518.4 177.823256 
L 518.4 64.8 
L 411.237209 64.8 
z
" style="fill: #ffffff"/>
   </g>
   <g id="matplotlib.axis_7"/>
   <g id="matplotlib.axis_8"/>
   <g id="line2d_7">
    <path d="M 416.108245 143.332444 
L 417.092293 160.57785 
L 418.076341 173.497167 
L 419.060388 173.842251 
L 420.044436 173.451474 
L 421.028484 173.089006 
L 422.012531 173.599592 
L 422.996579 173.645748 
L 423.980627 173.000115 
L 424.964674 173.482723 
L 425.948722 165.360157 
L 426.93277 152.897059 
L 427.916817 165.360157 
L 428.900865 172.659975 
L 429.884913 173.85895 
L 430.86896 173.695063 
L 431.853008 174.006655 
L 432.837056 173.936547 
L 433.821103 173.478749 
L 434.805151 173.581465 
L 435.789199 173.252753 
L 436.773246 173.478062 
L 437.757294 173.344008 
L 438.741342 173.911839 
L 439.725389 173.011309 
L 440.709437 173.431239 
L 441.693485 172.736099 
L 442.677532 173.363008 
L 443.66158 173.497611 
L 444.645628 173.932971 
L 445.629675 172.99424 
L 446.613723 172.294759 
L 447.597771 172.829297 
L 448.581818 172.60809 
L 449.565866 173.455276 
L 450.549914 173.161389 
L 451.533961 173.469053 
L 452.518009 173.605357 
L 453.502057 173.877997 
L 454.486104 173.7969 
L 455.470152 173.975151 
L 456.4542 173.568633 
L 457.438247 173.367194 
L 458.422295 174.267228 
L 459.406342 173.774954 
L 460.39039 173.985071 
L 461.374438 173.946482 
L 462.358485 173.375392 
L 463.342533 172.877495 
L 464.326581 174.288083 
L 465.310628 172.930694 
L 466.294676 172.998757 
L 467.278724 173.450996 
L 468.262771 173.397234 
L 469.246819 173.911922 
L 470.230867 173.075876 
L 471.214914 172.939255 
L 472.198962 173.426043 
L 473.18301 173.781503 
L 474.167057 173.192064 
L 475.151105 172.04914 
L 476.135153 173.125336 
L 477.1192 173.275604 
L 478.103248 172.844614 
L 479.087296 173.013816 
L 480.071343 173.530626 
L 481.055391 173.152315 
L 482.039439 173.086668 
L 483.023486 174.015721 
L 484.007534 173.327152 
L 484.991582 173.840048 
L 485.975629 172.906423 
L 486.959677 173.403754 
L 487.943725 174.070126 
L 488.927772 173.590216 
L 489.91182 173.151551 
L 490.895868 173.410414 
L 491.879915 173.393614 
L 492.863963 174.145382 
L 493.848011 149.048244 
L 494.832058 173.136997 
L 495.816106 173.027371 
L 496.800154 173.529339 
L 497.784201 174.180267 
L 498.768249 173.411187 
L 499.752297 173.651528 
L 500.736344 173.437468 
L 501.720392 173.510536 
L 502.70444 173.215029 
L 503.688487 173.500151 
L 504.672535 173.180331 
L 505.656583 172.540697 
L 506.64063 173.481024 
L 507.624678 173.85718 
L 508.608726 163.30733 
L 509.592773 148.791404 
L 510.576821 163.30733 
L 511.560869 173.535778 
L 512.544916 173.218985 
L 513.528964 173.335021 
" clip-path="url(#p5567e9af1a)" style="fill: none; stroke: #4a2e83; stroke-width: 0.8; stroke-linecap: square"/>
   </g>
   <g id="line2d_8">
    <path d="M 411.237209 171.924701 
L 518.4 171.924701 
" clip-path="url(#p5567e9af1a)" style="fill: none; stroke: #999999; stroke-opacity: 0.7; stroke-width: 0.8; stroke-linecap: square"/>
   </g>
   <g id="patch_18">
    <path d="M 411.237209 177.823256 
L 411.237209 64.8 
" style="fill: none; stroke: #cccccc; stroke-width: 0.5; stroke-linejoin: miter; stroke-linecap: square"/>
   </g>
   <g id="patch_19">
    <path d="M 518.4 177.823256 
L 518.4 64.8 
" style="fill: none; stroke: #cccccc; stroke-width: 0.5; stroke-linejoin: miter; stroke-linecap: square"/>
   </g>
   <g id="patch_20">
    <path d="M 411.237209 177.823256 
L 518.4 177.823256 
" style="fill: none; stroke: #cccccc; stroke-width: 0.5; stroke-linejoin: miter; stroke-linecap: square"/>
   </g>
   <g id="patch_21">
    <path d="M 411.237209 64.8 
L 518.4 64.8 
" style="fill: none; stroke: #cccccc; stroke-width: 0.5; stroke-linejoin: miter; stroke-linecap: square"/>
   </g>
  </g>
  <g id="axes_5">
   <g id="patch_22">
    <path d="M 57.6 302.148837 
L 164.762791 302.148837 
L 164.762791 189.125581 
L 57.6 189.125581 
z
" style="fill: #ffffff"/>
   </g>
   <g id="matplotlib.axis_9"/>
   <g id="matplotlib.axis_10"/>
   <g id="line2d_9">
    <path d="M 62.471036 298.013648 
L 63.455084 298.043098 
L 64.439131 298.419868 
L 65.423179 298.706179 
L 66.407227 298.906096 
L 67.391274 298.373706 
L 68.375322 298.15761 
L 69.35937 297.229255 
L 70.343417 298.247193 
L 71.327465 294.119295 
L 72.311513 286.089752 
L 73.29556 278.060209 
L 74.279608 286.089752 
L 75.263656 294.119295 
L 76.247703 297.607326 
L 77.231751 298.418891 
L 78.215799 297.75622 
L 79.199846 298.134676 
L 80.183894 297.271907 
L 81.167942 297.971825 
L 82.151989 298.08575 
L 83.136037 298.245761 
L 84.120085 298.462513 
L 85.104132 298.532757 
L 86.08818 297.518637 
L 87.072228 298.851292 
L 88.056275 297.347719 
L 89.040323 297.611574 
L 90.024371 297.770804 
L 91.008418 298.176804 
L 91.992466 297.978189 
L 92.976514 297.773841 
L 93.960561 297.923292 
L 94.944609 298.630051 
L 95.928657 297.656127 
L 96.912704 297.758039 
L 97.896752 298.032203 
L 98.8808 291.49295 
L 99.864847 280.837063 
L 100.848895 291.49295 
L 101.832943 298.314886 
L 102.81699 298.293276 
L 103.801038 297.276394 
L 104.785086 297.919759 
L 105.769133 297.81393 
L 106.753181 297.921125 
L 107.737229 297.588409 
L 108.721276 297.56625 
L 109.705324 298.210356 
L 110.689372 297.480224 
L 111.673419 298.313109 
L 112.657467 297.496105 
L 113.641515 297.452452 
L 114.625562 298.513009 
L 115.60961 297.961971 
L 116.593658 297.368079 
L 117.577705 297.802645 
L 118.561753 298.291745 
L 119.5458 298.211968 
L 120.529848 297.812136 
L 121.513896 298.229436 
L 122.497943 297.894201 
L 123.481991 298.001909 
L 124.466039 298.388784 
L 125.450086 298.322986 
L 126.434134 298.0248 
L 127.418182 297.882541 
L 128.402229 297.402134 
L 129.386277 297.964137 
L 130.370325 298.105118 
L 131.354372 298.384087 
L 132.33842 297.646565 
L 133.322468 297.513337 
L 134.306515 298.169132 
L 135.290563 298.289067 
L 136.274611 297.635327 
L 137.258658 298.442015 
L 138.242706 297.92591 
L 139.226754 298.192747 
L 140.210801 297.310694 
L 141.194849 297.801042 
L 142.178897 269.707076 
L 143.162944 298.174432 
L 144.146992 297.367839 
L 145.13104 298.54845 
L 146.115087 298.135311 
L 147.099135 297.82336 
L 148.083183 298.229705 
L 149.06723 297.722164 
L 150.051278 298.171293 
L 151.035326 297.827745 
L 152.019373 297.731174 
L 153.003421 297.968787 
L 153.987469 298.456163 
L 154.971516 298.369154 
L 155.955564 297.815813 
L 156.939612 297.478948 
L 157.923659 298.684253 
L 158.907707 297.859595 
L 159.891755 297.238563 
" clip-path="url(#pcf856870b8)" style="fill: none; stroke: #4a2e83; stroke-width: 0.8; stroke-linecap: square"/>
   </g>
   <g id="line2d_10">
    <path d="M 57.6 296.883577 
L 164.762791 296.883577 
" clip-path="url(#pcf856870b8)" style="fill: none; stroke: #999999; stroke-opacity: 0.7; stroke-width: 0.8; stroke-linecap: square"/>
   </g>
   <g id="patch_23">
    <path d="M 57.6 302.148837 
L 57.6 189.125581 
" style="fill: none; stroke: #cccccc; stroke-width: 0.5; stroke-linejoin: miter; stroke-linecap: square"/>
   </g>
   <g id="patch_24">
    <path d="M 164.762791 302.148837 
L 164.762791 189.125581 
" style="fill: none; stroke: #cccccc; stroke-width: 0.5; stroke-linejoin: miter; stroke-linecap: square"/>
   </g>
   <g id="patch_25">
    <path d="M 57.6 302.148837 
L 164.762791 302.148837 
" style="fill: none; stroke: #cccccc; stroke-width: 0.5; stroke-linejoin: miter; stroke-linecap: square"/>
   </g>
   <g id="patch_26">
    <path d="M 57.6 189.125581 
L 164.762791 189.125581 
" style="fill: none; stroke: #cccccc; stroke-width: 0.5; stroke-linejoin: miter; stroke-linecap: square"/>
   </g>
  </g>
  <g id="axes_6">
   <g id="patch_27">
    <path d="M 175.47907 302.148837 
L 282.64186 302.148837 
L 282.64186 189.125581 
L 175.47907 189.125581 
z
" style="fill: #ffffff"/>
   </g>
   <g id="matplotlib.axis_11"/>
   <g id="matplotlib.axis_12"/>
   <g id="line2d_11">
    <path d="M 180.350106 296.199479 
L 181.334153 295.743418 
L 182.318201 296.744248 
L 183.302249 295.89768 
L 184.286296 296.217974 
L 185.270344 295.057251 
L 186.254392 296.242754 
L 187.238439 296.016878 
L 188.222487 296.329311 
L 189.206535 295.875104 
L 190.190582 297.954599 
L 191.17463 295.364427 
L 192.158678 295.276273 
L 193.142725 295.918955 
L 194.126773 295.002791 
L 195.110821 294.738573 
L 196.094868 294.155626 
L 197.078916 295.966047 
L 198.062964 294.688085 
L 199.047011 296.329781 
L 200.031059 296.426299 
L 201.015107 295.18731 
L 201.999154 296.241322 
L 202.983202 295.557967 
L 203.96725 296.242089 
L 204.951297 295.599889 
L 205.935345 296.452296 
L 206.919393 295.920872 
L 207.90344 296.136939 
L 208.887488 295.609129 
L 209.871536 295.870218 
L 210.855583 296.013107 
L 211.839631 295.54057 
L 212.823679 284.394691 
L 213.807726 266.640545 
L 214.791774 284.394691 
L 215.775822 295.847699 
L 216.759869 296.78905 
L 217.743917 296.755458 
L 218.727965 296.439022 
L 219.712012 295.943813 
L 220.69606 295.520783 
L 221.680108 295.68443 
L 222.664155 295.867037 
L 223.648203 295.419571 
L 224.632251 296.005156 
L 225.616298 295.527685 
L 226.600346 295.422069 
L 227.584394 296.2924 
L 228.568441 295.758082 
L 229.552489 296.342302 
L 230.536537 296.657438 
L 231.520584 296.143752 
L 232.504632 295.66411 
L 233.48868 296.273302 
L 234.472727 296.286781 
L 235.456775 297.278715 
L 236.440823 296.251354 
L 237.42487 295.677471 
L 238.408918 295.309688 
L 239.392966 295.557817 
L 240.377013 294.869851 
L 241.361061 295.515768 
L 242.345109 296.715339 
L 243.329156 295.336477 
L 244.313204 296.614624 
L 245.297252 295.068104 
L 246.281299 294.888182 
L 247.265347 295.919657 
L 248.249395 295.352813 
L 249.233442 296.597754 
L 250.21749 291.103101 
L 251.201538 280.057364 
L 252.185585 269.011627 
L 253.169633 280.057364 
L 254.153681 291.103101 
L 255.137728 295.677256 
L 256.121776 296.107966 
L 257.105824 294.285614 
L 258.089871 296.534031 
L 259.073919 296.377982 
L 260.057967 295.504347 
L 261.042014 296.962993 
L 262.026062 295.809501 
L 263.01011 296.153737 
L 263.994157 296.325088 
L 264.978205 296.685121 
L 265.962253 296.06765 
L 266.9463 295.91074 
L 267.930348 296.022768 
L 268.914396 296.426989 
L 269.898443 296.719444 
L 270.882491 296.4874 
L 271.866539 295.415921 
L 272.850586 296.918908 
L 273.834634 296.620501 
L 274.818682 295.421246 
L 275.802729 295.68285 
L 276.786777 297.164487 
L 277.770825 295.628719 
" clip-path="url(#p1e76699c21)" style="fill: none; stroke: #4a2e83; stroke-width: 0.8; stroke-linecap: square"/>
   </g>
   <g id="line2d_12">
    <path d="M 175.47907 294.737846 
L 282.64186 294.737846 
" clip-path="url(#p1e76699c21)" style="fill: none; stroke: #999999; stroke-opacity: 0.7; stroke-width: 0.8; stroke-linecap: square"/>
   </g>
   <g id="patch_28">
    <path d="M 175.47907 302.148837 
L 175.47907 189.125581 
" style="fill: none; stroke: #cccccc; stroke-width: 0.5; stroke-linejoin: miter; stroke-linecap: square"/>
   </g>
   <g id="patch_29">
    <path d="M 282.64186 302.148837 
L 282.64186 189.125581 
" style="fill: none; stroke: #cccccc; stroke-width: 0.5; stroke-linejoin: miter; stroke-linecap: square"/>
   </g>
   <g id="patch_30">
    <path d="M 175.47907 302.148837 
L 282.64186 302.148837 
" style="fill: none; stroke: #cccccc; stroke-width: 0.5; stroke-linejoin: miter; stroke-linecap: square"/>
   </g>
   <g id="patch_31">
    <path d="M 175.47907 189.125581 
L 282.64186 189.125581 
" style="fill: none; stroke: #cccccc; stroke-width: 0.5; stroke-linejoin: miter; stroke-linecap: square"/>
   </g>
  </g>
  <g id="axes_7">
   <g id="patch_32">
    <path d="M 293.35814 302.148837 
L 400.52093 302.148837 
L 400.52093 189.125581 
L 293.35814 189.125581 
z
" style="fill: #ffffff"/>
   </g>
   <g id="matplotlib.axis_13"/>
   <g id="matplotlib.axis_14"/>
   <g id="line2d_13">
    <path d="M 298.229175 297.126998 
L 299.213223 297.058282 
L 300.197271 296.302694 
L 301.181318 298.261483 
L 302.165366 298.093713 
L 303.149414 297.649119 
L 304.133461 297.565908 
L 305.117509 297.753438 
L 306.101557 297.47983 
L 307.085604 296.421471 
L 308.069652 297.428024 
L 309.0537 297.389561 
L 310.037747 297.398263 
L 311.021795 297.248894 
L 312.005843 297.875679 
L 312.98989 297.416418 
L 313.973938 297.331188 
L 314.957986 297.501994 
L 315.942033 297.190466 
L 316.926081 297.097061 
L 317.910129 298.220095 
L 318.894176 297.672044 
L 319.878224 297.838355 
L 320.862272 297.999342 
L 321.846319 296.871968 
L 322.830367 296.685385 
L 323.814415 298.077588 
L 324.798462 297.450246 
L 325.78251 296.698196 
L 326.766558 297.792727 
L 327.750605 297.523919 
L 328.734653 297.404734 
L 329.718701 297.364956 
L 330.702748 297.292469 
L 331.686796 297.575628 
L 332.670844 297.1575 
L 333.654891 296.808908 
L 334.638939 297.858925 
L 335.622987 297.367632 
L 336.607034 296.869898 
L 337.591082 298.109527 
L 338.57513 296.42588 
L 339.559177 297.594415 
L 340.543225 297.542023 
L 341.527273 297.155197 
L 342.51132 297.164759 
L 343.495368 296.779621 
L 344.479416 297.563515 
L 345.463463 297.806836 
L 346.447511 297.81081 
L 347.431559 297.337134 
L 348.415606 297.468977 
L 349.399654 298.29543 
L 350.383702 273.49209 
L 351.367749 297.194434 
L 352.351797 296.829079 
L 353.335845 297.877562 
L 354.319892 297.395825 
L 355.30394 297.523498 
L 356.287988 297.418189 
L 357.272035 297.523036 
L 358.256083 296.920072 
L 359.240131 296.930343 
L 360.224178 275.264843 
L 361.208226 297.930051 
L 362.192274 297.998222 
L 363.176321 297.344888 
L 364.160369 297.859901 
L 365.144417 297.995095 
L 366.128464 297.535782 
L 367.112512 298.166727 
L 368.09656 297.577106 
L 369.080607 297.655906 
L 370.064655 298.64177 
L 371.048703 297.208915 
L 372.03275 298.109715 
L 373.016798 297.513393 
L 374.000846 297.618998 
L 374.984893 297.415155 
L 375.968941 297.724649 
L 376.952989 298.0999 
L 377.937036 297.720931 
L 378.921084 297.612168 
L 379.905132 296.63518 
L 380.889179 297.755158 
L 381.873227 297.994115 
L 382.857275 297.020241 
L 383.841322 296.774719 
L 384.82537 290.645883 
L 385.809418 279.142929 
L 386.793465 267.639974 
L 387.777513 279.142929 
L 388.761561 290.645883 
L 389.745608 297.322381 
L 390.729656 286.398779 
L 391.713704 270.64872 
L 392.697751 286.398779 
L 393.681799 297.873624 
L 394.665847 297.979387 
L 395.649894 297.724231 
" clip-path="url(#p299e813d06)" style="fill: none; stroke: #4a2e83; stroke-width: 0.8; stroke-linecap: square"/>
   </g>
   <g id="line2d_14">
    <path d="M 293.35814 295.730163 
L 400.52093 295.730163 
" clip-path="url(#p299e813d06)" style="fill: none; stroke: #999999; stroke-opacity: 0.7; stroke-width: 0.8; stroke-linecap: square"/>
   </g>
   <g id="patch_33">
    <path d="M 293.35814 302.148837 
L 293.35814 189.125581 
" style="fill: none; stroke: #cccccc; stroke-width: 0.5; stroke-linejoin: miter; stroke-linecap: square"/>
   </g>
   <g id="patch_34">
    <path d="M 400.52093 302.148837 
L 400.52093 189.125581 
" style="fill: none; stroke: #cccccc; stroke-width: 0.5; stroke-linejoin: miter; stroke-linecap: square"/>
   </g>
   <g id="patch_35">
    <path d="M 293.35814 302.148837 
L 400.52093 302.148837 
" style="fill: none; stroke: #cccccc; stroke-width: 0.5; stroke-linejoin: miter; stroke-linecap: square"/>
   </g>
   <g id="patch_36">
    <path d="M 293.35814 189.125581 
L 400.52093 189.125581 
" style="fill: none; stroke: #cccccc; stroke-width: 0.5; stroke-linejoin: miter; stroke-linecap: square"/>
   </g>
  </g>
  <g id="axes_8">
   <g id="patch_37">
    <path d="M 411.237209 302.148837 
L 518.4 302.148837 
L 518.4 189.125581 
L 411.237209 189.125581 
z
" style="fill: #ffffff"/>
   </g>
   <g id="matplotlib.axis_15"/>
   <g id="matplotlib.axis_16"/>
   <g id="line2d_15">
    <path d="M 416.108245 294.887725 
L 417.092293 295.180782 
L 418.076341 294.947371 
L 419.060388 294.535999 
L 420.044436 294.048348 
L 421.028484 295.104888 
L 422.012531 294.704635 
L 422.996579 296.108845 
L 423.980627 295.612937 
L 424.964674 295.510271 
L 425.948722 295.636267 
L 426.93277 296.664929 
L 427.916817 296.095457 
L 428.900865 295.829605 
L 429.884913 295.189701 
L 430.86896 295.952875 
L 431.853008 295.516741 
L 432.837056 296.711469 
L 433.821103 294.973975 
L 434.805151 294.826961 
L 435.789199 294.619159 
L 436.773246 294.547781 
L 437.757294 295.858246 
L 438.741342 295.003154 
L 439.725389 295.862665 
L 440.709437 295.652474 
L 441.693485 294.097275 
L 442.677532 295.580905 
L 443.66158 294.641307 
L 444.645628 295.399238 
L 445.629675 295.857495 
L 446.613723 295.305304 
L 447.597771 294.720567 
L 448.581818 295.348227 
L 449.565866 295.295037 
L 450.549914 294.696311 
L 451.533961 295.640448 
L 452.518009 295.932789 
L 453.502057 296.038775 
L 454.486104 294.869035 
L 455.470152 294.845547 
L 456.4542 295.103358 
L 457.438247 295.062748 
L 458.422295 295.071187 
L 459.406342 295.735076 
L 460.39039 295.868885 
L 461.374438 295.110865 
L 462.358485 295.560703 
L 463.342533 296.677066 
L 464.326581 294.929906 
L 465.310628 296.019305 
L 466.294676 295.233155 
L 467.278724 295.94829 
L 468.262771 295.106964 
L 469.246819 295.13776 
L 470.230867 294.403719 
L 471.214914 295.036903 
L 472.198962 295.196522 
L 473.18301 295.152589 
L 474.167057 295.768477 
L 475.151105 278.743372 
L 476.135153 255.337906 
L 477.1192 278.743372 
L 478.103248 295.662304 
L 479.087296 295.780285 
L 480.071343 296.284293 
L 481.055391 294.258841 
L 482.039439 296.239971 
L 483.023486 295.048534 
L 484.007534 295.376868 
L 484.991582 295.029709 
L 485.975629 295.344604 
L 486.959677 294.516353 
L 487.943725 294.526168 
L 488.927772 295.567223 
L 489.91182 295.785081 
L 490.895868 294.634024 
L 491.879915 278.196515 
L 492.863963 254.244193 
L 493.848011 278.196515 
L 494.832058 294.657914 
L 495.816106 296.02676 
L 496.800154 295.619353 
L 497.784201 294.571213 
L 498.768249 295.426357 
L 499.752297 294.742875 
L 500.736344 295.289891 
L 501.720392 295.016806 
L 502.70444 295.363377 
L 503.688487 296.737072 
L 504.672535 295.376652 
L 505.656583 296.286034 
L 506.64063 295.416775 
L 507.624678 293.9289 
L 508.608726 294.921429 
L 509.592773 295.315398 
L 510.576821 295.133002 
L 511.560869 295.850615 
L 512.544916 295.181746 
L 513.528964 296.936596 
" clip-path="url(#pb302293dbb)" style="fill: none; stroke: #4a2e83; stroke-width: 0.8; stroke-linecap: square"/>
   </g>
   <g id="line2d_16">
    <path d="M 411.237209 293.852899 
L 518.4 293.852899 
" clip-path="url(#pb302293dbb)" style="fill: none; stroke: #999999; stroke-opacity: 0.7; stroke-width: 0.8; stroke-linecap: square"/>
   </g>
   <g id="patch_38">
    <path d="M 411.237209 302.148837 
L 411.237209 189.125581 
" style="fill: none; stroke: #cccccc; stroke-width: 0.5; stroke-linejoin: miter; stroke-linecap: square"/>
   </g>
   <g id="patch_39">
    <path d="M 518.4 302.148837 
L 518.4 189.125581 
" style="fill: none; stroke: #cccccc; stroke-width: 0.5; stroke-linejoin: miter; stroke-linecap: square"/>
   </g>
   <g id="patch_40">
    <path d="M 411.237209 302.148837 
L 518.4 302.148837 
" style="fill: none; stroke: #cccccc; stroke-width: 0.5; stroke-linejoin: miter; stroke-linecap: square"/>
   </g>
   <g id="patch_41">
    <path d="M 411.237209 189.125581 
L 518.4 189.125581 
" style="fill: none; stroke: #cccccc; stroke-width: 0.5; stroke-linejoin: miter; stroke-linecap: square"/>
   </g>
  </g>
  <g id="axes_9">
   <g id="patch_42">
    <path d="M 57.6 426.474419 
L 164.762791 426.474419 
L 164.762791 313.451163 
L 57.6 313.451163 
z
" style="fill: #ffffff"/>
   </g>
   <g id="matplotlib.axis_17"/>
   <g id="matplotlib.axis_18"/>
   <g id="line2d_17">
    <path d="M 62.471036 416.737491 
L 63.455084 416.913041 
L 64.439131 416.526575 
L 65.423179 418.004003 
L 66.407227 416.371094 
L 67.391274 417.517448 
L 68.375322 417.106498 
L 69.35937 417.257579 
L 70.343417 392.069289 
L 71.327465 357.66416 
L 72.311513 392.069289 
L 73.29556 418.015374 
L 74.279608 418.117048 
L 75.263656 417.535383 
L 76.247703 416.60054 
L 77.231751 417.313019 
L 78.215799 416.480133 
L 79.199846 417.520946 
L 80.183894 418.173025 
L 81.167942 417.12443 
L 82.151989 417.821652 
L 83.136037 415.091903 
L 84.120085 416.397554 
L 85.104132 418.172279 
L 86.08818 417.746081 
L 87.072228 414.667467 
L 88.056275 415.828765 
L 89.040323 417.712215 
L 90.024371 417.478203 
L 91.008418 416.328167 
L 91.992466 416.832576 
L 92.976514 417.395611 
L 93.960561 415.922632 
L 94.944609 415.848566 
L 95.928657 417.118498 
L 96.912704 415.266702 
L 97.896752 415.48437 
L 98.8808 417.525878 
L 99.864847 415.166075 
L 100.848895 416.850998 
L 101.832943 417.940914 
L 102.81699 415.918432 
L 103.801038 407.309822 
L 104.785086 388.145225 
L 105.769133 368.980628 
L 106.753181 388.145225 
L 107.737229 407.309822 
L 108.721276 415.544411 
L 109.705324 416.797212 
L 110.689372 416.536297 
L 111.673419 417.173431 
L 112.657467 415.763552 
L 113.641515 415.488389 
L 114.625562 417.080239 
L 115.60961 417.326274 
L 116.593658 417.423994 
L 117.577705 417.530898 
L 118.561753 416.63682 
L 119.5458 414.403917 
L 120.529848 416.795996 
L 121.513896 417.124508 
L 122.497943 416.570954 
L 123.481991 416.193371 
L 124.466039 416.139604 
L 125.450086 416.508375 
L 126.434134 417.948227 
L 127.418182 418.176711 
L 128.402229 417.454957 
L 129.386277 416.66226 
L 130.370325 417.075297 
L 131.354372 417.4153 
L 132.33842 417.005807 
L 133.322468 416.318235 
L 134.306515 416.826373 
L 135.290563 416.492851 
L 136.274611 416.812076 
L 137.258658 415.31688 
L 138.242706 417.909737 
L 139.226754 416.86618 
L 140.210801 417.149529 
L 141.194849 418.361172 
L 142.178897 415.494128 
L 143.162944 416.128865 
L 144.146992 417.416234 
L 145.13104 418.154169 
L 146.115087 361.813414 
L 147.099135 415.684373 
L 148.083183 418.338064 
L 149.06723 418.368453 
L 150.051278 416.992586 
L 151.035326 417.079891 
L 152.019373 416.50941 
L 153.003421 416.709134 
L 153.987469 418.321058 
L 154.971516 415.920171 
L 155.955564 418.178316 
L 156.939612 416.133861 
L 157.923659 416.462535 
L 158.907707 417.606591 
L 159.891755 415.098627 
" clip-path="url(#p072270fa31)" style="fill: none; stroke: #4a2e83; stroke-width: 0.8; stroke-linecap: square"/>
   </g>
   <g id="line2d_18">
    <path d="M 57.6 413.967623 
L 164.762791 413.967623 
" clip-path="url(#p072270fa31)" style="fill: none; stroke: #999999; stroke-opacity: 0.7; stroke-width: 0.8; stroke-linecap: square"/>
   </g>
   <g id="patch_43">
    <path d="M 57.6 426.474419 
L 57.6 313.451163 
" style="fill: none; stroke: #cccccc; stroke-width: 0.5; stroke-linejoin: miter; stroke-linecap: square"/>
   </g>
   <g id="patch_44">
    <path d="M 164.762791 426.474419 
L 164.762791 313.451163 
" style="fill: none; stroke: #cccccc; stroke-width: 0.5; stroke-linejoin: miter; stroke-linecap: square"/>
   </g>
   <g id="patch_45">
    <path d="M 57.6 426.474419 
L 164.762791 426.474419 
" style="fill: none; stroke: #cccccc; stroke-width: 0.5; stroke-linejoin: miter; stroke-linecap: square"/>
   </g>
   <g id="patch_46">
    <path d="M 57.6 313.451163 
L 164.762791 313.451163 
" style="fill: none; stroke: #cccccc; stroke-width: 0.5; stroke-linejoin: miter; stroke-linecap: square"/>
   </g>
  </g>
  <g id="axes_10">
   <g id="patch_47">
    <path d="M 175.47907 426.474419 
L 282.64186 426.474419 
L 282.64186 313.451163 
L 175.47907 313.451163 
z
" style="fill: #ffffff"/>
   </g>
   <g id="matplotlib.axis_19"/>
   <g id="matplotlib.axis_20"/>
   <g id="line2d_19">
    <path d="M 180.350106 418.635645 
L 181.334153 418.310322 
L 182.318201 418.602664 
L 183.302249 417.599846 
L 184.286296 419.207279 
L 185.270344 417.267009 
L 186.254392 417.958919 
L 187.238439 417.479031 
L 188.222487 416.473494 
L 189.206535 417.185535 
L 190.190582 417.750318 
L 191.17463 397.152978 
L 192.158678 367.831537 
L 193.142725 397.152978 
L 194.126773 418.09977 
L 195.110821 417.774793 
L 196.094868 415.985513 
L 197.078916 416.617151 
L 198.062964 417.220728 
L 199.047011 419.050313 
L 200.031059 418.333962 
L 201.015107 417.815295 
L 201.999154 417.852792 
L 202.983202 416.549028 
L 203.96725 419.237227 
L 204.951297 417.481548 
L 205.935345 417.629992 
L 206.919393 416.352672 
L 207.90344 416.854038 
L 208.887488 417.505134 
L 209.871536 418.41718 
L 210.855583 417.562512 
L 211.839631 419.159926 
L 212.823679 417.319289 
L 213.807726 416.698459 
L 214.791774 416.146928 
L 215.775822 417.349589 
L 216.759869 415.85507 
L 217.743917 418.421141 
L 218.727965 416.415393 
L 219.712012 416.28072 
L 220.69606 419.247508 
L 221.680108 417.446922 
L 222.664155 417.777579 
L 223.648203 417.215906 
L 224.632251 416.340145 
L 225.616298 418.956083 
L 226.600346 416.856595 
L 227.584394 418.123176 
L 228.568441 418.17911 
L 229.552489 418.952287 
L 230.536537 417.715378 
L 231.520584 417.84338 
L 232.504632 419.418442 
L 233.48868 418.676192 
L 234.472727 418.162998 
L 235.456775 418.061667 
L 236.440823 417.349199 
L 237.42487 419.791224 
L 238.408918 418.126933 
L 239.392966 415.707719 
L 240.377013 416.323124 
L 241.361061 416.279821 
L 242.345109 416.953377 
L 243.329156 417.40995 
L 244.313204 417.782223 
L 245.297252 417.973006 
L 246.281299 417.245579 
L 247.265347 418.21273 
L 248.249395 417.84083 
L 249.233442 416.313618 
L 250.21749 417.490073 
L 251.201538 418.340648 
L 252.185585 409.359194 
L 253.169633 392.243969 
L 254.153681 375.128744 
L 255.137728 392.243969 
L 256.121776 409.359194 
L 257.105824 418.09254 
L 258.089871 417.123332 
L 259.073919 418.077052 
L 260.057967 417.4771 
L 261.042014 419.771601 
L 262.026062 417.962166 
L 263.01011 416.901922 
L 263.994157 417.727869 
L 264.978205 417.866404 
L 265.962253 417.645044 
L 266.9463 417.71501 
L 267.930348 415.934546 
L 268.914396 418.363698 
L 269.898443 416.938151 
L 270.882491 417.754951 
L 271.866539 417.136101 
L 272.850586 418.391421 
L 273.834634 417.477364 
L 274.818682 418.014879 
L 275.802729 417.68523 
L 276.786777 417.033014 
L 277.770825 417.820699 
" clip-path="url(#pc684edcb40)" style="fill: none; stroke: #4a2e83; stroke-width: 0.8; stroke-linecap: square"/>
   </g>
   <g id="line2d_20">
    <path d="M 175.47907 415.639523 
L 282.64186 415.639523 
" clip-path="url(#pc684edcb40)" style="fill: none; stroke: #999999; stroke-opacity: 0.7; stroke-width: 0.8; stroke-linecap: square"/>
   </g>
   <g id="patch_48">
    <path d="M 175.47907 426.474419 
L 175.47907 313.451163 
" style="fill: none; stroke: #cccccc; stroke-width: 0.5; stroke-linejoin: miter; stroke-linecap: square"/>
   </g>
   <g id="patch_49">
    <path d="M 282.64186 426.474419 
L 282.64186 313.451163 
" style="fill: none; stroke: #cccccc; stroke-width: 0.5; stroke-linejoin: miter; stroke-linecap: square"/>
   </g>
   <g id="patch_50">
    <path d="M 175.47907 426.474419 
L 282.64186 426.474419 
" style="fill: none; stroke: #cccccc; stroke-width: 0.5; stroke-linejoin: miter; stroke-linecap: square"/>
   </g>
   <g id="patch_51">
    <path d="M 175.47907 313.451163 
L 282.64186 313.451163 
" style="fill: none; stroke: #cccccc; stroke-width: 0.5; stroke-linejoin: miter; stroke-linecap: square"/>
   </g>
  </g>
  <g id="axes_11">
   <g id="patch_52">
    <path d="M 293.35814 426.474419 
L 400.52093 426.474419 
L 400.52093 313.451163 
L 293.35814 313.451163 
z
" style="fill: #ffffff"/>
   </g>
   <g id="matplotlib.axis_21"/>
   <g id="matplotlib.axis_22"/>
   <g id="line2d_21">
    <path d="M 298.229175 419.685206 
L 299.213223 419.230413 
L 300.197271 419.373968 
L 301.181318 418.68974 
L 302.165366 420.124098 
L 303.149414 418.387586 
L 304.133461 418.921274 
L 305.117509 418.5804 
L 306.101557 419.856161 
L 307.085604 420.756781 
L 308.069652 419.195702 
L 309.0537 419.238646 
L 310.037747 418.331 
L 311.021795 419.33829 
L 312.005843 418.434008 
L 312.98989 419.75963 
L 313.973938 419.749016 
L 314.957986 418.716086 
L 315.942033 419.940304 
L 316.926081 418.429836 
L 317.910129 420.930675 
L 318.894176 419.970596 
L 319.878224 417.499105 
L 320.862272 419.846594 
L 321.846319 420.306067 
L 322.830367 420.613573 
L 323.814415 418.888365 
L 324.798462 419.945657 
L 325.78251 419.493316 
L 326.766558 418.068095 
L 327.750605 418.932227 
L 328.734653 419.381442 
L 329.718701 419.216483 
L 330.702748 418.842857 
L 331.686796 418.773476 
L 332.670844 419.006283 
L 333.654891 419.543807 
L 334.638939 419.315102 
L 335.622987 420.008424 
L 336.607034 419.284632 
L 337.591082 419.252958 
L 338.57513 418.775715 
L 339.559177 419.418848 
L 340.543225 413.729973 
L 341.527273 400.985526 
L 342.51132 388.24108 
L 343.495368 400.985526 
L 344.479416 413.729973 
L 345.463463 418.288368 
L 346.447511 418.346446 
L 347.431559 419.635121 
L 348.415606 419.547215 
L 349.399654 418.649782 
L 350.383702 419.663924 
L 351.367749 418.406639 
L 352.351797 418.498214 
L 353.335845 419.173395 
L 354.319892 419.379963 
L 355.30394 419.373964 
L 356.287988 420.275523 
L 357.272035 419.665697 
L 358.256083 420.953443 
L 359.240131 418.45739 
L 360.224178 420.550016 
L 361.208226 418.805901 
L 362.192274 418.943819 
L 363.176321 419.422384 
L 364.160369 419.484031 
L 365.144417 419.526987 
L 366.128464 419.203148 
L 367.112512 418.586654 
L 368.09656 420.787908 
L 369.080607 420.013929 
L 370.064655 419.49086 
L 371.048703 418.379743 
L 372.03275 420.42737 
L 373.016798 419.662691 
L 374.000846 420.343657 
L 374.984893 420.573292 
L 375.968941 419.74159 
L 376.952989 419.065906 
L 377.937036 419.040727 
L 378.921084 417.977074 
L 379.905132 419.826947 
L 380.889179 419.964642 
L 381.873227 419.628442 
L 382.857275 417.959 
L 383.841322 419.316267 
L 384.82537 418.921662 
L 385.809418 418.450279 
L 386.793465 419.760577 
L 387.777513 420.179939 
L 388.761561 420.498386 
L 389.745608 420.080062 
L 390.729656 418.889664 
L 391.713704 413.821991 
L 392.697751 401.169563 
L 393.681799 388.517136 
L 394.665847 401.169563 
L 395.649894 413.821991 
" clip-path="url(#p0fb4af45f0)" style="fill: none; stroke: #4a2e83; stroke-width: 0.8; stroke-linecap: square"/>
   </g>
   <g id="line2d_22">
    <path d="M 293.35814 417.780434 
L 400.52093 417.780434 
" clip-path="url(#p0fb4af45f0)" style="fill: none; stroke: #999999; stroke-opacity: 0.7; stroke-width: 0.8; stroke-linecap: square"/>
   </g>
   <g id="patch_53">
    <path d="M 293.35814 426.474419 
L 293.35814 313.451163 
" style="fill: none; stroke: #cccccc; stroke-width: 0.5; stroke-linejoin: miter; stroke-linecap: square"/>
   </g>
   <g id="patch_54">
    <path d="M 400.52093 426.474419 
L 400.52093 313.451163 
" style="fill: none; stroke: #cccccc; stroke-width: 0.5; stroke-linejoin: miter; stroke-linecap: square"/>
   </g>
   <g id="patch_55">
    <path d="M 293.35814 426.474419 
L 400.52093 426.474419 
" style="fill: none; stroke: #cccccc; stroke-width: 0.5; stroke-linejoin: miter; stroke-linecap: square"/>
   </g>
   <g id="patch_56">
    <path d="M 293.35814 313.451163 
L 400.52093 313.451163 
" style="fill: none; stroke: #cccccc; stroke-width: 0.5; stroke-linejoin: miter; stroke-linecap: square"/>
   </g>
  </g>
  <g id="axes_12">
   <g id="patch_57">
    <path d="M 411.237209 426.474419 
L 518.4 426.474419 
L 518.4 313.451163 
L 411.237209 313.451163 
z
" style="fill: #ffffff"/>
   </g>
   <g id="matplotlib.axis_23"/>
   <g id="matplotlib.axis_24"/>
   <g id="line2d_23">
    <path d="M 416.108245 417.363858 
L 417.092293 418.123046 
L 418.076341 417.85696 
L 419.060388 417.505948 
L 420.044436 418.938265 
L 421.028484 393.263595 
L 422.012531 360.052771 
L 422.996579 393.263595 
L 423.980627 362.528193 
L 424.964674 394.501306 
L 425.948722 417.273185 
L 426.93277 418.551306 
L 427.916817 418.70218 
L 428.900865 418.560983 
L 429.884913 417.756952 
L 430.86896 418.047059 
L 431.853008 418.498198 
L 432.837056 417.661678 
L 433.821103 416.35458 
L 434.805151 415.571104 
L 435.789199 417.196043 
L 436.773246 417.266122 
L 437.757294 418.361025 
L 438.741342 417.771866 
L 439.725389 417.001797 
L 440.709437 417.885259 
L 441.693485 418.436002 
L 442.677532 418.063965 
L 443.66158 418.87563 
L 444.645628 418.684312 
L 445.629675 417.091028 
L 446.613723 416.788788 
L 447.597771 418.647617 
L 448.581818 418.377821 
L 449.565866 360.308992 
L 450.549914 416.25577 
L 451.533961 417.279655 
L 452.518009 415.813172 
L 453.502057 416.517179 
L 454.486104 416.349414 
L 455.470152 418.42676 
L 456.4542 417.378262 
L 457.438247 418.617546 
L 458.422295 417.251142 
L 459.406342 417.612454 
L 460.39039 419.788465 
L 461.374438 416.536939 
L 462.358485 417.871163 
L 463.342533 419.048871 
L 464.326581 416.539981 
L 465.310628 416.63362 
L 466.294676 415.72422 
L 467.278724 416.777057 
L 468.262771 416.622492 
L 469.246819 417.679295 
L 470.230867 416.792038 
L 471.214914 417.784531 
L 472.198962 417.68002 
L 473.18301 417.427023 
L 474.167057 418.771034 
L 475.151105 416.010196 
L 476.135153 417.471159 
L 477.1192 417.510792 
L 478.103248 417.792716 
L 479.087296 419.053386 
L 480.071343 418.231116 
L 481.055391 417.159101 
L 482.039439 417.799758 
L 483.023486 416.188084 
L 484.007534 417.45589 
L 484.991582 417.83272 
L 485.975629 419.128192 
L 486.959677 416.849662 
L 487.943725 414.811739 
L 488.927772 417.878387 
L 489.91182 417.398142 
L 490.895868 419.770439 
L 491.879915 371.018347 
L 492.863963 416.23166 
L 493.848011 417.572151 
L 494.832058 416.081654 
L 495.816106 417.906995 
L 496.800154 415.347322 
L 497.784201 417.661921 
L 498.768249 416.664853 
L 499.752297 416.488871 
L 500.736344 416.526686 
L 501.720392 418.492577 
L 502.70444 417.363993 
L 503.688487 418.300692 
L 504.672535 418.884453 
L 505.656583 416.537801 
L 506.64063 418.408219 
L 507.624678 418.119464 
L 508.608726 416.127114 
L 509.592773 417.577957 
L 510.576821 415.791268 
L 511.560869 418.804015 
L 512.544916 416.839082 
L 513.528964 416.456806 
" clip-path="url(#pa5973da4cd)" style="fill: none; stroke: #4a2e83; stroke-width: 0.8; stroke-linecap: square"/>
   </g>
   <g id="line2d_24">
    <path d="M 411.237209 414.618545 
L 518.4 414.618545 
" clip-path="url(#pa5973da4cd)" style="fill: none; stroke: #999999; stroke-opacity: 0.7; stroke-width: 0.8; stroke-linecap: square"/>
   </g>
   <g id="patch_58">
    <path d="M 411.237209 426.474419 
L 411.237209 313.451163 
" style="fill: none; stroke: #cccccc; stroke-width: 0.5; stroke-linejoin: miter; stroke-linecap: square"/>
   </g>
   <g id="patch_59">
    <path d="M 518.4 426.474419 
L 518.4 313.451163 
" style="fill: none; stroke: #cccccc; stroke-width: 0.5; stroke-linejoin: miter; stroke-linecap: square"/>
   </g>
   <g id="patch_60">
    <path d="M 411.237209 426.474419 
L 518.4 426.474419 
" style="fill: none; stroke: #cccccc; stroke-width: 0.5; stroke-linejoin: miter; stroke-linecap: square"/>
   </g>
   <g id="patch_61">
    <path d="M 411.237209 313.451163 
L 518.4 313.451163 
" style="fill: none; stroke: #cccccc; stroke-width: 0.5; stroke-linejoin: miter; stroke-linecap: square"/>
   </g>
  </g>
  <g id="axes_13">
   <g id="patch_62">
    <path d="M 57.6 550.8 
L 164.762791 550.8 
L 164.762791 437.776744 
L 57.6 437.776744 
z
" style="fill: #ffffff"/>
   </g>
   <g id="matplotlib.axis_25"/>
   <g id="matplotlib.axis_26"/>
   <g id="line2d_25">
    <path d="M 62.471036 545.229173 
L 63.455084 544.795433 
L 64.439131 545.711641 
L 65.423179 546.18487 
L 66.407227 545.68118 
L 67.391274 546.100491 
L 68.375322 544.897119 
L 69.35937 545.12755 
L 70.343417 545.155877 
L 71.327465 546.35231 
L 72.311513 545.14448 
L 73.29556 545.597515 
L 74.279608 545.833529 
L 75.263656 545.826131 
L 76.247703 539.715289 
L 77.231751 528.630577 
L 78.215799 517.545866 
L 79.199846 528.630577 
L 80.183894 539.715289 
L 81.167942 545.689208 
L 82.151989 545.979154 
L 83.136037 545.908747 
L 84.120085 545.611409 
L 85.104132 545.421872 
L 86.08818 545.518103 
L 87.072228 545.858059 
L 88.056275 545.873929 
L 89.040323 545.194891 
L 90.024371 545.180078 
L 91.008418 545.017008 
L 91.992466 545.274238 
L 92.976514 545.615287 
L 93.960561 545.242659 
L 94.944609 545.287202 
L 95.928657 544.311254 
L 96.912704 545.350333 
L 97.896752 544.595399 
L 98.8808 545.977605 
L 99.864847 544.964053 
L 100.848895 545.914358 
L 101.832943 545.766098 
L 102.81699 545.531579 
L 103.801038 545.5291 
L 104.785086 545.456592 
L 105.769133 545.191843 
L 106.753181 545.28204 
L 107.737229 544.986743 
L 108.721276 544.842832 
L 109.705324 545.449952 
L 110.689372 545.80169 
L 111.673419 544.429808 
L 112.657467 545.652467 
L 113.641515 545.74927 
L 114.625562 544.480208 
L 115.60961 545.900797 
L 116.593658 545.749341 
L 117.577705 545.037083 
L 118.561753 546.263647 
L 119.5458 545.185444 
L 120.529848 546.459085 
L 121.513896 545.601594 
L 122.497943 544.900416 
L 123.481991 545.36784 
L 124.466039 545.234482 
L 125.450086 511.116177 
L 126.434134 545.5534 
L 127.418182 545.507666 
L 128.402229 546.279666 
L 129.386277 546.133033 
L 130.370325 544.564831 
L 131.354372 544.782756 
L 132.33842 545.229025 
L 133.322468 545.12484 
L 134.306515 545.266482 
L 135.290563 544.470622 
L 136.274611 545.427722 
L 137.258658 546.054947 
L 138.242706 545.752728 
L 139.226754 544.700384 
L 140.210801 545.004928 
L 141.194849 546.290901 
L 142.178897 545.293361 
L 143.162944 546.569358 
L 144.146992 538.676989 
L 145.13104 526.553979 
L 146.115087 514.430968 
L 147.099135 526.553979 
L 148.083183 538.676989 
L 149.06723 531.973411 
L 150.051278 513.146823 
L 151.035326 531.973411 
L 152.019373 545.61436 
L 153.003421 546.043117 
L 153.987469 543.997184 
L 154.971516 545.465015 
L 155.955564 545.504292 
L 156.939612 545.1722 
L 157.923659 545.903131 
L 158.907707 544.601698 
L 159.891755 545.562534 
" clip-path="url(#p2f8c485ea5)" style="fill: none; stroke: #4a2e83; stroke-width: 0.8; stroke-linecap: square"/>
   </g>
   <g id="line2d_26">
    <path d="M 57.6 542.944826 
L 164.762791 542.944826 
" clip-path="url(#p2f8c485ea5)" style="fill: none; stroke: #999999; stroke-opacity: 0.7; stroke-width: 0.8; stroke-linecap: square"/>
   </g>
   <g id="patch_63">
    <path d="M 57.6 550.8 
L 57.6 437.776744 
" style="fill: none; stroke: #cccccc; stroke-width: 0.5; stroke-linejoin: miter; stroke-linecap: square"/>
   </g>
   <g id="patch_64">
    <path d="M 164.762791 550.8 
L 164.762791 437.776744 
" style="fill: none; stroke: #cccccc; stroke-width: 0.5; stroke-linejoin: miter; stroke-linecap: square"/>
   </g>
   <g id="patch_65">
    <path d="M 57.6 550.8 
L 164.762791 550.8 
" style="fill: none; stroke: #cccccc; stroke-width: 0.5; stroke-linejoin: miter; stroke-linecap: square"/>
   </g>
   <g id="patch_66">
    <path d="M 57.6 437.776744 
L 164.762791 437.776744 
" style="fill: none; stroke: #cccccc; stroke-width: 0.5; stroke-linejoin: miter; stroke-linecap: square"/>
   </g>
  </g>
  <g id="axes_14">
   <g id="patch_67">
    <path d="M 175.47907 550.8 
L 282.64186 550.8 
L 282.64186 437.776744 
L 175.47907 437.776744 
z
" style="fill: #ffffff"/>
   </g>
   <g id="matplotlib.axis_27"/>
   <g id="matplotlib.axis_28"/>
   <g id="line2d_27">
    <path d="M 180.350106 546.229008 
L 181.334153 545.60607 
L 182.318201 545.449237 
L 183.302249 545.678599 
L 184.286296 545.878122 
L 185.270344 545.922066 
L 186.254392 544.7218 
L 187.238439 546.195086 
L 188.222487 545.016544 
L 189.206535 545.943299 
L 190.190582 545.858171 
L 191.17463 545.060521 
L 192.158678 545.415492 
L 193.142725 545.452587 
L 194.126773 545.956903 
L 195.110821 546.008848 
L 196.094868 544.834454 
L 197.078916 546.217708 
L 198.062964 545.856663 
L 199.047011 545.795953 
L 200.031059 545.240203 
L 201.015107 546.038701 
L 201.999154 545.100368 
L 202.983202 544.889545 
L 203.96725 545.38114 
L 204.951297 545.075235 
L 205.935345 545.452198 
L 206.919393 545.723005 
L 207.90344 545.510397 
L 208.887488 545.720879 
L 209.871536 545.682853 
L 210.855583 544.91926 
L 211.839631 545.843414 
L 212.823679 545.107063 
L 213.807726 546.830051 
L 214.791774 546.480188 
L 215.775822 544.845405 
L 216.759869 547.186064 
L 217.743917 546.105567 
L 218.727965 546.164843 
L 219.712012 545.743056 
L 220.69606 545.875675 
L 221.680108 545.987237 
L 222.664155 546.36611 
L 223.648203 545.499972 
L 224.632251 545.769699 
L 225.616298 546.08156 
L 226.600346 545.899092 
L 227.584394 545.160429 
L 228.568441 545.865379 
L 229.552489 545.721024 
L 230.536537 545.851995 
L 231.520584 511.567589 
L 232.504632 545.255447 
L 233.48868 547.284446 
L 234.472727 545.456357 
L 235.456775 541.476529 
L 236.440823 532.153059 
L 237.42487 522.829588 
L 238.408918 532.153059 
L 239.392966 541.476529 
L 240.377013 545.483517 
L 241.361061 545.30004 
L 242.345109 545.443041 
L 243.329156 541.18227 
L 244.313204 531.564541 
L 245.297252 521.946811 
L 246.281299 531.564541 
L 247.265347 541.18227 
L 248.249395 546.133997 
L 249.233442 533.073763 
L 250.21749 515.347527 
L 251.201538 533.073763 
L 252.185585 546.218595 
L 253.169633 545.521036 
L 254.153681 545.493243 
L 255.137728 544.989246 
L 256.121776 545.76995 
L 257.105824 544.915682 
L 258.089871 545.702009 
L 259.073919 546.584189 
L 260.057967 545.146132 
L 261.042014 546.824959 
L 262.026062 545.621181 
L 263.01011 546.156768 
L 263.994157 545.777539 
L 264.978205 546.371785 
L 265.962253 545.274308 
L 266.9463 545.671788 
L 267.930348 546.392962 
L 268.914396 545.692507 
L 269.898443 545.593282 
L 270.882491 546.045046 
L 271.866539 545.452815 
L 272.850586 545.936424 
L 273.834634 545.280261 
L 274.818682 545.335396 
L 275.802729 545.543623 
L 276.786777 545.255952 
L 277.770825 545.393776 
" clip-path="url(#p8d44f249bc)" style="fill: none; stroke: #4a2e83; stroke-width: 0.8; stroke-linecap: square"/>
   </g>
   <g id="line2d_28">
    <path d="M 175.47907 543.611239 
L 282.64186 543.611239 
" clip-path="url(#p8d44f249bc)" style="fill: none; stroke: #999999; stroke-opacity: 0.7; stroke-width: 0.8; stroke-linecap: square"/>
   </g>
   <g id="patch_68">
    <path d="M 175.47907 550.8 
L 175.47907 437.776744 
" style="fill: none; stroke: #cccccc; stroke-width: 0.5; stroke-linejoin: miter; stroke-linecap: square"/>
   </g>
   <g id="patch_69">
    <path d="M 282.64186 550.8 
L 282.64186 437.776744 
" style="fill: none; stroke: #cccccc; stroke-width: 0.5; stroke-linejoin: miter; stroke-linecap: square"/>
   </g>
   <g id="patch_70">
    <path d="M 175.47907 550.8 
L 282.64186 550.8 
" style="fill: none; stroke: #cccccc; stroke-width: 0.5; stroke-linejoin: miter; stroke-linecap: square"/>
   </g>
   <g id="patch_71">
    <path d="M 175.47907 437.776744 
L 282.64186 437.776744 
" style="fill: none; stroke: #cccccc; stroke-width: 0.5; stroke-linejoin: miter; stroke-linecap: square"/>
   </g>
  </g>
  <g id="axes_15">
   <g id="patch_72">
    <path d="M 293.35814 550.8 
L 400.52093 550.8 
L 400.52093 437.776744 
L 293.35814 437.776744 
z
" style="fill: #ffffff"/>
   </g>
   <g id="matplotlib.axis_29"/>
   <g id="matplotlib.axis_30"/>
   <g id="line2d_29">
    <path d="M 298.229175 543.537174 
L 299.213223 543.541749 
L 300.197271 544.968962 
L 301.181318 543.88007 
L 302.165366 543.92214 
L 303.149414 544.344668 
L 304.133461 543.525437 
L 305.117509 543.668472 
L 306.101557 543.407692 
L 307.085604 544.085173 
L 308.069652 543.402375 
L 309.0537 543.172368 
L 310.037747 544.335404 
L 311.021795 543.307611 
L 312.005843 543.243121 
L 312.98989 544.746303 
L 313.973938 542.932244 
L 314.957986 544.043448 
L 315.942033 543.308605 
L 316.926081 543.767579 
L 317.910129 543.416302 
L 318.894176 543.684553 
L 319.878224 544.071935 
L 320.862272 543.673835 
L 321.846319 542.836885 
L 322.830367 544.000814 
L 323.814415 543.21019 
L 324.798462 543.082279 
L 325.78251 543.52172 
L 326.766558 544.823277 
L 327.750605 543.765207 
L 328.734653 543.830021 
L 329.718701 542.911343 
L 330.702748 542.9967 
L 331.686796 544.523717 
L 332.670844 544.557373 
L 333.654891 543.048102 
L 334.638939 501.696731 
L 335.622987 543.567725 
L 336.607034 543.908305 
L 337.591082 542.679741 
L 338.57513 544.307943 
L 339.559177 543.754064 
L 340.543225 544.420012 
L 341.527273 543.826494 
L 342.51132 544.012403 
L 343.495368 544.266244 
L 344.479416 543.592324 
L 345.463463 542.810201 
L 346.447511 544.331827 
L 347.431559 544.025755 
L 348.415606 542.942698 
L 349.399654 543.772725 
L 350.383702 545.156866 
L 351.367749 543.844722 
L 352.351797 543.260104 
L 353.335845 543.76661 
L 354.319892 543.570639 
L 355.30394 538.061782 
L 356.287988 525.323564 
L 357.272035 512.585347 
L 358.256083 525.323564 
L 359.240131 538.061782 
L 360.224178 543.809425 
L 361.208226 543.16196 
L 362.192274 537.027241 
L 363.176321 523.254482 
L 364.160369 509.481723 
L 365.144417 523.254482 
L 366.128464 537.027241 
L 367.112512 542.721392 
L 368.09656 542.590834 
L 369.080607 545.041367 
L 370.064655 544.616969 
L 371.048703 543.482261 
L 372.03275 544.196809 
L 373.016798 543.279253 
L 374.000846 501.348273 
L 374.984893 543.335905 
L 375.968941 542.528723 
L 376.952989 544.662052 
L 377.937036 544.3551 
L 378.921084 543.904037 
L 379.905132 542.557147 
L 380.889179 542.697391 
L 381.873227 545.024978 
L 382.857275 543.066338 
L 383.841322 544.591826 
L 384.82537 543.29331 
L 385.809418 543.42636 
L 386.793465 543.757821 
L 387.777513 543.314943 
L 388.761561 542.989854 
L 389.745608 543.277324 
L 390.729656 542.197279 
L 391.713704 543.268938 
L 392.697751 543.802798 
L 393.681799 544.037455 
L 394.665847 542.588989 
L 395.649894 542.993407 
" clip-path="url(#p9f03e15210)" style="fill: none; stroke: #4a2e83; stroke-width: 0.8; stroke-linecap: square"/>
   </g>
   <g id="line2d_30">
    <path d="M 293.35814 541.139307 
L 400.52093 541.139307 
" clip-path="url(#p9f03e15210)" style="fill: none; stroke: #999999; stroke-opacity: 0.7; stroke-width: 0.8; stroke-linecap: square"/>
   </g>
   <g id="patch_73">
    <path d="M 293.35814 550.8 
L 293.35814 437.776744 
" style="fill: none; stroke: #cccccc; stroke-width: 0.5; stroke-linejoin: miter; stroke-linecap: square"/>
   </g>
   <g id="patch_74">
    <path d="M 400.52093 550.8 
L 400.52093 437.776744 
" style="fill: none; stroke: #cccccc; stroke-width: 0.5; stroke-linejoin: miter; stroke-linecap: square"/>
   </g>
   <g id="patch_75">
    <path d="M 293.35814 550.8 
L 400.52093 550.8 
" style="fill: none; stroke: #cccccc; stroke-width: 0.5; stroke-linejoin: miter; stroke-linecap: square"/>
   </g>
   <g id="patch_76">
    <path d="M 293.35814 437.776744 
L 400.52093 437.776744 
" style="fill: none; stroke: #cccccc; stroke-width: 0.5; stroke-linejoin: miter; stroke-linecap: square"/>
   </g>
  </g>
  <g id="axes_16">
   <g id="patch_77">
    <path d="M 411.237209 550.8 
L 518.4 550.8 
L 518.4 437.776744 
L 411.237209 437.776744 
z
" style="fill: #ffffff"/>
   </g>
   <g id="matplotlib.axis_31"/>
   <g id="matplotlib.axis_32"/>
   <g id="line2d_31">
    <path d="M 416.108245 544.584815 
L 417.092293 544.466757 
L 418.076341 545.393931 
L 419.060388 545.247929 
L 420.044436 545.349161 
L 421.028484 544.920338 
L 422.012531 545.272378 
L 422.996579 503.587937 
L 423.980627 544.729555 
L 424.964674 545.30595 
L 425.948722 545.483292 
L 426.93277 544.803446 
L 427.916817 544.58151 
L 428.900865 546.196483 
L 429.884913 545.892112 
L 430.86896 543.973043 
L 431.853008 544.288325 
L 432.837056 544.062246 
L 433.821103 544.323687 
L 434.805151 544.90798 
L 435.789199 545.525524 
L 436.773246 544.094359 
L 437.757294 544.36656 
L 438.741342 545.327363 
L 439.725389 544.478403 
L 440.709437 544.657701 
L 441.693485 544.668061 
L 442.677532 544.815625 
L 443.66158 544.679957 
L 444.645628 544.839961 
L 445.629675 544.85737 
L 446.613723 545.316339 
L 447.597771 544.687482 
L 448.581818 545.03148 
L 449.565866 545.384767 
L 450.549914 544.479086 
L 451.533961 544.406 
L 452.518009 544.934998 
L 453.502057 545.530067 
L 454.486104 544.501507 
L 455.470152 544.218205 
L 456.4542 543.775154 
L 457.438247 545.550503 
L 458.422295 538.093338 
L 459.406342 525.386677 
L 460.39039 512.680015 
L 461.374438 525.386677 
L 462.358485 538.093338 
L 463.342533 544.567554 
L 464.326581 544.988977 
L 465.310628 544.441767 
L 466.294676 545.590436 
L 467.278724 545.25891 
L 468.262771 544.338394 
L 469.246819 545.283185 
L 470.230867 544.578009 
L 471.214914 545.259824 
L 472.198962 545.168699 
L 473.18301 544.99073 
L 474.167057 545.365506 
L 475.151105 544.329142 
L 476.135153 544.395926 
L 477.1192 543.400531 
L 478.103248 545.606778 
L 479.087296 544.850567 
L 480.071343 545.299286 
L 481.055391 544.360439 
L 482.039439 544.279107 
L 483.023486 544.375903 
L 484.007534 546.776397 
L 484.991582 546.417612 
L 485.975629 544.647805 
L 486.959677 544.33569 
L 487.943725 545.636792 
L 488.927772 544.626612 
L 489.91182 544.148011 
L 490.895868 545.706868 
L 491.879915 545.702221 
L 492.863963 545.100041 
L 493.848011 545.380729 
L 494.832058 544.663382 
L 495.816106 544.814854 
L 496.800154 544.773166 
L 497.784201 544.942961 
L 498.768249 545.325015 
L 499.752297 544.494086 
L 500.736344 544.740935 
L 501.720392 544.653946 
L 502.70444 508.034667 
L 503.688487 544.206035 
L 504.672535 544.441666 
L 505.656583 544.257343 
L 506.64063 544.989533 
L 507.624678 545.002642 
L 508.608726 545.592677 
L 509.592773 544.292252 
L 510.576821 544.514205 
L 511.560869 544.787546 
L 512.544916 545.922081 
L 513.528964 543.881573 
" clip-path="url(#p5f0a61380b)" style="fill: none; stroke: #4a2e83; stroke-width: 0.8; stroke-linecap: square"/>
   </g>
   <g id="line2d_32">
    <path d="M 411.237209 543.246764 
L 518.4 543.246764 
" clip-path="url(#p5f0a61380b)" style="fill: none; stroke: #999999; stroke-opacity: 0.7; stroke-width: 0.8; stroke-linecap: square"/>
   </g>
   <g id="patch_78">
    <path d="M 411.237209 550.8 
L 411.237209 437.776744 
" style="fill: none; stroke: #cccccc; stroke-width: 0.5; stroke-linejoin: miter; stroke-linecap: square"/>
   </g>
   <g id="patch_79">
    <path d="M 518.4 550.8 
L 518.4 437.776744 
" style="fill: none; stroke: #cccccc; stroke-width: 0.5; stroke-linejoin: miter; stroke-linecap: square"/>
   </g>
   <g id="patch_80">
    <path d="M 411.237209 550.8 
L 518.4 550.8 
" style="fill: none; stroke: #cccccc; stroke-width: 0.5; stroke-linejoin: miter; stroke-linecap: square"/>
   </g>
   <g id="patch_81">
    <path d="M 411.237209 437.776744 
L 518.4 437.776744 
" style="fill: none; stroke: #cccccc; stroke-width: 0.5; stroke-linejoin: miter; stroke-linecap: square"/>
   </g>
  </g>
  <g id="axes_17">
   <g id="patch_82">
    <path d="M 668.16 550.8 
L 1094.4 550.8 
L 1094.4 64.8 
L 668.16 64.8 
z
" style="fill: #ffffff"/>
   </g>
   <g id="matplotlib.axis_33">
    <g id="text_1">
     <!-- time -->
     <g transform="translate(866.033437 563.918125) scale(0.12 -0.12)">
      <defs>
       <path id="DejaVuSans-Bold-74" d="M 1759 4494 
L 1759 3500 
L 2913 3500 
L 2913 2700 
L 1759 2700 
L 1759 1216 
Q 1759 972 1856 886 
Q 1953 800 2241 800 
L 2816 800 
L 2816 0 
L 1856 0 
Q 1194 0 917 276 
Q 641 553 641 1216 
L 641 2700 
L 84 2700 
L 84 3500 
L 641 3500 
L 641 4494 
L 1759 4494 
z
" transform="scale(0.015625)"/>
       <path id="DejaVuSans-Bold-69" d="M 538 3500 
L 1656 3500 
L 1656 0 
L 538 0 
L 538 3500 
z
M 538 4863 
L 1656 4863 
L 1656 3950 
L 538 3950 
L 538 4863 
z
" transform="scale(0.015625)"/>
       <path id="DejaVuSans-Bold-6d" d="M 3781 2919 
Q 3994 3244 4286 3414 
Q 4578 3584 4928 3584 
Q 5531 3584 5847 3212 
Q 6163 2841 6163 2131 
L 6163 0 
L 5038 0 
L 5038 1825 
Q 5041 1866 5042 1909 
Q 5044 1953 5044 2034 
Q 5044 2406 4934 2573 
Q 4825 2741 4581 2741 
Q 4263 2741 4089 2478 
Q 3916 2216 3909 1719 
L 3909 0 
L 2784 0 
L 2784 1825 
Q 2784 2406 2684 2573 
Q 2584 2741 2328 2741 
Q 2006 2741 1831 2477 
Q 1656 2213 1656 1722 
L 1656 0 
L 531 0 
L 531 3500 
L 1656 3500 
L 1656 2988 
Q 1863 3284 2130 3434 
Q 2397 3584 2719 3584 
Q 3081 3584 3359 3409 
Q 3638 3234 3781 2919 
z
" transform="scale(0.015625)"/>
       <path id="DejaVuSans-Bold-65" d="M 4031 1759 
L 4031 1441 
L 1416 1441 
Q 1456 1047 1700 850 
Q 1944 653 2381 653 
Q 2734 653 3104 758 
Q 3475 863 3866 1075 
L 3866 213 
Q 3469 63 3072 -14 
Q 2675 -91 2278 -91 
Q 1328 -91 801 392 
Q 275 875 275 1747 
Q 275 2603 792 3093 
Q 1309 3584 2216 3584 
Q 3041 3584 3536 3087 
Q 4031 2591 4031 1759 
z
M 2881 2131 
Q 2881 2450 2695 2645 
Q 2509 2841 2209 2841 
Q 1884 2841 1681 2658 
Q 1478 2475 1428 2131 
L 2881 2131 
z
" transform="scale(0.015625)"/>
      </defs>
      <use xlink:href="#DejaVuSans-Bold-74"/>
      <use xlink:href="#DejaVuSans-Bold-69" transform="translate(47.802734 0)"/>
      <use xlink:href="#DejaVuSans-Bold-6d" transform="translate(82.080078 0)"/>
      <use xlink:href="#DejaVuSans-Bold-65" transform="translate(186.279297 0)"/>
     </g>
    </g>
   </g>
   <g id="matplotlib.axis_34">
    <g id="ytick_1">
     <g id="line2d_33">
      <path d="M 668.16 550.8 
L 1094.4 550.8 
" clip-path="url(#p157afe8490)" style="fill: none; stroke: #cccccc; stroke-opacity: 0.5; stroke-width: 0.8; stroke-linecap: square"/>
     </g>
     <g id="line2d_34">
      <defs>
       <path id="m5b3bcf92f2" d="M 0 0 
L -3.5 0 
" style="stroke: #000000; stroke-width: 0.8"/>
      </defs>
      <g>
       <use xlink:href="#m5b3bcf92f2" x="668.16" y="550.8" style="stroke: #000000; stroke-width: 0.8"/>
      </g>
     </g>
     <g id="text_2">
      <!-- 0 -->
      <g transform="translate(654.7975 554.599219) scale(0.1 -0.1)">
       <defs>
        <path id="DejaVuSans-30" d="M 2034 4250 
Q 1547 4250 1301 3770 
Q 1056 3291 1056 2328 
Q 1056 1369 1301 889 
Q 1547 409 2034 409 
Q 2525 409 2770 889 
Q 3016 1369 3016 2328 
Q 3016 3291 2770 3770 
Q 2525 4250 2034 4250 
z
M 2034 4750 
Q 2819 4750 3233 4129 
Q 3647 3509 3647 2328 
Q 3647 1150 3233 529 
Q 2819 -91 2034 -91 
Q 1250 -91 836 529 
Q 422 1150 422 2328 
Q 422 3509 836 4129 
Q 1250 4750 2034 4750 
z
" transform="scale(0.015625)"/>
       </defs>
       <use xlink:href="#DejaVuSans-30"/>
      </g>
     </g>
    </g>
    <g id="ytick_2">
     <g id="line2d_35">
      <path d="M 668.16 453.6 
L 1094.4 453.6 
" clip-path="url(#p157afe8490)" style="fill: none; stroke: #cccccc; stroke-opacity: 0.5; stroke-width: 0.8; stroke-linecap: square"/>
     </g>
     <g id="line2d_36">
      <g>
       <use xlink:href="#m5b3bcf92f2" x="668.16" y="453.6" style="stroke: #000000; stroke-width: 0.8"/>
      </g>
     </g>
     <g id="text_3">
      <!-- 1.8M -->
      <g transform="translate(636.62875 457.399219) scale(0.1 -0.1)">
       <defs>
        <path id="DejaVuSans-31" d="M 794 531 
L 1825 531 
L 1825 4091 
L 703 3866 
L 703 4441 
L 1819 4666 
L 2450 4666 
L 2450 531 
L 3481 531 
L 3481 0 
L 794 0 
L 794 531 
z
" transform="scale(0.015625)"/>
        <path id="DejaVuSans-2e" d="M 684 794 
L 1344 794 
L 1344 0 
L 684 0 
L 684 794 
z
" transform="scale(0.015625)"/>
        <path id="DejaVuSans-38" d="M 2034 2216 
Q 1584 2216 1326 1975 
Q 1069 1734 1069 1313 
Q 1069 891 1326 650 
Q 1584 409 2034 409 
Q 2484 409 2743 651 
Q 3003 894 3003 1313 
Q 3003 1734 2745 1975 
Q 2488 2216 2034 2216 
z
M 1403 2484 
Q 997 2584 770 2862 
Q 544 3141 544 3541 
Q 544 4100 942 4425 
Q 1341 4750 2034 4750 
Q 2731 4750 3128 4425 
Q 3525 4100 3525 3541 
Q 3525 3141 3298 2862 
Q 3072 2584 2669 2484 
Q 3125 2378 3379 2068 
Q 3634 1759 3634 1313 
Q 3634 634 3220 271 
Q 2806 -91 2034 -91 
Q 1263 -91 848 271 
Q 434 634 434 1313 
Q 434 1759 690 2068 
Q 947 2378 1403 2484 
z
M 1172 3481 
Q 1172 3119 1398 2916 
Q 1625 2713 2034 2713 
Q 2441 2713 2670 2916 
Q 2900 3119 2900 3481 
Q 2900 3844 2670 4047 
Q 2441 4250 2034 4250 
Q 1625 4250 1398 4047 
Q 1172 3844 1172 3481 
z
" transform="scale(0.015625)"/>
        <path id="DejaVuSans-4d" d="M 628 4666 
L 1569 4666 
L 2759 1491 
L 3956 4666 
L 4897 4666 
L 4897 0 
L 4281 0 
L 4281 4097 
L 3078 897 
L 2444 897 
L 1241 4097 
L 1241 0 
L 628 0 
L 628 4666 
z
" transform="scale(0.015625)"/>
       </defs>
       <use xlink:href="#DejaVuSans-31"/>
       <use xlink:href="#DejaVuSans-2e" transform="translate(63.623047 0)"/>
       <use xlink:href="#DejaVuSans-38" transform="translate(95.410156 0)"/>
       <use xlink:href="#DejaVuSans-4d" transform="translate(159.033203 0)"/>
      </g>
     </g>
    </g>
    <g id="ytick_3">
     <g id="line2d_37">
      <path d="M 668.16 356.4 
L 1094.4 356.4 
" clip-path="url(#p157afe8490)" style="fill: none; stroke: #cccccc; stroke-opacity: 0.5; stroke-width: 0.8; stroke-linecap: square"/>
     </g>
     <g id="line2d_38">
      <g>
       <use xlink:href="#m5b3bcf92f2" x="668.16" y="356.4" style="stroke: #000000; stroke-width: 0.8"/>
      </g>
     </g>
     <g id="text_4">
      <!-- 3.6M -->
      <g transform="translate(636.62875 360.199219) scale(0.1 -0.1)">
       <defs>
        <path id="DejaVuSans-33" d="M 2597 2516 
Q 3050 2419 3304 2112 
Q 3559 1806 3559 1356 
Q 3559 666 3084 287 
Q 2609 -91 1734 -91 
Q 1441 -91 1130 -33 
Q 819 25 488 141 
L 488 750 
Q 750 597 1062 519 
Q 1375 441 1716 441 
Q 2309 441 2620 675 
Q 2931 909 2931 1356 
Q 2931 1769 2642 2001 
Q 2353 2234 1838 2234 
L 1294 2234 
L 1294 2753 
L 1863 2753 
Q 2328 2753 2575 2939 
Q 2822 3125 2822 3475 
Q 2822 3834 2567 4026 
Q 2313 4219 1838 4219 
Q 1578 4219 1281 4162 
Q 984 4106 628 3988 
L 628 4550 
Q 988 4650 1302 4700 
Q 1616 4750 1894 4750 
Q 2613 4750 3031 4423 
Q 3450 4097 3450 3541 
Q 3450 3153 3228 2886 
Q 3006 2619 2597 2516 
z
" transform="scale(0.015625)"/>
        <path id="DejaVuSans-36" d="M 2113 2584 
Q 1688 2584 1439 2293 
Q 1191 2003 1191 1497 
Q 1191 994 1439 701 
Q 1688 409 2113 409 
Q 2538 409 2786 701 
Q 3034 994 3034 1497 
Q 3034 2003 2786 2293 
Q 2538 2584 2113 2584 
z
M 3366 4563 
L 3366 3988 
Q 3128 4100 2886 4159 
Q 2644 4219 2406 4219 
Q 1781 4219 1451 3797 
Q 1122 3375 1075 2522 
Q 1259 2794 1537 2939 
Q 1816 3084 2150 3084 
Q 2853 3084 3261 2657 
Q 3669 2231 3669 1497 
Q 3669 778 3244 343 
Q 2819 -91 2113 -91 
Q 1303 -91 875 529 
Q 447 1150 447 2328 
Q 447 3434 972 4092 
Q 1497 4750 2381 4750 
Q 2619 4750 2861 4703 
Q 3103 4656 3366 4563 
z
" transform="scale(0.015625)"/>
       </defs>
       <use xlink:href="#DejaVuSans-33"/>
       <use xlink:href="#DejaVuSans-2e" transform="translate(63.623047 0)"/>
       <use xlink:href="#DejaVuSans-36" transform="translate(95.410156 0)"/>
       <use xlink:href="#DejaVuSans-4d" transform="translate(159.033203 0)"/>
      </g>
     </g>
    </g>
    <g id="ytick_4">
     <g id="line2d_39">
      <path d="M 668.16 259.2 
L 1094.4 259.2 
" clip-path="url(#p157afe8490)" style="fill: none; stroke: #cccccc; stroke-opacity: 0.5; stroke-width: 0.8; stroke-linecap: square"/>
     </g>
     <g id="line2d_40">
      <g>
       <use xlink:href="#m5b3bcf92f2" x="668.16" y="259.2" style="stroke: #000000; stroke-width: 0.8"/>
      </g>
     </g>
     <g id="text_5">
      <!-- 5.4M -->
      <g transform="translate(636.62875 262.999219) scale(0.1 -0.1)">
       <defs>
        <path id="DejaVuSans-35" d="M 691 4666 
L 3169 4666 
L 3169 4134 
L 1269 4134 
L 1269 2991 
Q 1406 3038 1543 3061 
Q 1681 3084 1819 3084 
Q 2600 3084 3056 2656 
Q 3513 2228 3513 1497 
Q 3513 744 3044 326 
Q 2575 -91 1722 -91 
Q 1428 -91 1123 -41 
Q 819 9 494 109 
L 494 744 
Q 775 591 1075 516 
Q 1375 441 1709 441 
Q 2250 441 2565 725 
Q 2881 1009 2881 1497 
Q 2881 1984 2565 2268 
Q 2250 2553 1709 2553 
Q 1456 2553 1204 2497 
Q 953 2441 691 2322 
L 691 4666 
z
" transform="scale(0.015625)"/>
        <path id="DejaVuSans-34" d="M 2419 4116 
L 825 1625 
L 2419 1625 
L 2419 4116 
z
M 2253 4666 
L 3047 4666 
L 3047 1625 
L 3713 1625 
L 3713 1100 
L 3047 1100 
L 3047 0 
L 2419 0 
L 2419 1100 
L 313 1100 
L 313 1709 
L 2253 4666 
z
" transform="scale(0.015625)"/>
       </defs>
       <use xlink:href="#DejaVuSans-35"/>
       <use xlink:href="#DejaVuSans-2e" transform="translate(63.623047 0)"/>
       <use xlink:href="#DejaVuSans-34" transform="translate(95.410156 0)"/>
       <use xlink:href="#DejaVuSans-4d" transform="translate(159.033203 0)"/>
      </g>
     </g>
    </g>
    <g id="ytick_5">
     <g id="line2d_41">
      <path d="M 668.16 162 
L 1094.4 162 
" clip-path="url(#p157afe8490)" style="fill: none; stroke: #cccccc; stroke-opacity: 0.5; stroke-width: 0.8; stroke-linecap: square"/>
     </g>
     <g id="line2d_42">
      <g>
       <use xlink:href="#m5b3bcf92f2" x="668.16" y="162" style="stroke: #000000; stroke-width: 0.8"/>
      </g>
     </g>
     <g id="text_6">
      <!-- 7.2M -->
      <g transform="translate(636.62875 165.799219) scale(0.1 -0.1)">
       <defs>
        <path id="DejaVuSans-37" d="M 525 4666 
L 3525 4666 
L 3525 4397 
L 1831 0 
L 1172 0 
L 2766 4134 
L 525 4134 
L 525 4666 
z
" transform="scale(0.015625)"/>
        <path id="DejaVuSans-32" d="M 1228 531 
L 3431 531 
L 3431 0 
L 469 0 
L 469 531 
Q 828 903 1448 1529 
Q 2069 2156 2228 2338 
Q 2531 2678 2651 2914 
Q 2772 3150 2772 3378 
Q 2772 3750 2511 3984 
Q 2250 4219 1831 4219 
Q 1534 4219 1204 4116 
Q 875 4013 500 3803 
L 500 4441 
Q 881 4594 1212 4672 
Q 1544 4750 1819 4750 
Q 2544 4750 2975 4387 
Q 3406 4025 3406 3419 
Q 3406 3131 3298 2873 
Q 3191 2616 2906 2266 
Q 2828 2175 2409 1742 
Q 1991 1309 1228 531 
z
" transform="scale(0.015625)"/>
       </defs>
       <use xlink:href="#DejaVuSans-37"/>
       <use xlink:href="#DejaVuSans-2e" transform="translate(63.623047 0)"/>
       <use xlink:href="#DejaVuSans-32" transform="translate(95.410156 0)"/>
       <use xlink:href="#DejaVuSans-4d" transform="translate(159.033203 0)"/>
      </g>
     </g>
    </g>
    <g id="ytick_6">
     <g id="line2d_43">
      <path d="M 668.16 64.8 
L 1094.4 64.8 
" clip-path="url(#p157afe8490)" style="fill: none; stroke: #cccccc; stroke-opacity: 0.5; stroke-width: 0.8; stroke-linecap: square"/>
     </g>
     <g id="line2d_44">
      <g>
       <use xlink:href="#m5b3bcf92f2" x="668.16" y="64.8" style="stroke: #000000; stroke-width: 0.8"/>
      </g>
     </g>
     <g id="text_7">
      <!-- 9.0M -->
      <g transform="translate(636.62875 68.599219) scale(0.1 -0.1)">
       <defs>
        <path id="DejaVuSans-39" d="M 703 97 
L 703 672 
Q 941 559 1184 500 
Q 1428 441 1663 441 
Q 2288 441 2617 861 
Q 2947 1281 2994 2138 
Q 2813 1869 2534 1725 
Q 2256 1581 1919 1581 
Q 1219 1581 811 2004 
Q 403 2428 403 3163 
Q 403 3881 828 4315 
Q 1253 4750 1959 4750 
Q 2769 4750 3195 4129 
Q 3622 3509 3622 2328 
Q 3622 1225 3098 567 
Q 2575 -91 1691 -91 
Q 1453 -91 1209 -44 
Q 966 3 703 97 
z
M 1959 2075 
Q 2384 2075 2632 2365 
Q 2881 2656 2881 3163 
Q 2881 3666 2632 3958 
Q 2384 4250 1959 4250 
Q 1534 4250 1286 3958 
Q 1038 3666 1038 3163 
Q 1038 2656 1286 2365 
Q 1534 2075 1959 2075 
z
" transform="scale(0.015625)"/>
       </defs>
       <use xlink:href="#DejaVuSans-39"/>
       <use xlink:href="#DejaVuSans-2e" transform="translate(63.623047 0)"/>
       <use xlink:href="#DejaVuSans-30" transform="translate(95.410156 0)"/>
       <use xlink:href="#DejaVuSans-4d" transform="translate(159.033203 0)"/>
      </g>
     </g>
    </g>
    <g id="text_8">
     <!-- msgs/s -->
     <g transform="translate(624.039375 331.251562) rotate(-90) scale(0.12 -0.12)">
      <defs>
       <path id="DejaVuSans-Bold-73" d="M 3272 3391 
L 3272 2541 
Q 2913 2691 2578 2766 
Q 2244 2841 1947 2841 
Q 1628 2841 1473 2761 
Q 1319 2681 1319 2516 
Q 1319 2381 1436 2309 
Q 1553 2238 1856 2203 
L 2053 2175 
Q 2913 2066 3209 1816 
Q 3506 1566 3506 1031 
Q 3506 472 3093 190 
Q 2681 -91 1863 -91 
Q 1516 -91 1145 -36 
Q 775 19 384 128 
L 384 978 
Q 719 816 1070 734 
Q 1422 653 1784 653 
Q 2113 653 2278 743 
Q 2444 834 2444 1013 
Q 2444 1163 2330 1236 
Q 2216 1309 1875 1350 
L 1678 1375 
Q 931 1469 631 1722 
Q 331 1975 331 2491 
Q 331 3047 712 3315 
Q 1094 3584 1881 3584 
Q 2191 3584 2531 3537 
Q 2872 3491 3272 3391 
z
" transform="scale(0.015625)"/>
       <path id="DejaVuSans-Bold-67" d="M 2919 594 
Q 2688 288 2409 144 
Q 2131 0 1766 0 
Q 1125 0 706 504 
Q 288 1009 288 1791 
Q 288 2575 706 3076 
Q 1125 3578 1766 3578 
Q 2131 3578 2409 3434 
Q 2688 3291 2919 2981 
L 2919 3500 
L 4044 3500 
L 4044 353 
Q 4044 -491 3511 -936 
Q 2978 -1381 1966 -1381 
Q 1638 -1381 1331 -1331 
Q 1025 -1281 716 -1178 
L 716 -306 
Q 1009 -475 1290 -558 
Q 1572 -641 1856 -641 
Q 2406 -641 2662 -400 
Q 2919 -159 2919 353 
L 2919 594 
z
M 2181 2772 
Q 1834 2772 1640 2515 
Q 1447 2259 1447 1791 
Q 1447 1309 1634 1061 
Q 1822 813 2181 813 
Q 2531 813 2725 1069 
Q 2919 1325 2919 1791 
Q 2919 2259 2725 2515 
Q 2531 2772 2181 2772 
z
" transform="scale(0.015625)"/>
       <path id="DejaVuSans-Bold-2f" d="M 1644 4666 
L 2338 4666 
L 691 -594 
L 0 -594 
L 1644 4666 
z
" transform="scale(0.015625)"/>
      </defs>
      <use xlink:href="#DejaVuSans-Bold-6d"/>
      <use xlink:href="#DejaVuSans-Bold-73" transform="translate(104.199219 0)"/>
      <use xlink:href="#DejaVuSans-Bold-67" transform="translate(163.720703 0)"/>
      <use xlink:href="#DejaVuSans-Bold-73" transform="translate(235.302734 0)"/>
      <use xlink:href="#DejaVuSans-Bold-2f" transform="translate(294.824219 0)"/>
      <use xlink:href="#DejaVuSans-Bold-73" transform="translate(331.347656 0)"/>
     </g>
    </g>
   </g>
   <g id="line2d_45">
    <path d="M 687.534545 484.945258 
L 691.448595 493.679291 
L 695.362645 498.448443 
L 699.276694 492.326538 
L 703.190744 488.208761 
L 707.104793 478.987332 
L 711.018843 470.013049 
L 714.932893 468.972915 
L 718.846942 460.613782 
L 722.760992 460.996805 
L 726.675041 479.791381 
L 730.589091 471.421213 
L 734.50314 467.858497 
L 738.41719 489.585502 
L 742.33124 498.070194 
L 746.245289 490.607099 
L 750.159339 472.206563 
L 754.073388 466.246225 
L 757.987438 465.787965 
L 761.901488 484.313581 
L 765.815537 497.834126 
L 769.729587 498.648243 
L 773.643636 499.816143 
L 777.557686 499.738846 
L 781.471736 500.010232 
L 785.385785 500.792842 
L 789.299835 498.583756 
L 793.213884 499.118528 
L 797.127934 499.39192 
L 801.041983 499.990887 
L 804.956033 500.001962 
L 808.870083 500.379311 
L 812.784132 498.928708 
L 816.698182 488.822234 
L 820.612231 446.279259 
L 824.526281 472.916649 
L 828.440331 485.905385 
L 832.35438 473.408005 
L 836.26843 493.324591 
L 840.182479 479.192424 
L 844.096529 500.810322 
L 848.010579 495.91464 
L 851.924628 487.716002 
L 855.838678 466.711075 
L 859.752727 450.40391 
L 863.666777 455.104296 
L 867.580826 476.257945 
L 871.494876 493.607493 
L 875.408926 500.579164 
L 879.322975 499.679485 
L 883.237025 501.046801 
L 887.151074 498.993409 
L 891.065124 482.937587 
L 894.979174 489.061163 
L 898.893223 499.62111 
L 902.807273 489.103204 
L 906.721322 483.546249 
L 910.635372 485.235522 
L 914.549421 483.452378 
L 918.463471 485.802341 
L 922.377521 472.848184 
L 926.29157 470.845294 
L 930.20562 485.147769 
L 934.119669 490.565298 
L 938.033719 482.059454 
L 941.947769 492.612996 
L 945.861818 478.877063 
L 949.775868 477.606155 
L 953.689917 485.946409 
L 957.603967 488.82754 
L 961.518017 480.314238 
L 965.432066 476.087646 
L 969.346116 483.766202 
L 973.260165 467.750249 
L 977.174215 479.294648 
L 981.088264 478.969694 
L 985.002314 487.328472 
L 988.916364 447.723786 
L 992.830413 479.435163 
L 996.744463 478.962793 
L 1000.658512 500.857738 
L 1004.572562 485.360124 
L 1008.486612 502.369732 
L 1012.400661 496.849141 
L 1016.314711 491.931016 
L 1020.22876 459.856266 
L 1024.14281 490.451651 
L 1028.05686 497.335073 
L 1031.970909 473.808923 
L 1035.884959 476.883315 
L 1039.799008 481.218963 
L 1043.713058 491.197912 
L 1047.627107 498.760198 
L 1051.541157 499.895435 
L 1055.455207 489.991873 
L 1059.369256 473.339067 
L 1063.283306 480.471774 
L 1067.197355 486.751017 
L 1071.111405 492.009152 
L 1075.025455 495.879238 
" clip-path="url(#p157afe8490)" style="fill: none; stroke: #4a2e83; stroke-width: 2; stroke-linecap: square"/>
   </g>
   <g id="line2d_46">
    <path d="M 668.16 502.369732 
L 1094.4 502.369732 
" clip-path="url(#p157afe8490)" style="fill: none; stroke-dasharray: 5.55,2.4; stroke-dashoffset: 0; stroke: #777777; stroke-opacity: 0.7; stroke-width: 1.5"/>
   </g>
   <g id="line2d_47">
    <path d="M 668.16 446.279259 
L 1094.4 446.279259 
" clip-path="url(#p157afe8490)" style="fill: none; stroke-dasharray: 5.55,2.4; stroke-dashoffset: 0; stroke: #777777; stroke-opacity: 0.7; stroke-width: 1.5"/>
   </g>
   <g id="line2d_48">
    <path d="M 668.16 484.919352 
L 1094.4 484.919352 
" clip-path="url(#p157afe8490)" style="fill: none; stroke: #999999; stroke-opacity: 0.7; stroke-width: 1.5; stroke-linecap: square"/>
   </g>
   <g id="patch_83">
    <path d="M 668.16 550.8 
L 668.16 64.8 
" style="fill: none; stroke: #000000; stroke-width: 0.8; stroke-linejoin: miter; stroke-linecap: square"/>
   </g>
   <g id="patch_84">
    <path d="M 1094.4 550.8 
L 1094.4 64.8 
" style="fill: none; stroke: #000000; stroke-width: 0.8; stroke-linejoin: miter; stroke-linecap: square"/>
   </g>
   <g id="patch_85">
    <path d="M 668.16 550.8 
L 1094.4 550.8 
" style="fill: none; stroke: #000000; stroke-width: 0.8; stroke-linejoin: miter; stroke-linecap: square"/>
   </g>
   <g id="patch_86">
    <path d="M 668.16 64.8 
L 1094.4 64.8 
" style="fill: none; stroke: #000000; stroke-width: 0.8; stroke-linejoin: miter; stroke-linecap: square"/>
   </g>
  </g>
  <g id="text_9">
   <!-- Effect of aggregating decorrelated workloads on net system load (n=16) -->
   <g transform="translate(165.295312 21.676875) scale(0.2 -0.2)">
    <defs>
     <path id="DejaVuSans-Bold-45" d="M 588 4666 
L 3834 4666 
L 3834 3756 
L 1791 3756 
L 1791 2888 
L 3713 2888 
L 3713 1978 
L 1791 1978 
L 1791 909 
L 3903 909 
L 3903 0 
L 588 0 
L 588 4666 
z
" transform="scale(0.015625)"/>
     <path id="DejaVuSans-Bold-66" d="M 2841 4863 
L 2841 4128 
L 2222 4128 
Q 1984 4128 1890 4042 
Q 1797 3956 1797 3744 
L 1797 3500 
L 2753 3500 
L 2753 2700 
L 1797 2700 
L 1797 0 
L 678 0 
L 678 2700 
L 122 2700 
L 122 3500 
L 678 3500 
L 678 3744 
Q 678 4316 997 4589 
Q 1316 4863 1984 4863 
L 2841 4863 
z
" transform="scale(0.015625)"/>
     <path id="DejaVuSans-Bold-63" d="M 3366 3391 
L 3366 2478 
Q 3138 2634 2908 2709 
Q 2678 2784 2431 2784 
Q 1963 2784 1702 2511 
Q 1441 2238 1441 1747 
Q 1441 1256 1702 982 
Q 1963 709 2431 709 
Q 2694 709 2930 787 
Q 3166 866 3366 1019 
L 3366 103 
Q 3103 6 2833 -42 
Q 2563 -91 2291 -91 
Q 1344 -91 809 395 
Q 275 881 275 1747 
Q 275 2613 809 3098 
Q 1344 3584 2291 3584 
Q 2566 3584 2833 3536 
Q 3100 3488 3366 3391 
z
" transform="scale(0.015625)"/>
     <path id="DejaVuSans-Bold-20" transform="scale(0.015625)"/>
     <path id="DejaVuSans-Bold-6f" d="M 2203 2784 
Q 1831 2784 1636 2517 
Q 1441 2250 1441 1747 
Q 1441 1244 1636 976 
Q 1831 709 2203 709 
Q 2569 709 2762 976 
Q 2956 1244 2956 1747 
Q 2956 2250 2762 2517 
Q 2569 2784 2203 2784 
z
M 2203 3584 
Q 3106 3584 3614 3096 
Q 4122 2609 4122 1747 
Q 4122 884 3614 396 
Q 3106 -91 2203 -91 
Q 1297 -91 786 396 
Q 275 884 275 1747 
Q 275 2609 786 3096 
Q 1297 3584 2203 3584 
z
" transform="scale(0.015625)"/>
     <path id="DejaVuSans-Bold-61" d="M 2106 1575 
Q 1756 1575 1579 1456 
Q 1403 1338 1403 1106 
Q 1403 894 1545 773 
Q 1688 653 1941 653 
Q 2256 653 2472 879 
Q 2688 1106 2688 1447 
L 2688 1575 
L 2106 1575 
z
M 3816 1997 
L 3816 0 
L 2688 0 
L 2688 519 
Q 2463 200 2181 54 
Q 1900 -91 1497 -91 
Q 953 -91 614 226 
Q 275 544 275 1050 
Q 275 1666 698 1953 
Q 1122 2241 2028 2241 
L 2688 2241 
L 2688 2328 
Q 2688 2594 2478 2717 
Q 2269 2841 1825 2841 
Q 1466 2841 1156 2769 
Q 847 2697 581 2553 
L 581 3406 
Q 941 3494 1303 3539 
Q 1666 3584 2028 3584 
Q 2975 3584 3395 3211 
Q 3816 2838 3816 1997 
z
" transform="scale(0.015625)"/>
     <path id="DejaVuSans-Bold-72" d="M 3138 2547 
Q 2991 2616 2845 2648 
Q 2700 2681 2553 2681 
Q 2122 2681 1889 2404 
Q 1656 2128 1656 1613 
L 1656 0 
L 538 0 
L 538 3500 
L 1656 3500 
L 1656 2925 
Q 1872 3269 2151 3426 
Q 2431 3584 2822 3584 
Q 2878 3584 2943 3579 
Q 3009 3575 3134 3559 
L 3138 2547 
z
" transform="scale(0.015625)"/>
     <path id="DejaVuSans-Bold-6e" d="M 4056 2131 
L 4056 0 
L 2931 0 
L 2931 347 
L 2931 1631 
Q 2931 2084 2911 2256 
Q 2891 2428 2841 2509 
Q 2775 2619 2662 2680 
Q 2550 2741 2406 2741 
Q 2056 2741 1856 2470 
Q 1656 2200 1656 1722 
L 1656 0 
L 538 0 
L 538 3500 
L 1656 3500 
L 1656 2988 
Q 1909 3294 2193 3439 
Q 2478 3584 2822 3584 
Q 3428 3584 3742 3212 
Q 4056 2841 4056 2131 
z
" transform="scale(0.015625)"/>
     <path id="DejaVuSans-Bold-64" d="M 2919 2988 
L 2919 4863 
L 4044 4863 
L 4044 0 
L 2919 0 
L 2919 506 
Q 2688 197 2409 53 
Q 2131 -91 1766 -91 
Q 1119 -91 703 423 
Q 288 938 288 1747 
Q 288 2556 703 3070 
Q 1119 3584 1766 3584 
Q 2128 3584 2408 3439 
Q 2688 3294 2919 2988 
z
M 2181 722 
Q 2541 722 2730 984 
Q 2919 1247 2919 1747 
Q 2919 2247 2730 2509 
Q 2541 2772 2181 2772 
Q 1825 2772 1636 2509 
Q 1447 2247 1447 1747 
Q 1447 1247 1636 984 
Q 1825 722 2181 722 
z
" transform="scale(0.015625)"/>
     <path id="DejaVuSans-Bold-6c" d="M 538 4863 
L 1656 4863 
L 1656 0 
L 538 0 
L 538 4863 
z
" transform="scale(0.015625)"/>
     <path id="DejaVuSans-Bold-77" d="M 225 3500 
L 1313 3500 
L 1900 1088 
L 2491 3500 
L 3425 3500 
L 4013 1113 
L 4603 3500 
L 5691 3500 
L 4769 0 
L 3547 0 
L 2956 2406 
L 2369 0 
L 1147 0 
L 225 3500 
z
" transform="scale(0.015625)"/>
     <path id="DejaVuSans-Bold-6b" d="M 538 4863 
L 1656 4863 
L 1656 2216 
L 2944 3500 
L 4244 3500 
L 2534 1894 
L 4378 0 
L 3022 0 
L 1656 1459 
L 1656 0 
L 538 0 
L 538 4863 
z
" transform="scale(0.015625)"/>
     <path id="DejaVuSans-Bold-79" d="M 78 3500 
L 1197 3500 
L 2138 1125 
L 2938 3500 
L 4056 3500 
L 2584 -331 
Q 2363 -916 2067 -1148 
Q 1772 -1381 1288 -1381 
L 641 -1381 
L 641 -647 
L 991 -647 
Q 1275 -647 1404 -556 
Q 1534 -466 1606 -231 
L 1638 -134 
L 78 3500 
z
" transform="scale(0.015625)"/>
     <path id="DejaVuSans-Bold-28" d="M 2413 -844 
L 1484 -844 
Q 1006 -72 778 623 
Q 550 1319 550 2003 
Q 550 2688 779 3389 
Q 1009 4091 1484 4856 
L 2413 4856 
Q 2013 4116 1813 3408 
Q 1613 2700 1613 2009 
Q 1613 1319 1811 609 
Q 2009 -100 2413 -844 
z
" transform="scale(0.015625)"/>
     <path id="DejaVuSans-Bold-3d" d="M 678 3084 
L 4684 3084 
L 4684 2350 
L 678 2350 
L 678 3084 
z
M 678 1663 
L 4684 1663 
L 4684 922 
L 678 922 
L 678 1663 
z
" transform="scale(0.015625)"/>
     <path id="DejaVuSans-Bold-31" d="M 750 831 
L 1813 831 
L 1813 3847 
L 722 3622 
L 722 4441 
L 1806 4666 
L 2950 4666 
L 2950 831 
L 4013 831 
L 4013 0 
L 750 0 
L 750 831 
z
" transform="scale(0.015625)"/>
     <path id="DejaVuSans-Bold-36" d="M 2316 2303 
Q 2000 2303 1842 2098 
Q 1684 1894 1684 1484 
Q 1684 1075 1842 870 
Q 2000 666 2316 666 
Q 2634 666 2792 870 
Q 2950 1075 2950 1484 
Q 2950 1894 2792 2098 
Q 2634 2303 2316 2303 
z
M 3803 4544 
L 3803 3681 
Q 3506 3822 3243 3889 
Q 2981 3956 2731 3956 
Q 2194 3956 1894 3657 
Q 1594 3359 1544 2772 
Q 1750 2925 1990 3001 
Q 2231 3078 2516 3078 
Q 3231 3078 3670 2659 
Q 4109 2241 4109 1563 
Q 4109 813 3618 361 
Q 3128 -91 2303 -91 
Q 1394 -91 895 523 
Q 397 1138 397 2266 
Q 397 3422 980 4083 
Q 1563 4744 2578 4744 
Q 2900 4744 3203 4694 
Q 3506 4644 3803 4544 
z
" transform="scale(0.015625)"/>
     <path id="DejaVuSans-Bold-29" d="M 513 -844 
Q 913 -100 1113 609 
Q 1313 1319 1313 2009 
Q 1313 2700 1113 3408 
Q 913 4116 513 4856 
L 1441 4856 
Q 1916 4091 2145 3389 
Q 2375 2688 2375 2003 
Q 2375 1319 2147 623 
Q 1919 -72 1441 -844 
L 513 -844 
z
" transform="scale(0.015625)"/>
    </defs>
    <use xlink:href="#DejaVuSans-Bold-45"/>
    <use xlink:href="#DejaVuSans-Bold-66" transform="translate(68.310547 0)"/>
    <use xlink:href="#DejaVuSans-Bold-66" transform="translate(111.816406 0)"/>
    <use xlink:href="#DejaVuSans-Bold-65" transform="translate(155.322266 0)"/>
    <use xlink:href="#DejaVuSans-Bold-63" transform="translate(223.144531 0)"/>
    <use xlink:href="#DejaVuSans-Bold-74" transform="translate(282.421875 0)"/>
    <use xlink:href="#DejaVuSans-Bold-20" transform="translate(330.224609 0)"/>
    <use xlink:href="#DejaVuSans-Bold-6f" transform="translate(365.039062 0)"/>
    <use xlink:href="#DejaVuSans-Bold-66" transform="translate(433.740234 0)"/>
    <use xlink:href="#DejaVuSans-Bold-20" transform="translate(477.246094 0)"/>
    <use xlink:href="#DejaVuSans-Bold-61" transform="translate(512.060547 0)"/>
    <use xlink:href="#DejaVuSans-Bold-67" transform="translate(579.541016 0)"/>
    <use xlink:href="#DejaVuSans-Bold-67" transform="translate(651.123047 0)"/>
    <use xlink:href="#DejaVuSans-Bold-72" transform="translate(722.705078 0)"/>
    <use xlink:href="#DejaVuSans-Bold-65" transform="translate(772.021484 0)"/>
    <use xlink:href="#DejaVuSans-Bold-67" transform="translate(839.84375 0)"/>
    <use xlink:href="#DejaVuSans-Bold-61" transform="translate(911.425781 0)"/>
    <use xlink:href="#DejaVuSans-Bold-74" transform="translate(978.90625 0)"/>
    <use xlink:href="#DejaVuSans-Bold-69" transform="translate(1026.708984 0)"/>
    <use xlink:href="#DejaVuSans-Bold-6e" transform="translate(1060.986328 0)"/>
    <use xlink:href="#DejaVuSans-Bold-67" transform="translate(1132.177734 0)"/>
    <use xlink:href="#DejaVuSans-Bold-20" transform="translate(1203.759766 0)"/>
    <use xlink:href="#DejaVuSans-Bold-64" transform="translate(1238.574219 0)"/>
    <use xlink:href="#DejaVuSans-Bold-65" transform="translate(1310.15625 0)"/>
    <use xlink:href="#DejaVuSans-Bold-63" transform="translate(1377.978516 0)"/>
    <use xlink:href="#DejaVuSans-Bold-6f" transform="translate(1437.255859 0)"/>
    <use xlink:href="#DejaVuSans-Bold-72" transform="translate(1505.957031 0)"/>
    <use xlink:href="#DejaVuSans-Bold-72" transform="translate(1555.273438 0)"/>
    <use xlink:href="#DejaVuSans-Bold-65" transform="translate(1604.589844 0)"/>
    <use xlink:href="#DejaVuSans-Bold-6c" transform="translate(1672.412109 0)"/>
    <use xlink:href="#DejaVuSans-Bold-61" transform="translate(1706.689453 0)"/>
    <use xlink:href="#DejaVuSans-Bold-74" transform="translate(1774.169922 0)"/>
    <use xlink:href="#DejaVuSans-Bold-65" transform="translate(1821.972656 0)"/>
    <use xlink:href="#DejaVuSans-Bold-64" transform="translate(1889.794922 0)"/>
    <use xlink:href="#DejaVuSans-Bold-20" transform="translate(1961.376953 0)"/>
    <use xlink:href="#DejaVuSans-Bold-77" transform="translate(1996.191406 0)"/>
    <use xlink:href="#DejaVuSans-Bold-6f" transform="translate(2088.574219 0)"/>
    <use xlink:href="#DejaVuSans-Bold-72" transform="translate(2157.275391 0)"/>
    <use xlink:href="#DejaVuSans-Bold-6b" transform="translate(2206.591797 0)"/>
    <use xlink:href="#DejaVuSans-Bold-6c" transform="translate(2273.095703 0)"/>
    <use xlink:href="#DejaVuSans-Bold-6f" transform="translate(2307.373047 0)"/>
    <use xlink:href="#DejaVuSans-Bold-61" transform="translate(2376.074219 0)"/>
    <use xlink:href="#DejaVuSans-Bold-64" transform="translate(2443.554688 0)"/>
    <use xlink:href="#DejaVuSans-Bold-73" transform="translate(2515.136719 0)"/>
    <use xlink:href="#DejaVuSans-Bold-20" transform="translate(2574.658203 0)"/>
    <use xlink:href="#DejaVuSans-Bold-6f" transform="translate(2609.472656 0)"/>
    <use xlink:href="#DejaVuSans-Bold-6e" transform="translate(2678.173828 0)"/>
    <use xlink:href="#DejaVuSans-Bold-20" transform="translate(2749.365234 0)"/>
    <use xlink:href="#DejaVuSans-Bold-6e" transform="translate(2784.179688 0)"/>
    <use xlink:href="#DejaVuSans-Bold-65" transform="translate(2855.371094 0)"/>
    <use xlink:href="#DejaVuSans-Bold-74" transform="translate(2923.193359 0)"/>
    <use xlink:href="#DejaVuSans-Bold-20" transform="translate(2970.996094 0)"/>
    <use xlink:href="#DejaVuSans-Bold-73" transform="translate(3005.810547 0)"/>
    <use xlink:href="#DejaVuSans-Bold-79" transform="translate(3065.332031 0)"/>
    <use xlink:href="#DejaVuSans-Bold-73" transform="translate(3130.517578 0)"/>
    <use xlink:href="#DejaVuSans-Bold-74" transform="translate(3190.039062 0)"/>
    <use xlink:href="#DejaVuSans-Bold-65" transform="translate(3237.841797 0)"/>
    <use xlink:href="#DejaVuSans-Bold-6d" transform="translate(3305.664062 0)"/>
    <use xlink:href="#DejaVuSans-Bold-20" transform="translate(3409.863281 0)"/>
    <use xlink:href="#DejaVuSans-Bold-6c" transform="translate(3444.677734 0)"/>
    <use xlink:href="#DejaVuSans-Bold-6f" transform="translate(3478.955078 0)"/>
    <use xlink:href="#DejaVuSans-Bold-61" transform="translate(3547.65625 0)"/>
    <use xlink:href="#DejaVuSans-Bold-64" transform="translate(3615.136719 0)"/>
    <use xlink:href="#DejaVuSans-Bold-20" transform="translate(3686.71875 0)"/>
    <use xlink:href="#DejaVuSans-Bold-28" transform="translate(3721.533203 0)"/>
    <use xlink:href="#DejaVuSans-Bold-6e" transform="translate(3767.236328 0)"/>
    <use xlink:href="#DejaVuSans-Bold-3d" transform="translate(3838.427734 0)"/>
    <use xlink:href="#DejaVuSans-Bold-31" transform="translate(3922.216797 0)"/>
    <use xlink:href="#DejaVuSans-Bold-36" transform="translate(3991.796875 0)"/>
    <use xlink:href="#DejaVuSans-Bold-29" transform="translate(4061.376953 0)"/>
   </g>
  </g>
  <g id="text_10">
   <!-- Individual workloads -->
   <g transform="translate(205.992812 51.84) scale(0.14 -0.14)">
    <defs>
     <path id="DejaVuSans-Bold-49" d="M 588 4666 
L 1791 4666 
L 1791 0 
L 588 0 
L 588 4666 
z
" transform="scale(0.015625)"/>
     <path id="DejaVuSans-Bold-76" d="M 97 3500 
L 1216 3500 
L 2088 1081 
L 2956 3500 
L 4078 3500 
L 2700 0 
L 1472 0 
L 97 3500 
z
" transform="scale(0.015625)"/>
     <path id="DejaVuSans-Bold-75" d="M 500 1363 
L 500 3500 
L 1625 3500 
L 1625 3150 
Q 1625 2866 1622 2436 
Q 1619 2006 1619 1863 
Q 1619 1441 1641 1255 
Q 1663 1069 1716 984 
Q 1784 875 1895 815 
Q 2006 756 2150 756 
Q 2500 756 2700 1025 
Q 2900 1294 2900 1772 
L 2900 3500 
L 4019 3500 
L 4019 0 
L 2900 0 
L 2900 506 
Q 2647 200 2364 54 
Q 2081 -91 1741 -91 
Q 1134 -91 817 281 
Q 500 653 500 1363 
z
" transform="scale(0.015625)"/>
    </defs>
    <use xlink:href="#DejaVuSans-Bold-49"/>
    <use xlink:href="#DejaVuSans-Bold-6e" transform="translate(37.207031 0)"/>
    <use xlink:href="#DejaVuSans-Bold-64" transform="translate(108.398438 0)"/>
    <use xlink:href="#DejaVuSans-Bold-69" transform="translate(179.980469 0)"/>
    <use xlink:href="#DejaVuSans-Bold-76" transform="translate(214.257812 0)"/>
    <use xlink:href="#DejaVuSans-Bold-69" transform="translate(279.443359 0)"/>
    <use xlink:href="#DejaVuSans-Bold-64" transform="translate(313.720703 0)"/>
    <use xlink:href="#DejaVuSans-Bold-75" transform="translate(385.302734 0)"/>
    <use xlink:href="#DejaVuSans-Bold-61" transform="translate(456.494141 0)"/>
    <use xlink:href="#DejaVuSans-Bold-6c" transform="translate(523.974609 0)"/>
    <use xlink:href="#DejaVuSans-Bold-20" transform="translate(558.251953 0)"/>
    <use xlink:href="#DejaVuSans-Bold-77" transform="translate(593.066406 0)"/>
    <use xlink:href="#DejaVuSans-Bold-6f" transform="translate(685.449219 0)"/>
    <use xlink:href="#DejaVuSans-Bold-72" transform="translate(754.150391 0)"/>
    <use xlink:href="#DejaVuSans-Bold-6b" transform="translate(803.466797 0)"/>
    <use xlink:href="#DejaVuSans-Bold-6c" transform="translate(869.970703 0)"/>
    <use xlink:href="#DejaVuSans-Bold-6f" transform="translate(904.248047 0)"/>
    <use xlink:href="#DejaVuSans-Bold-61" transform="translate(972.949219 0)"/>
    <use xlink:href="#DejaVuSans-Bold-64" transform="translate(1040.429688 0)"/>
    <use xlink:href="#DejaVuSans-Bold-73" transform="translate(1112.011719 0)"/>
   </g>
  </g>
  <g id="text_11">
   <!-- Aggregate -->
   <g transform="translate(834.05375 51.84) scale(0.14 -0.14)">
    <defs>
     <path id="DejaVuSans-Bold-41" d="M 3419 850 
L 1538 850 
L 1241 0 
L 31 0 
L 1759 4666 
L 3194 4666 
L 4922 0 
L 3713 0 
L 3419 850 
z
M 1838 1716 
L 3116 1716 
L 2478 3572 
L 1838 1716 
z
" transform="scale(0.015625)"/>
    </defs>
    <use xlink:href="#DejaVuSans-Bold-41"/>
    <use xlink:href="#DejaVuSans-Bold-67" transform="translate(77.392578 0)"/>
    <use xlink:href="#DejaVuSans-Bold-67" transform="translate(148.974609 0)"/>
    <use xlink:href="#DejaVuSans-Bold-72" transform="translate(220.556641 0)"/>
    <use xlink:href="#DejaVuSans-Bold-65" transform="translate(269.873047 0)"/>
    <use xlink:href="#DejaVuSans-Bold-67" transform="translate(337.695312 0)"/>
    <use xlink:href="#DejaVuSans-Bold-61" transform="translate(409.277344 0)"/>
    <use xlink:href="#DejaVuSans-Bold-74" transform="translate(476.757812 0)"/>
    <use xlink:href="#DejaVuSans-Bold-65" transform="translate(524.560547 0)"/>
   </g>
  </g>
 </g>
 <defs>
  <clipPath id="p89eb1b0437">
   <rect x="57.6" y="64.8" width="107.162791" height="113.023256"/>
  </clipPath>
  <clipPath id="p20fc9984f4">
   <rect x="175.47907" y="64.8" width="107.162791" height="113.023256"/>
  </clipPath>
  <clipPath id="p60fbb0dbda">
   <rect x="293.35814" y="64.8" width="107.162791" height="113.023256"/>
  </clipPath>
  <clipPath id="p5567e9af1a">
   <rect x="411.237209" y="64.8" width="107.162791" height="113.023256"/>
  </clipPath>
  <clipPath id="pcf856870b8">
   <rect x="57.6" y="189.125581" width="107.162791" height="113.023256"/>
  </clipPath>
  <clipPath id="p1e76699c21">
   <rect x="175.47907" y="189.125581" width="107.162791" height="113.023256"/>
  </clipPath>
  <clipPath id="p299e813d06">
   <rect x="293.35814" y="189.125581" width="107.162791" height="113.023256"/>
  </clipPath>
  <clipPath id="pb302293dbb">
   <rect x="411.237209" y="189.125581" width="107.162791" height="113.023256"/>
  </clipPath>
  <clipPath id="p072270fa31">
   <rect x="57.6" y="313.451163" width="107.162791" height="113.023256"/>
  </clipPath>
  <clipPath id="pc684edcb40">
   <rect x="175.47907" y="313.451163" width="107.162791" height="113.023256"/>
  </clipPath>
  <clipPath id="p0fb4af45f0">
   <rect x="293.35814" y="313.451163" width="107.162791" height="113.023256"/>
  </clipPath>
  <clipPath id="pa5973da4cd">
   <rect x="411.237209" y="313.451163" width="107.162791" height="113.023256"/>
  </clipPath>
  <clipPath id="p2f8c485ea5">
   <rect x="57.6" y="437.776744" width="107.162791" height="113.023256"/>
  </clipPath>
  <clipPath id="p8d44f249bc">
   <rect x="175.47907" y="437.776744" width="107.162791" height="113.023256"/>
  </clipPath>
  <clipPath id="p9f03e15210">
   <rect x="293.35814" y="437.776744" width="107.162791" height="113.023256"/>
  </clipPath>
  <clipPath id="p5f0a61380b">
   <rect x="411.237209" y="437.776744" width="107.162791" height="113.023256"/>
  </clipPath>
  <clipPath id="p157afe8490">
   <rect x="668.16" y="64.8" width="426.24" height="486"/>
  </clipPath>
 </defs>
</svg>
