<?xml version="1.0" encoding="utf-8" standalone="no"?>
<!DOCTYPE svg PUBLIC "-//W3C//DTD SVG 1.1//EN"
  "http://www.w3.org/Graphics/SVG/1.1/DTD/svg11.dtd">
<svg xmlns:xlink="http://www.w3.org/1999/xlink" width="1152pt" height="648pt" viewBox="0 0 1152 648" xmlns="http://www.w3.org/2000/svg" version="1.1">
 <metadata>
  <rdf:RDF xmlns:dc="http://purl.org/dc/elements/1.1/" xmlns:cc="http://creativecommons.org/ns#" xmlns:rdf="http://www.w3.org/1999/02/22-rdf-syntax-ns#">
   <cc:Work>
    <dc:type rdf:resource="http://purl.org/dc/dcmitype/StillImage"/>
    <dc:date>2025-03-12T19:42:02.253908</dc:date>
    <dc:format>image/svg+xml</dc:format>
    <dc:creator>
     <cc:Agent>
      <dc:title>Matplotlib v3.10.1, https://matplotlib.org/</dc:title>
     </cc:Agent>
    </dc:creator>
   </cc:Work>
  </rdf:RDF>
 </metadata>
 <defs>
  <style type="text/css">*{stroke-linejoin: round; stroke-linecap: butt}</style>
 </defs>
 <g id="figure_1">
  <g id="patch_1">
   <path d="M 0 648 
L 1152 648 
L 1152 0 
L 0 0 
z
" style="fill: #ffffff"/>
  </g>
  <g id="axes_1">
   <g id="patch_2">
    <path d="M 57.6 296.228571 
L 277.028571 296.228571 
L 277.028571 64.8 
L 57.6 64.8 
z
" style="fill: #ffffff"/>
   </g>
   <g id="matplotlib.axis_1"/>
   <g id="matplotlib.axis_2"/>
   <g id="line2d_1">
    <path d="M 67.574026 277.846822 
L 69.588981 281.034398 
L 71.603935 278.253518 
L 73.61889 278.019336 
L 75.633845 279.021779 
L 77.6488 277.728897 
L 79.663754 283.578761 
L 81.678709 280.547812 
L 83.693664 278.087189 
L 85.708619 282.039015 
L 87.723573 278.939537 
L 89.738528 278.67847 
L 91.753483 278.10558 
L 93.768438 277.867129 
L 95.783392 280.044705 
L 97.798347 278.822992 
L 99.813302 259.435074 
L 101.828257 222.641577 
L 103.843211 185.84808 
L 105.858166 222.641577 
L 107.873121 259.435074 
L 109.888076 276.823988 
L 111.90303 281.348138 
L 113.917985 276.064678 
L 115.93294 277.749948 
L 117.947895 279.841714 
L 119.962849 280.569659 
L 121.977804 277.537608 
L 123.992759 280.094801 
L 126.007713 277.765392 
L 128.022668 279.474148 
L 130.037623 280.765261 
L 132.052578 278.598998 
L 134.067532 278.227112 
L 136.082487 277.064666 
L 138.097442 278.669934 
L 140.112397 279.445558 
L 142.127351 280.00832 
L 144.142306 281.224145 
L 146.157261 277.111417 
L 148.172216 279.24604 
L 150.18717 278.006323 
L 152.202125 280.222892 
L 154.21708 277.344902 
L 156.232035 279.314177 
L 158.246989 280.814256 
L 160.261944 276.667179 
L 162.276899 279.666775 
L 164.291854 278.566976 
L 166.306808 278.377026 
L 168.321763 283.573443 
L 170.336718 279.380172 
L 172.351673 278.406692 
L 174.366627 278.270166 
L 176.381582 280.7263 
L 178.396537 276.551615 
L 180.411492 278.707658 
L 182.426446 278.886692 
L 184.441401 278.04399 
L 186.456356 276.157668 
L 188.471311 278.565873 
L 190.486265 281.612667 
L 192.50122 275.740101 
L 194.516175 277.725485 
L 196.531129 278.860459 
L 198.546084 279.401347 
L 200.561039 280.54809 
L 202.575994 281.376792 
L 204.590948 279.212585 
L 206.605903 280.034523 
L 208.620858 280.676058 
L 210.635813 281.495486 
L 212.650767 279.55959 
L 214.665722 281.389077 
L 216.680677 281.257663 
L 218.695632 280.929862 
L 220.710586 278.812295 
L 222.725541 281.777677 
L 224.740496 280.478687 
L 226.755451 276.777395 
L 228.770405 280.204461 
L 230.78536 278.508399 
L 232.800315 282.282457 
L 234.81527 280.037815 
L 236.830224 278.633978 
L 238.845179 278.909953 
L 240.860134 281.665775 
L 242.875089 278.598194 
L 244.890043 282.395005 
L 246.904998 281.833499 
L 248.919953 279.560479 
L 250.934908 284.703074 
L 252.949862 280.270079 
L 254.964817 281.061671 
L 256.979772 279.207532 
L 258.994726 279.422329 
L 261.009681 280.781442 
L 263.024636 280.078578 
L 265.039591 280.457729 
L 267.054545 279.139038 
" clip-path="url(#p7510a9f391)" style="fill: none; stroke: #4a2e83; stroke-width: 0.8; stroke-linecap: square"/>
   </g>
   <g id="line2d_2">
    <path d="M 57.6 276.979169 
L 277.028571 276.979169 
" clip-path="url(#p7510a9f391)" style="fill: none; stroke: #999999; stroke-opacity: 0.7; stroke-width: 0.8; stroke-linecap: square"/>
   </g>
   <g id="patch_3">
    <path d="M 57.6 296.228571 
L 57.6 64.8 
" style="fill: none; stroke: #cccccc; stroke-width: 0.5; stroke-linejoin: miter; stroke-linecap: square"/>
   </g>
   <g id="patch_4">
    <path d="M 277.028571 296.228571 
L 277.028571 64.8 
" style="fill: none; stroke: #cccccc; stroke-width: 0.5; stroke-linejoin: miter; stroke-linecap: square"/>
   </g>
   <g id="patch_5">
    <path d="M 57.6 296.228571 
L 277.028571 296.228571 
" style="fill: none; stroke: #cccccc; stroke-width: 0.5; stroke-linejoin: miter; stroke-linecap: square"/>
   </g>
   <g id="patch_6">
    <path d="M 57.6 64.8 
L 277.028571 64.8 
" style="fill: none; stroke: #cccccc; stroke-width: 0.5; stroke-linejoin: miter; stroke-linecap: square"/>
   </g>
  </g>
  <g id="axes_2">
   <g id="patch_7">
    <path d="M 298.971429 296.228571 
L 518.4 296.228571 
L 518.4 64.8 
L 298.971429 64.8 
z
" style="fill: #ffffff"/>
   </g>
   <g id="matplotlib.axis_3"/>
   <g id="matplotlib.axis_4"/>
   <g id="line2d_3">
    <path d="M 308.945455 280.879926 
L 310.960409 281.615502 
L 312.975364 270.916094 
L 314.990319 245.603617 
L 317.005274 220.291139 
L 319.020228 245.603617 
L 321.035183 270.916094 
L 323.050138 282.176189 
L 325.065092 283.406801 
L 327.080047 284.498281 
L 329.095002 281.842255 
L 331.109957 282.022645 
L 333.124911 283.423263 
L 335.139866 283.244062 
L 337.154821 284.392036 
L 339.169776 272.873761 
L 341.18473 249.51895 
L 343.199685 226.16414 
L 345.21464 249.51895 
L 347.229595 272.873761 
L 349.244549 283.239183 
L 351.259504 282.197096 
L 353.274459 280.06917 
L 355.289414 281.785241 
L 357.304368 281.354583 
L 359.319323 284.858696 
L 361.334278 282.861155 
L 363.349233 282.608196 
L 365.364187 281.357479 
L 367.379142 282.628894 
L 369.394097 282.613009 
L 371.409052 284.152354 
L 373.424006 281.279691 
L 375.438961 282.674736 
L 377.453916 282.501423 
L 379.468871 283.951855 
L 381.483825 282.494934 
L 383.49878 282.610404 
L 385.513735 283.662459 
L 387.528689 215.100707 
L 389.543644 282.734514 
L 391.558599 271.93563 
L 393.573554 247.642688 
L 395.588508 223.349746 
L 397.603463 247.642688 
L 399.618418 271.93563 
L 401.633373 283.1111 
L 403.648327 284.201058 
L 405.663282 281.887216 
L 407.678237 282.973514 
L 409.693192 282.357551 
L 411.708146 284.055163 
L 413.723101 282.79408 
L 415.738056 282.516819 
L 417.753011 283.777229 
L 419.767965 283.475064 
L 421.78292 281.44114 
L 423.797875 283.240656 
L 425.81283 283.651654 
L 427.827784 282.021093 
L 429.842739 284.284324 
L 431.857694 282.217931 
L 433.872649 280.850156 
L 435.887603 284.370056 
L 437.902558 284.354343 
L 439.917513 283.997703 
L 441.932468 283.512001 
L 443.947422 282.954756 
L 445.962377 271.018361 
L 447.977332 245.808151 
L 449.992287 220.597941 
L 452.007241 245.808151 
L 454.022196 271.018361 
L 456.037151 213.896906 
L 458.052105 282.719333 
L 460.06706 284.413742 
L 462.082015 278.291287 
L 464.09697 282.066163 
L 466.111924 282.95157 
L 468.126879 282.277015 
L 470.141834 281.175346 
L 472.156789 282.03222 
L 474.171743 283.703539 
L 476.186698 284.854479 
L 478.201653 284.223223 
L 480.216608 283.868505 
L 482.231562 284.006564 
L 484.246517 282.926117 
L 486.261472 284.404473 
L 488.276427 284.775157 
L 490.291381 284.459298 
L 492.306336 279.913102 
L 494.321291 284.938152 
L 496.336246 282.154729 
L 498.3512 285.283906 
L 500.366155 283.589372 
L 502.38111 285.075184 
L 504.396065 284.165609 
L 506.411019 285.782581 
L 508.425974 283.431283 
" clip-path="url(#p32a266d77d)" style="fill: none; stroke: #4a2e83; stroke-width: 0.8; stroke-linecap: square"/>
   </g>
   <g id="line2d_4">
    <path d="M 298.971429 275.446977 
L 518.4 275.446977 
" clip-path="url(#p32a266d77d)" style="fill: none; stroke: #999999; stroke-opacity: 0.7; stroke-width: 0.8; stroke-linecap: square"/>
   </g>
   <g id="patch_8">
    <path d="M 298.971429 296.228571 
L 298.971429 64.8 
" style="fill: none; stroke: #cccccc; stroke-width: 0.5; stroke-linejoin: miter; stroke-linecap: square"/>
   </g>
   <g id="patch_9">
    <path d="M 518.4 296.228571 
L 518.4 64.8 
" style="fill: none; stroke: #cccccc; stroke-width: 0.5; stroke-linejoin: miter; stroke-linecap: square"/>
   </g>
   <g id="patch_10">
    <path d="M 298.971429 296.228571 
L 518.4 296.228571 
" style="fill: none; stroke: #cccccc; stroke-width: 0.5; stroke-linejoin: miter; stroke-linecap: square"/>
   </g>
   <g id="patch_11">
    <path d="M 298.971429 64.8 
L 518.4 64.8 
" style="fill: none; stroke: #cccccc; stroke-width: 0.5; stroke-linejoin: miter; stroke-linecap: square"/>
   </g>
  </g>
  <g id="axes_3">
   <g id="patch_12">
    <path d="M 57.6 550.8 
L 277.028571 550.8 
L 277.028571 319.371429 
L 57.6 319.371429 
z
" style="fill: #ffffff"/>
   </g>
   <g id="matplotlib.axis_5"/>
   <g id="matplotlib.axis_6"/>
   <g id="line2d_5">
    <path d="M 67.574026 535.629379 
L 69.588981 536.319384 
L 71.603935 537.057181 
L 73.61889 535.877079 
L 75.633845 538.128221 
L 77.6488 534.361849 
L 79.663754 534.911171 
L 81.678709 536.174494 
L 83.693664 534.357159 
L 85.708619 536.489716 
L 87.723573 537.935492 
L 89.738528 536.292724 
L 91.753483 537.807244 
L 93.768438 537.601518 
L 95.783392 537.700996 
L 97.798347 536.389435 
L 99.813302 535.890884 
L 101.828257 536.421695 
L 103.843211 534.022789 
L 105.858166 537.61095 
L 107.873121 538.355542 
L 109.888076 537.878386 
L 111.90303 536.384102 
L 113.917985 536.237043 
L 115.93294 537.466368 
L 117.947895 538.403328 
L 119.962849 533.812205 
L 121.977804 535.051351 
L 123.992759 535.896789 
L 126.007713 536.328505 
L 128.022668 536.364121 
L 130.037623 538.172614 
L 132.052578 536.156712 
L 134.067532 518.287069 
L 136.082487 485.774138 
L 138.097442 453.261207 
L 140.112397 485.774138 
L 142.127351 518.287069 
L 144.142306 537.544614 
L 146.157261 533.885786 
L 148.172216 539.073824 
L 150.18717 533.765811 
L 152.202125 535.290307 
L 154.21708 535.285681 
L 156.232035 536.00638 
L 158.246989 537.307815 
L 160.261944 534.408423 
L 162.276899 538.218606 
L 164.291854 538.355253 
L 166.306808 536.169019 
L 168.321763 535.199086 
L 170.336718 535.678186 
L 172.351673 535.126273 
L 174.366627 537.639666 
L 176.381582 524.52597 
L 178.396537 498.25194 
L 180.411492 471.97791 
L 182.426446 498.25194 
L 184.441401 524.52597 
L 186.456356 537.37585 
L 188.471311 534.863357 
L 190.486265 535.606987 
L 192.50122 535.611696 
L 194.516175 538.240073 
L 196.531129 537.387397 
L 198.546084 536.708837 
L 200.561039 537.164779 
L 202.575994 536.444953 
L 204.590948 538.349264 
L 206.605903 535.573418 
L 208.620858 537.197877 
L 210.635813 538.833246 
L 212.650767 537.328228 
L 214.665722 535.445058 
L 216.680677 534.325995 
L 218.695632 537.691929 
L 220.710586 536.944157 
L 222.725541 537.085449 
L 224.740496 534.880092 
L 226.755451 535.351069 
L 228.770405 535.039732 
L 230.78536 535.691345 
L 232.800315 538.276153 
L 234.81527 536.114954 
L 236.830224 536.557345 
L 238.845179 537.343227 
L 240.860134 537.001404 
L 242.875089 534.687773 
L 244.890043 535.858856 
L 246.904998 536.479206 
L 248.919953 537.211695 
L 250.934908 536.464552 
L 252.949862 535.371727 
L 254.964817 536.231205 
L 256.979772 537.42037 
L 258.994726 536.826782 
L 261.009681 537.767193 
L 263.024636 534.15469 
L 265.039591 536.155563 
L 267.054545 537.017873 
" clip-path="url(#p48e04f49b0)" style="fill: none; stroke: #4a2e83; stroke-width: 0.8; stroke-linecap: square"/>
   </g>
   <g id="line2d_6">
    <path d="M 57.6 532.574399 
L 277.028571 532.574399 
" clip-path="url(#p48e04f49b0)" style="fill: none; stroke: #999999; stroke-opacity: 0.7; stroke-width: 0.8; stroke-linecap: square"/>
   </g>
   <g id="patch_13">
    <path d="M 57.6 550.8 
L 57.6 319.371429 
" style="fill: none; stroke: #cccccc; stroke-width: 0.5; stroke-linejoin: miter; stroke-linecap: square"/>
   </g>
   <g id="patch_14">
    <path d="M 277.028571 550.8 
L 277.028571 319.371429 
" style="fill: none; stroke: #cccccc; stroke-width: 0.5; stroke-linejoin: miter; stroke-linecap: square"/>
   </g>
   <g id="patch_15">
    <path d="M 57.6 550.8 
L 277.028571 550.8 
" style="fill: none; stroke: #cccccc; stroke-width: 0.5; stroke-linejoin: miter; stroke-linecap: square"/>
   </g>
   <g id="patch_16">
    <path d="M 57.6 319.371429 
L 277.028571 319.371429 
" style="fill: none; stroke: #cccccc; stroke-width: 0.5; stroke-linejoin: miter; stroke-linecap: square"/>
   </g>
  </g>
  <g id="axes_4">
   <g id="patch_17">
    <path d="M 298.971429 550.8 
L 518.4 550.8 
L 518.4 319.371429 
L 298.971429 319.371429 
z
" style="fill: #ffffff"/>
   </g>
   <g id="matplotlib.axis_7"/>
   <g id="matplotlib.axis_8"/>
   <g id="line2d_7">
    <path d="M 308.945455 480.175957 
L 310.960409 515.487978 
L 312.975364 541.941818 
L 314.990319 542.648419 
L 317.005274 541.848256 
L 319.020228 541.10606 
L 321.035183 542.151546 
L 323.050138 542.246056 
L 325.065092 540.924045 
L 327.080047 541.912242 
L 329.095002 525.280322 
L 331.109957 499.760644 
L 333.124911 525.280322 
L 335.139866 540.227567 
L 337.154821 542.682613 
L 339.169776 542.347034 
L 341.18473 542.985055 
L 343.199685 542.8415 
L 345.21464 541.904105 
L 347.229595 542.114427 
L 349.244549 541.441351 
L 351.259504 541.902698 
L 353.274459 541.628206 
L 355.289414 542.790909 
L 357.304368 540.946967 
L 359.319323 541.806823 
L 361.334278 540.38344 
L 363.349233 541.667111 
L 365.364187 541.942727 
L 367.379142 542.834179 
L 369.394097 540.912015 
L 371.409052 539.479744 
L 373.424006 540.574275 
L 375.438961 540.121328 
L 377.453916 541.856042 
L 379.468871 541.254273 
L 381.483825 541.884251 
L 383.49878 542.163351 
L 385.513735 542.721612 
L 387.528689 542.555557 
L 389.543644 542.920546 
L 391.558599 542.088154 
L 393.573554 541.675684 
L 395.588508 543.51861 
L 397.603463 542.510619 
L 399.618418 542.94086 
L 401.633373 542.861844 
L 403.648327 541.692469 
L 405.663282 540.672965 
L 407.678237 543.561313 
L 409.693192 540.781897 
L 411.708146 540.921264 
L 413.723101 541.847277 
L 415.738056 541.737193 
L 417.753011 542.791079 
L 419.767965 541.079175 
L 421.78292 540.799428 
L 423.797875 541.796183 
L 425.81283 542.52403 
L 427.827784 541.317083 
L 429.842739 538.97681 
L 431.857694 541.180451 
L 433.872649 541.488142 
L 435.887603 540.605639 
L 437.902558 540.9521 
L 439.917513 542.01033 
L 441.932468 541.235692 
L 443.947422 541.101272 
L 445.962377 543.003618 
L 447.977332 541.593692 
L 449.992287 542.643907 
L 452.007241 540.732199 
L 454.022196 541.750544 
L 456.037151 543.11502 
L 458.052105 542.132348 
L 460.06706 541.234128 
L 462.082015 541.764181 
L 464.09697 541.729781 
L 466.111924 543.269115 
L 468.126879 491.879737 
L 470.141834 541.204328 
L 472.156789 540.979855 
L 474.171743 542.007695 
L 476.186698 543.340546 
L 478.201653 541.765764 
L 480.216608 542.257891 
L 482.231562 541.819578 
L 484.246517 541.969193 
L 486.261472 541.364108 
L 488.276427 541.947928 
L 490.291381 541.293059 
L 492.306336 539.983331 
L 494.321291 541.908763 
L 496.336246 542.678987 
L 498.3512 521.076913 
L 500.366155 491.353827 
L 502.38111 521.076913 
L 504.396065 542.020878 
L 506.411019 541.372208 
L 508.425974 541.609806 
" clip-path="url(#p1dac3d213d)" style="fill: none; stroke: #4a2e83; stroke-width: 0.8; stroke-linecap: square"/>
   </g>
   <g id="line2d_8">
    <path d="M 298.971429 538.722008 
L 518.4 538.722008 
" clip-path="url(#p1dac3d213d)" style="fill: none; stroke: #999999; stroke-opacity: 0.7; stroke-width: 0.8; stroke-linecap: square"/>
   </g>
   <g id="patch_18">
    <path d="M 298.971429 550.8 
L 298.971429 319.371429 
" style="fill: none; stroke: #cccccc; stroke-width: 0.5; stroke-linejoin: miter; stroke-linecap: square"/>
   </g>
   <g id="patch_19">
    <path d="M 518.4 550.8 
L 518.4 319.371429 
" style="fill: none; stroke: #cccccc; stroke-width: 0.5; stroke-linejoin: miter; stroke-linecap: square"/>
   </g>
   <g id="patch_20">
    <path d="M 298.971429 550.8 
L 518.4 550.8 
" style="fill: none; stroke: #cccccc; stroke-width: 0.5; stroke-linejoin: miter; stroke-linecap: square"/>
   </g>
   <g id="patch_21">
    <path d="M 298.971429 319.371429 
L 518.4 319.371429 
" style="fill: none; stroke: #cccccc; stroke-width: 0.5; stroke-linejoin: miter; stroke-linecap: square"/>
   </g>
  </g>
  <g id="axes_5">
   <g id="patch_22">
    <path d="M 668.16 550.8 
L 1094.4 550.8 
L 1094.4 64.8 
L 668.16 64.8 
z
" style="fill: #ffffff"/>
   </g>
   <g id="matplotlib.axis_9">
    <g id="text_1">
     <!-- time -->
     <g transform="translate(866.033437 563.918125) scale(0.12 -0.12)">
      <defs>
       <path id="DejaVuSans-Bold-74" d="M 1759 4494 
L 1759 3500 
L 2913 3500 
L 2913 2700 
L 1759 2700 
L 1759 1216 
Q 1759 972 1856 886 
Q 1953 800 2241 800 
L 2816 800 
L 2816 0 
L 1856 0 
Q 1194 0 917 276 
Q 641 553 641 1216 
L 641 2700 
L 84 2700 
L 84 3500 
L 641 3500 
L 641 4494 
L 1759 4494 
z
" transform="scale(0.015625)"/>
       <path id="DejaVuSans-Bold-69" d="M 538 3500 
L 1656 3500 
L 1656 0 
L 538 0 
L 538 3500 
z
M 538 4863 
L 1656 4863 
L 1656 3950 
L 538 3950 
L 538 4863 
z
" transform="scale(0.015625)"/>
       <path id="DejaVuSans-Bold-6d" d="M 3781 2919 
Q 3994 3244 4286 3414 
Q 4578 3584 4928 3584 
Q 5531 3584 5847 3212 
Q 6163 2841 6163 2131 
L 6163 0 
L 5038 0 
L 5038 1825 
Q 5041 1866 5042 1909 
Q 5044 1953 5044 2034 
Q 5044 2406 4934 2573 
Q 4825 2741 4581 2741 
Q 4263 2741 4089 2478 
Q 3916 2216 3909 1719 
L 3909 0 
L 2784 0 
L 2784 1825 
Q 2784 2406 2684 2573 
Q 2584 2741 2328 2741 
Q 2006 2741 1831 2477 
Q 1656 2213 1656 1722 
L 1656 0 
L 531 0 
L 531 3500 
L 1656 3500 
L 1656 2988 
Q 1863 3284 2130 3434 
Q 2397 3584 2719 3584 
Q 3081 3584 3359 3409 
Q 3638 3234 3781 2919 
z
" transform="scale(0.015625)"/>
       <path id="DejaVuSans-Bold-65" d="M 4031 1759 
L 4031 1441 
L 1416 1441 
Q 1456 1047 1700 850 
Q 1944 653 2381 653 
Q 2734 653 3104 758 
Q 3475 863 3866 1075 
L 3866 213 
Q 3469 63 3072 -14 
Q 2675 -91 2278 -91 
Q 1328 -91 801 392 
Q 275 875 275 1747 
Q 275 2603 792 3093 
Q 1309 3584 2216 3584 
Q 3041 3584 3536 3087 
Q 4031 2591 4031 1759 
z
M 2881 2131 
Q 2881 2450 2695 2645 
Q 2509 2841 2209 2841 
Q 1884 2841 1681 2658 
Q 1478 2475 1428 2131 
L 2881 2131 
z
" transform="scale(0.015625)"/>
      </defs>
      <use xlink:href="#DejaVuSans-Bold-74"/>
      <use xlink:href="#DejaVuSans-Bold-69" transform="translate(47.802734 0)"/>
      <use xlink:href="#DejaVuSans-Bold-6d" transform="translate(82.080078 0)"/>
      <use xlink:href="#DejaVuSans-Bold-65" transform="translate(186.279297 0)"/>
     </g>
    </g>
   </g>
   <g id="matplotlib.axis_10">
    <g id="ytick_1">
     <g id="line2d_9">
      <path d="M 668.16 550.8 
L 1094.4 550.8 
" clip-path="url(#pe2b66697f1)" style="fill: none; stroke: #cccccc; stroke-opacity: 0.5; stroke-width: 0.8; stroke-linecap: square"/>
     </g>
     <g id="line2d_10">
      <defs>
       <path id="m1570827434" d="M 0 0 
L -3.5 0 
" style="stroke: #000000; stroke-width: 0.8"/>
      </defs>
      <g>
       <use xlink:href="#m1570827434" x="668.16" y="550.8" style="stroke: #000000; stroke-width: 0.8"/>
      </g>
     </g>
     <g id="text_2">
      <!-- 0 -->
      <g transform="translate(654.7975 554.599219) scale(0.1 -0.1)">
       <defs>
        <path id="DejaVuSans-30" d="M 2034 4250 
Q 1547 4250 1301 3770 
Q 1056 3291 1056 2328 
Q 1056 1369 1301 889 
Q 1547 409 2034 409 
Q 2525 409 2770 889 
Q 3016 1369 3016 2328 
Q 3016 3291 2770 3770 
Q 2525 4250 2034 4250 
z
M 2034 4750 
Q 2819 4750 3233 4129 
Q 3647 3509 3647 2328 
Q 3647 1150 3233 529 
Q 2819 -91 2034 -91 
Q 1250 -91 836 529 
Q 422 1150 422 2328 
Q 422 3509 836 4129 
Q 1250 4750 2034 4750 
z
" transform="scale(0.015625)"/>
       </defs>
       <use xlink:href="#DejaVuSans-30"/>
      </g>
     </g>
    </g>
    <g id="ytick_2">
     <g id="line2d_11">
      <path d="M 668.16 453.6 
L 1094.4 453.6 
" clip-path="url(#pe2b66697f1)" style="fill: none; stroke: #cccccc; stroke-opacity: 0.5; stroke-width: 0.8; stroke-linecap: square"/>
     </g>
     <g id="line2d_12">
      <g>
       <use xlink:href="#m1570827434" x="668.16" y="453.6" style="stroke: #000000; stroke-width: 0.8"/>
      </g>
     </g>
     <g id="text_3">
      <!-- 1.8M -->
      <g transform="translate(636.62875 457.399219) scale(0.1 -0.1)">
       <defs>
        <path id="DejaVuSans-31" d="M 794 531 
L 1825 531 
L 1825 4091 
L 703 3866 
L 703 4441 
L 1819 4666 
L 2450 4666 
L 2450 531 
L 3481 531 
L 3481 0 
L 794 0 
L 794 531 
z
" transform="scale(0.015625)"/>
        <path id="DejaVuSans-2e" d="M 684 794 
L 1344 794 
L 1344 0 
L 684 0 
L 684 794 
z
" transform="scale(0.015625)"/>
        <path id="DejaVuSans-38" d="M 2034 2216 
Q 1584 2216 1326 1975 
Q 1069 1734 1069 1313 
Q 1069 891 1326 650 
Q 1584 409 2034 409 
Q 2484 409 2743 651 
Q 3003 894 3003 1313 
Q 3003 1734 2745 1975 
Q 2488 2216 2034 2216 
z
M 1403 2484 
Q 997 2584 770 2862 
Q 544 3141 544 3541 
Q 544 4100 942 4425 
Q 1341 4750 2034 4750 
Q 2731 4750 3128 4425 
Q 3525 4100 3525 3541 
Q 3525 3141 3298 2862 
Q 3072 2584 2669 2484 
Q 3125 2378 3379 2068 
Q 3634 1759 3634 1313 
Q 3634 634 3220 271 
Q 2806 -91 2034 -91 
Q 1263 -91 848 271 
Q 434 634 434 1313 
Q 434 1759 690 2068 
Q 947 2378 1403 2484 
z
M 1172 3481 
Q 1172 3119 1398 2916 
Q 1625 2713 2034 2713 
Q 2441 2713 2670 2916 
Q 2900 3119 2900 3481 
Q 2900 3844 2670 4047 
Q 2441 4250 2034 4250 
Q 1625 4250 1398 4047 
Q 1172 3844 1172 3481 
z
" transform="scale(0.015625)"/>
        <path id="DejaVuSans-4d" d="M 628 4666 
L 1569 4666 
L 2759 1491 
L 3956 4666 
L 4897 4666 
L 4897 0 
L 4281 0 
L 4281 4097 
L 3078 897 
L 2444 897 
L 1241 4097 
L 1241 0 
L 628 0 
L 628 4666 
z
" transform="scale(0.015625)"/>
       </defs>
       <use xlink:href="#DejaVuSans-31"/>
       <use xlink:href="#DejaVuSans-2e" transform="translate(63.623047 0)"/>
       <use xlink:href="#DejaVuSans-38" transform="translate(95.410156 0)"/>
       <use xlink:href="#DejaVuSans-4d" transform="translate(159.033203 0)"/>
      </g>
     </g>
    </g>
    <g id="ytick_3">
     <g id="line2d_13">
      <path d="M 668.16 356.4 
L 1094.4 356.4 
" clip-path="url(#pe2b66697f1)" style="fill: none; stroke: #cccccc; stroke-opacity: 0.5; stroke-width: 0.8; stroke-linecap: square"/>
     </g>
     <g id="line2d_14">
      <g>
       <use xlink:href="#m1570827434" x="668.16" y="356.4" style="stroke: #000000; stroke-width: 0.8"/>
      </g>
     </g>
     <g id="text_4">
      <!-- 3.6M -->
      <g transform="translate(636.62875 360.199219) scale(0.1 -0.1)">
       <defs>
        <path id="DejaVuSans-33" d="M 2597 2516 
Q 3050 2419 3304 2112 
Q 3559 1806 3559 1356 
Q 3559 666 3084 287 
Q 2609 -91 1734 -91 
Q 1441 -91 1130 -33 
Q 819 25 488 141 
L 488 750 
Q 750 597 1062 519 
Q 1375 441 1716 441 
Q 2309 441 2620 675 
Q 2931 909 2931 1356 
Q 2931 1769 2642 2001 
Q 2353 2234 1838 2234 
L 1294 2234 
L 1294 2753 
L 1863 2753 
Q 2328 2753 2575 2939 
Q 2822 3125 2822 3475 
Q 2822 3834 2567 4026 
Q 2313 4219 1838 4219 
Q 1578 4219 1281 4162 
Q 984 4106 628 3988 
L 628 4550 
Q 988 4650 1302 4700 
Q 1616 4750 1894 4750 
Q 2613 4750 3031 4423 
Q 3450 4097 3450 3541 
Q 3450 3153 3228 2886 
Q 3006 2619 2597 2516 
z
" transform="scale(0.015625)"/>
        <path id="DejaVuSans-36" d="M 2113 2584 
Q 1688 2584 1439 2293 
Q 1191 2003 1191 1497 
Q 1191 994 1439 701 
Q 1688 409 2113 409 
Q 2538 409 2786 701 
Q 3034 994 3034 1497 
Q 3034 2003 2786 2293 
Q 2538 2584 2113 2584 
z
M 3366 4563 
L 3366 3988 
Q 3128 4100 2886 4159 
Q 2644 4219 2406 4219 
Q 1781 4219 1451 3797 
Q 1122 3375 1075 2522 
Q 1259 2794 1537 2939 
Q 1816 3084 2150 3084 
Q 2853 3084 3261 2657 
Q 3669 2231 3669 1497 
Q 3669 778 3244 343 
Q 2819 -91 2113 -91 
Q 1303 -91 875 529 
Q 447 1150 447 2328 
Q 447 3434 972 4092 
Q 1497 4750 2381 4750 
Q 2619 4750 2861 4703 
Q 3103 4656 3366 4563 
z
" transform="scale(0.015625)"/>
       </defs>
       <use xlink:href="#DejaVuSans-33"/>
       <use xlink:href="#DejaVuSans-2e" transform="translate(63.623047 0)"/>
       <use xlink:href="#DejaVuSans-36" transform="translate(95.410156 0)"/>
       <use xlink:href="#DejaVuSans-4d" transform="translate(159.033203 0)"/>
      </g>
     </g>
    </g>
    <g id="ytick_4">
     <g id="line2d_15">
      <path d="M 668.16 259.2 
L 1094.4 259.2 
" clip-path="url(#pe2b66697f1)" style="fill: none; stroke: #cccccc; stroke-opacity: 0.5; stroke-width: 0.8; stroke-linecap: square"/>
     </g>
     <g id="line2d_16">
      <g>
       <use xlink:href="#m1570827434" x="668.16" y="259.2" style="stroke: #000000; stroke-width: 0.8"/>
      </g>
     </g>
     <g id="text_5">
      <!-- 5.4M -->
      <g transform="translate(636.62875 262.999219) scale(0.1 -0.1)">
       <defs>
        <path id="DejaVuSans-35" d="M 691 4666 
L 3169 4666 
L 3169 4134 
L 1269 4134 
L 1269 2991 
Q 1406 3038 1543 3061 
Q 1681 3084 1819 3084 
Q 2600 3084 3056 2656 
Q 3513 2228 3513 1497 
Q 3513 744 3044 326 
Q 2575 -91 1722 -91 
Q 1428 -91 1123 -41 
Q 819 9 494 109 
L 494 744 
Q 775 591 1075 516 
Q 1375 441 1709 441 
Q 2250 441 2565 725 
Q 2881 1009 2881 1497 
Q 2881 1984 2565 2268 
Q 2250 2553 1709 2553 
Q 1456 2553 1204 2497 
Q 953 2441 691 2322 
L 691 4666 
z
" transform="scale(0.015625)"/>
        <path id="DejaVuSans-34" d="M 2419 4116 
L 825 1625 
L 2419 1625 
L 2419 4116 
z
M 2253 4666 
L 3047 4666 
L 3047 1625 
L 3713 1625 
L 3713 1100 
L 3047 1100 
L 3047 0 
L 2419 0 
L 2419 1100 
L 313 1100 
L 313 1709 
L 2253 4666 
z
" transform="scale(0.015625)"/>
       </defs>
       <use xlink:href="#DejaVuSans-35"/>
       <use xlink:href="#DejaVuSans-2e" transform="translate(63.623047 0)"/>
       <use xlink:href="#DejaVuSans-34" transform="translate(95.410156 0)"/>
       <use xlink:href="#DejaVuSans-4d" transform="translate(159.033203 0)"/>
      </g>
     </g>
    </g>
    <g id="ytick_5">
     <g id="line2d_17">
      <path d="M 668.16 162 
L 1094.4 162 
" clip-path="url(#pe2b66697f1)" style="fill: none; stroke: #cccccc; stroke-opacity: 0.5; stroke-width: 0.8; stroke-linecap: square"/>
     </g>
     <g id="line2d_18">
      <g>
       <use xlink:href="#m1570827434" x="668.16" y="162" style="stroke: #000000; stroke-width: 0.8"/>
      </g>
     </g>
     <g id="text_6">
      <!-- 7.2M -->
      <g transform="translate(636.62875 165.799219) scale(0.1 -0.1)">
       <defs>
        <path id="DejaVuSans-37" d="M 525 4666 
L 3525 4666 
L 3525 4397 
L 1831 0 
L 1172 0 
L 2766 4134 
L 525 4134 
L 525 4666 
z
" transform="scale(0.015625)"/>
        <path id="DejaVuSans-32" d="M 1228 531 
L 3431 531 
L 3431 0 
L 469 0 
L 469 531 
Q 828 903 1448 1529 
Q 2069 2156 2228 2338 
Q 2531 2678 2651 2914 
Q 2772 3150 2772 3378 
Q 2772 3750 2511 3984 
Q 2250 4219 1831 4219 
Q 1534 4219 1204 4116 
Q 875 4013 500 3803 
L 500 4441 
Q 881 4594 1212 4672 
Q 1544 4750 1819 4750 
Q 2544 4750 2975 4387 
Q 3406 4025 3406 3419 
Q 3406 3131 3298 2873 
Q 3191 2616 2906 2266 
Q 2828 2175 2409 1742 
Q 1991 1309 1228 531 
z
" transform="scale(0.015625)"/>
       </defs>
       <use xlink:href="#DejaVuSans-37"/>
       <use xlink:href="#DejaVuSans-2e" transform="translate(63.623047 0)"/>
       <use xlink:href="#DejaVuSans-32" transform="translate(95.410156 0)"/>
       <use xlink:href="#DejaVuSans-4d" transform="translate(159.033203 0)"/>
      </g>
     </g>
    </g>
    <g id="ytick_6">
     <g id="line2d_19">
      <path d="M 668.16 64.8 
L 1094.4 64.8 
" clip-path="url(#pe2b66697f1)" style="fill: none; stroke: #cccccc; stroke-opacity: 0.5; stroke-width: 0.8; stroke-linecap: square"/>
     </g>
     <g id="line2d_20">
      <g>
       <use xlink:href="#m1570827434" x="668.16" y="64.8" style="stroke: #000000; stroke-width: 0.8"/>
      </g>
     </g>
     <g id="text_7">
      <!-- 9.0M -->
      <g transform="translate(636.62875 68.599219) scale(0.1 -0.1)">
       <defs>
        <path id="DejaVuSans-39" d="M 703 97 
L 703 672 
Q 941 559 1184 500 
Q 1428 441 1663 441 
Q 2288 441 2617 861 
Q 2947 1281 2994 2138 
Q 2813 1869 2534 1725 
Q 2256 1581 1919 1581 
Q 1219 1581 811 2004 
Q 403 2428 403 3163 
Q 403 3881 828 4315 
Q 1253 4750 1959 4750 
Q 2769 4750 3195 4129 
Q 3622 3509 3622 2328 
Q 3622 1225 3098 567 
Q 2575 -91 1691 -91 
Q 1453 -91 1209 -44 
Q 966 3 703 97 
z
M 1959 2075 
Q 2384 2075 2632 2365 
Q 2881 2656 2881 3163 
Q 2881 3666 2632 3958 
Q 2384 4250 1959 4250 
Q 1534 4250 1286 3958 
Q 1038 3666 1038 3163 
Q 1038 2656 1286 2365 
Q 1534 2075 1959 2075 
z
" transform="scale(0.015625)"/>
       </defs>
       <use xlink:href="#DejaVuSans-39"/>
       <use xlink:href="#DejaVuSans-2e" transform="translate(63.623047 0)"/>
       <use xlink:href="#DejaVuSans-30" transform="translate(95.410156 0)"/>
       <use xlink:href="#DejaVuSans-4d" transform="translate(159.033203 0)"/>
      </g>
     </g>
    </g>
    <g id="text_8">
     <!-- msgs/s -->
     <g transform="translate(624.039375 331.251562) rotate(-90) scale(0.12 -0.12)">
      <defs>
       <path id="DejaVuSans-Bold-73" d="M 3272 3391 
L 3272 2541 
Q 2913 2691 2578 2766 
Q 2244 2841 1947 2841 
Q 1628 2841 1473 2761 
Q 1319 2681 1319 2516 
Q 1319 2381 1436 2309 
Q 1553 2238 1856 2203 
L 2053 2175 
Q 2913 2066 3209 1816 
Q 3506 1566 3506 1031 
Q 3506 472 3093 190 
Q 2681 -91 1863 -91 
Q 1516 -91 1145 -36 
Q 775 19 384 128 
L 384 978 
Q 719 816 1070 734 
Q 1422 653 1784 653 
Q 2113 653 2278 743 
Q 2444 834 2444 1013 
Q 2444 1163 2330 1236 
Q 2216 1309 1875 1350 
L 1678 1375 
Q 931 1469 631 1722 
Q 331 1975 331 2491 
Q 331 3047 712 3315 
Q 1094 3584 1881 3584 
Q 2191 3584 2531 3537 
Q 2872 3491 3272 3391 
z
" transform="scale(0.015625)"/>
       <path id="DejaVuSans-Bold-67" d="M 2919 594 
Q 2688 288 2409 144 
Q 2131 0 1766 0 
Q 1125 0 706 504 
Q 288 1009 288 1791 
Q 288 2575 706 3076 
Q 1125 3578 1766 3578 
Q 2131 3578 2409 3434 
Q 2688 3291 2919 2981 
L 2919 3500 
L 4044 3500 
L 4044 353 
Q 4044 -491 3511 -936 
Q 2978 -1381 1966 -1381 
Q 1638 -1381 1331 -1331 
Q 1025 -1281 716 -1178 
L 716 -306 
Q 1009 -475 1290 -558 
Q 1572 -641 1856 -641 
Q 2406 -641 2662 -400 
Q 2919 -159 2919 353 
L 2919 594 
z
M 2181 2772 
Q 1834 2772 1640 2515 
Q 1447 2259 1447 1791 
Q 1447 1309 1634 1061 
Q 1822 813 2181 813 
Q 2531 813 2725 1069 
Q 2919 1325 2919 1791 
Q 2919 2259 2725 2515 
Q 2531 2772 2181 2772 
z
" transform="scale(0.015625)"/>
       <path id="DejaVuSans-Bold-2f" d="M 1644 4666 
L 2338 4666 
L 691 -594 
L 0 -594 
L 1644 4666 
z
" transform="scale(0.015625)"/>
      </defs>
      <use xlink:href="#DejaVuSans-Bold-6d"/>
      <use xlink:href="#DejaVuSans-Bold-73" transform="translate(104.199219 0)"/>
      <use xlink:href="#DejaVuSans-Bold-67" transform="translate(163.720703 0)"/>
      <use xlink:href="#DejaVuSans-Bold-73" transform="translate(235.302734 0)"/>
      <use xlink:href="#DejaVuSans-Bold-2f" transform="translate(294.824219 0)"/>
      <use xlink:href="#DejaVuSans-Bold-73" transform="translate(331.347656 0)"/>
     </g>
    </g>
   </g>
   <g id="line2d_21">
    <path d="M 687.534545 522.910819 
L 691.448595 532.226695 
L 695.362645 535.426009 
L 699.276694 529.354638 
L 703.190744 524.020859 
L 707.104793 528.573432 
L 711.018843 536.216767 
L 714.932893 538.453729 
L 718.846942 537.434212 
L 722.760992 539.339159 
L 726.675041 534.452775 
L 730.589091 528.096046 
L 734.50314 534.597162 
L 738.41719 537.939398 
L 742.33124 539.311415 
L 746.245289 535.954419 
L 750.159339 526.013658 
L 754.073388 512.069413 
L 757.987438 508.155249 
L 761.901488 523.076167 
L 765.815537 534.096602 
L 769.729587 537.907173 
L 773.643636 538.053577 
L 777.557686 537.45817 
L 781.471736 537.607502 
L 785.385785 539.332464 
L 789.299835 537.632841 
L 793.213884 537.454995 
L 797.127934 538.021419 
L 801.041983 538.083293 
L 804.956033 538.038102 
L 808.870083 538.786327 
L 812.784132 537.395591 
L 816.698182 533.359057 
L 820.612231 525.865796 
L 824.526281 518.85203 
L 828.440331 526.426406 
L 832.35438 534.236134 
L 836.26843 539.388994 
L 840.182479 521.539142 
L 844.096529 539.114149 
L 848.010579 534.872381 
L 851.924628 529.9807 
L 855.838678 524.069753 
L 859.752727 530.130568 
L 863.666777 536.552997 
L 867.580826 537.497994 
L 871.494876 539.068412 
L 875.408926 538.065896 
L 879.322975 538.43887 
L 883.237025 538.632795 
L 887.151074 538.194783 
L 891.065124 537.760675 
L 894.979174 538.224897 
L 898.893223 536.278135 
L 902.807273 528.703485 
L 906.721322 522.536098 
L 910.635372 529.360943 
L 914.549421 535.56065 
L 918.463471 537.456729 
L 922.377521 537.414418 
L 926.29157 538.330875 
L 930.20562 536.714355 
L 934.119669 538.406292 
L 938.033719 538.549337 
L 941.947769 538.680917 
L 945.861818 538.760798 
L 949.775868 538.624814 
L 953.689917 536.222893 
L 957.603967 529.555616 
L 961.518017 524.447016 
L 965.432066 530.456119 
L 969.346116 535.773235 
L 973.260165 522.750748 
L 977.174215 538.288246 
L 981.088264 539.182921 
L 985.002314 537.209448 
L 988.916364 538.807116 
L 992.830413 538.555208 
L 996.744463 525.653217 
L 1000.658512 537.632236 
L 1004.572562 537.536091 
L 1008.486612 539.64963 
L 1012.400661 539.201152 
L 1016.314711 538.462072 
L 1020.22876 538.741901 
L 1024.14281 539.235108 
L 1028.05686 537.762298 
L 1031.970909 539.125236 
L 1035.884959 539.361684 
L 1039.799008 538.775724 
L 1043.713058 538.434947 
L 1047.627107 538.767368 
L 1051.541157 538.682872 
L 1055.455207 534.217368 
L 1059.369256 526.798205 
L 1063.283306 534.616837 
L 1067.197355 538.284609 
L 1071.111405 539.065885 
L 1075.025455 538.4662 
" clip-path="url(#pe2b66697f1)" style="fill: none; stroke: #4a2e83; stroke-width: 2; stroke-linecap: square"/>
   </g>
   <g id="line2d_22">
    <path d="M 668.16 539.64963 
L 1094.4 539.64963 
" clip-path="url(#pe2b66697f1)" style="fill: none; stroke-dasharray: 5.55,2.4; stroke-dashoffset: 0; stroke: #777777; stroke-opacity: 0.7; stroke-width: 1.5"/>
   </g>
   <g id="line2d_23">
    <path d="M 668.16 508.155249 
L 1094.4 508.155249 
" clip-path="url(#pe2b66697f1)" style="fill: none; stroke-dasharray: 5.55,2.4; stroke-dashoffset: 0; stroke: #777777; stroke-opacity: 0.7; stroke-width: 1.5"/>
   </g>
   <g id="line2d_24">
    <path d="M 668.16 534.388596 
L 1094.4 534.388596 
" clip-path="url(#pe2b66697f1)" style="fill: none; stroke: #999999; stroke-opacity: 0.7; stroke-width: 1.5; stroke-linecap: square"/>
   </g>
   <g id="patch_23">
    <path d="M 668.16 550.8 
L 668.16 64.8 
" style="fill: none; stroke: #000000; stroke-width: 0.8; stroke-linejoin: miter; stroke-linecap: square"/>
   </g>
   <g id="patch_24">
    <path d="M 1094.4 550.8 
L 1094.4 64.8 
" style="fill: none; stroke: #000000; stroke-width: 0.8; stroke-linejoin: miter; stroke-linecap: square"/>
   </g>
   <g id="patch_25">
    <path d="M 668.16 550.8 
L 1094.4 550.8 
" style="fill: none; stroke: #000000; stroke-width: 0.8; stroke-linejoin: miter; stroke-linecap: square"/>
   </g>
   <g id="patch_26">
    <path d="M 668.16 64.8 
L 1094.4 64.8 
" style="fill: none; stroke: #000000; stroke-width: 0.8; stroke-linejoin: miter; stroke-linecap: square"/>
   </g>
  </g>
  <g id="text_9">
   <!-- Effect of aggregating decorrelated workloads on net system load (n=4) -->
   <g transform="translate(172.253125 21.676875) scale(0.2 -0.2)">
    <defs>
     <path id="DejaVuSans-Bold-45" d="M 588 4666 
L 3834 4666 
L 3834 3756 
L 1791 3756 
L 1791 2888 
L 3713 2888 
L 3713 1978 
L 1791 1978 
L 1791 909 
L 3903 909 
L 3903 0 
L 588 0 
L 588 4666 
z
" transform="scale(0.015625)"/>
     <path id="DejaVuSans-Bold-66" d="M 2841 4863 
L 2841 4128 
L 2222 4128 
Q 1984 4128 1890 4042 
Q 1797 3956 1797 3744 
L 1797 3500 
L 2753 3500 
L 2753 2700 
L 1797 2700 
L 1797 0 
L 678 0 
L 678 2700 
L 122 2700 
L 122 3500 
L 678 3500 
L 678 3744 
Q 678 4316 997 4589 
Q 1316 4863 1984 4863 
L 2841 4863 
z
" transform="scale(0.015625)"/>
     <path id="DejaVuSans-Bold-63" d="M 3366 3391 
L 3366 2478 
Q 3138 2634 2908 2709 
Q 2678 2784 2431 2784 
Q 1963 2784 1702 2511 
Q 1441 2238 1441 1747 
Q 1441 1256 1702 982 
Q 1963 709 2431 709 
Q 2694 709 2930 787 
Q 3166 866 3366 1019 
L 3366 103 
Q 3103 6 2833 -42 
Q 2563 -91 2291 -91 
Q 1344 -91 809 395 
Q 275 881 275 1747 
Q 275 2613 809 3098 
Q 1344 3584 2291 3584 
Q 2566 3584 2833 3536 
Q 3100 3488 3366 3391 
z
" transform="scale(0.015625)"/>
     <path id="DejaVuSans-Bold-20" transform="scale(0.015625)"/>
     <path id="DejaVuSans-Bold-6f" d="M 2203 2784 
Q 1831 2784 1636 2517 
Q 1441 2250 1441 1747 
Q 1441 1244 1636 976 
Q 1831 709 2203 709 
Q 2569 709 2762 976 
Q 2956 1244 2956 1747 
Q 2956 2250 2762 2517 
Q 2569 2784 2203 2784 
z
M 2203 3584 
Q 3106 3584 3614 3096 
Q 4122 2609 4122 1747 
Q 4122 884 3614 396 
Q 3106 -91 2203 -91 
Q 1297 -91 786 396 
Q 275 884 275 1747 
Q 275 2609 786 3096 
Q 1297 3584 2203 3584 
z
" transform="scale(0.015625)"/>
     <path id="DejaVuSans-Bold-61" d="M 2106 1575 
Q 1756 1575 1579 1456 
Q 1403 1338 1403 1106 
Q 1403 894 1545 773 
Q 1688 653 1941 653 
Q 2256 653 2472 879 
Q 2688 1106 2688 1447 
L 2688 1575 
L 2106 1575 
z
M 3816 1997 
L 3816 0 
L 2688 0 
L 2688 519 
Q 2463 200 2181 54 
Q 1900 -91 1497 -91 
Q 953 -91 614 226 
Q 275 544 275 1050 
Q 275 1666 698 1953 
Q 1122 2241 2028 2241 
L 2688 2241 
L 2688 2328 
Q 2688 2594 2478 2717 
Q 2269 2841 1825 2841 
Q 1466 2841 1156 2769 
Q 847 2697 581 2553 
L 581 3406 
Q 941 3494 1303 3539 
Q 1666 3584 2028 3584 
Q 2975 3584 3395 3211 
Q 3816 2838 3816 1997 
z
" transform="scale(0.015625)"/>
     <path id="DejaVuSans-Bold-72" d="M 3138 2547 
Q 2991 2616 2845 2648 
Q 2700 2681 2553 2681 
Q 2122 2681 1889 2404 
Q 1656 2128 1656 1613 
L 1656 0 
L 538 0 
L 538 3500 
L 1656 3500 
L 1656 2925 
Q 1872 3269 2151 3426 
Q 2431 3584 2822 3584 
Q 2878 3584 2943 3579 
Q 3009 3575 3134 3559 
L 3138 2547 
z
" transform="scale(0.015625)"/>
     <path id="DejaVuSans-Bold-6e" d="M 4056 2131 
L 4056 0 
L 2931 0 
L 2931 347 
L 2931 1631 
Q 2931 2084 2911 2256 
Q 2891 2428 2841 2509 
Q 2775 2619 2662 2680 
Q 2550 2741 2406 2741 
Q 2056 2741 1856 2470 
Q 1656 2200 1656 1722 
L 1656 0 
L 538 0 
L 538 3500 
L 1656 3500 
L 1656 2988 
Q 1909 3294 2193 3439 
Q 2478 3584 2822 3584 
Q 3428 3584 3742 3212 
Q 4056 2841 4056 2131 
z
" transform="scale(0.015625)"/>
     <path id="DejaVuSans-Bold-64" d="M 2919 2988 
L 2919 4863 
L 4044 4863 
L 4044 0 
L 2919 0 
L 2919 506 
Q 2688 197 2409 53 
Q 2131 -91 1766 -91 
Q 1119 -91 703 423 
Q 288 938 288 1747 
Q 288 2556 703 3070 
Q 1119 3584 1766 3584 
Q 2128 3584 2408 3439 
Q 2688 3294 2919 2988 
z
M 2181 722 
Q 2541 722 2730 984 
Q 2919 1247 2919 1747 
Q 2919 2247 2730 2509 
Q 2541 2772 2181 2772 
Q 1825 2772 1636 2509 
Q 1447 2247 1447 1747 
Q 1447 1247 1636 984 
Q 1825 722 2181 722 
z
" transform="scale(0.015625)"/>
     <path id="DejaVuSans-Bold-6c" d="M 538 4863 
L 1656 4863 
L 1656 0 
L 538 0 
L 538 4863 
z
" transform="scale(0.015625)"/>
     <path id="DejaVuSans-Bold-77" d="M 225 3500 
L 1313 3500 
L 1900 1088 
L 2491 3500 
L 3425 3500 
L 4013 1113 
L 4603 3500 
L 5691 3500 
L 4769 0 
L 3547 0 
L 2956 2406 
L 2369 0 
L 1147 0 
L 225 3500 
z
" transform="scale(0.015625)"/>
     <path id="DejaVuSans-Bold-6b" d="M 538 4863 
L 1656 4863 
L 1656 2216 
L 2944 3500 
L 4244 3500 
L 2534 1894 
L 4378 0 
L 3022 0 
L 1656 1459 
L 1656 0 
L 538 0 
L 538 4863 
z
" transform="scale(0.015625)"/>
     <path id="DejaVuSans-Bold-79" d="M 78 3500 
L 1197 3500 
L 2138 1125 
L 2938 3500 
L 4056 3500 
L 2584 -331 
Q 2363 -916 2067 -1148 
Q 1772 -1381 1288 -1381 
L 641 -1381 
L 641 -647 
L 991 -647 
Q 1275 -647 1404 -556 
Q 1534 -466 1606 -231 
L 1638 -134 
L 78 3500 
z
" transform="scale(0.015625)"/>
     <path id="DejaVuSans-Bold-28" d="M 2413 -844 
L 1484 -844 
Q 1006 -72 778 623 
Q 550 1319 550 2003 
Q 550 2688 779 3389 
Q 1009 4091 1484 4856 
L 2413 4856 
Q 2013 4116 1813 3408 
Q 1613 2700 1613 2009 
Q 1613 1319 1811 609 
Q 2009 -100 2413 -844 
z
" transform="scale(0.015625)"/>
     <path id="DejaVuSans-Bold-3d" d="M 678 3084 
L 4684 3084 
L 4684 2350 
L 678 2350 
L 678 3084 
z
M 678 1663 
L 4684 1663 
L 4684 922 
L 678 922 
L 678 1663 
z
" transform="scale(0.015625)"/>
     <path id="DejaVuSans-Bold-34" d="M 2356 3675 
L 1038 1722 
L 2356 1722 
L 2356 3675 
z
M 2156 4666 
L 3494 4666 
L 3494 1722 
L 4159 1722 
L 4159 850 
L 3494 850 
L 3494 0 
L 2356 0 
L 2356 850 
L 288 850 
L 288 1881 
L 2156 4666 
z
" transform="scale(0.015625)"/>
     <path id="DejaVuSans-Bold-29" d="M 513 -844 
Q 913 -100 1113 609 
Q 1313 1319 1313 2009 
Q 1313 2700 1113 3408 
Q 913 4116 513 4856 
L 1441 4856 
Q 1916 4091 2145 3389 
Q 2375 2688 2375 2003 
Q 2375 1319 2147 623 
Q 1919 -72 1441 -844 
L 513 -844 
z
" transform="scale(0.015625)"/>
    </defs>
    <use xlink:href="#DejaVuSans-Bold-45"/>
    <use xlink:href="#DejaVuSans-Bold-66" transform="translate(68.310547 0)"/>
    <use xlink:href="#DejaVuSans-Bold-66" transform="translate(111.816406 0)"/>
    <use xlink:href="#DejaVuSans-Bold-65" transform="translate(155.322266 0)"/>
    <use xlink:href="#DejaVuSans-Bold-63" transform="translate(223.144531 0)"/>
    <use xlink:href="#DejaVuSans-Bold-74" transform="translate(282.421875 0)"/>
    <use xlink:href="#DejaVuSans-Bold-20" transform="translate(330.224609 0)"/>
    <use xlink:href="#DejaVuSans-Bold-6f" transform="translate(365.039062 0)"/>
    <use xlink:href="#DejaVuSans-Bold-66" transform="translate(433.740234 0)"/>
    <use xlink:href="#DejaVuSans-Bold-20" transform="translate(477.246094 0)"/>
    <use xlink:href="#DejaVuSans-Bold-61" transform="translate(512.060547 0)"/>
    <use xlink:href="#DejaVuSans-Bold-67" transform="translate(579.541016 0)"/>
    <use xlink:href="#DejaVuSans-Bold-67" transform="translate(651.123047 0)"/>
    <use xlink:href="#DejaVuSans-Bold-72" transform="translate(722.705078 0)"/>
    <use xlink:href="#DejaVuSans-Bold-65" transform="translate(772.021484 0)"/>
    <use xlink:href="#DejaVuSans-Bold-67" transform="translate(839.84375 0)"/>
    <use xlink:href="#DejaVuSans-Bold-61" transform="translate(911.425781 0)"/>
    <use xlink:href="#DejaVuSans-Bold-74" transform="translate(978.90625 0)"/>
    <use xlink:href="#DejaVuSans-Bold-69" transform="translate(1026.708984 0)"/>
    <use xlink:href="#DejaVuSans-Bold-6e" transform="translate(1060.986328 0)"/>
    <use xlink:href="#DejaVuSans-Bold-67" transform="translate(1132.177734 0)"/>
    <use xlink:href="#DejaVuSans-Bold-20" transform="translate(1203.759766 0)"/>
    <use xlink:href="#DejaVuSans-Bold-64" transform="translate(1238.574219 0)"/>
    <use xlink:href="#DejaVuSans-Bold-65" transform="translate(1310.15625 0)"/>
    <use xlink:href="#DejaVuSans-Bold-63" transform="translate(1377.978516 0)"/>
    <use xlink:href="#DejaVuSans-Bold-6f" transform="translate(1437.255859 0)"/>
    <use xlink:href="#DejaVuSans-Bold-72" transform="translate(1505.957031 0)"/>
    <use xlink:href="#DejaVuSans-Bold-72" transform="translate(1555.273438 0)"/>
    <use xlink:href="#DejaVuSans-Bold-65" transform="translate(1604.589844 0)"/>
    <use xlink:href="#DejaVuSans-Bold-6c" transform="translate(1672.412109 0)"/>
    <use xlink:href="#DejaVuSans-Bold-61" transform="translate(1706.689453 0)"/>
    <use xlink:href="#DejaVuSans-Bold-74" transform="translate(1774.169922 0)"/>
    <use xlink:href="#DejaVuSans-Bold-65" transform="translate(1821.972656 0)"/>
    <use xlink:href="#DejaVuSans-Bold-64" transform="translate(1889.794922 0)"/>
    <use xlink:href="#DejaVuSans-Bold-20" transform="translate(1961.376953 0)"/>
    <use xlink:href="#DejaVuSans-Bold-77" transform="translate(1996.191406 0)"/>
    <use xlink:href="#DejaVuSans-Bold-6f" transform="translate(2088.574219 0)"/>
    <use xlink:href="#DejaVuSans-Bold-72" transform="translate(2157.275391 0)"/>
    <use xlink:href="#DejaVuSans-Bold-6b" transform="translate(2206.591797 0)"/>
    <use xlink:href="#DejaVuSans-Bold-6c" transform="translate(2273.095703 0)"/>
    <use xlink:href="#DejaVuSans-Bold-6f" transform="translate(2307.373047 0)"/>
    <use xlink:href="#DejaVuSans-Bold-61" transform="translate(2376.074219 0)"/>
    <use xlink:href="#DejaVuSans-Bold-64" transform="translate(2443.554688 0)"/>
    <use xlink:href="#DejaVuSans-Bold-73" transform="translate(2515.136719 0)"/>
    <use xlink:href="#DejaVuSans-Bold-20" transform="translate(2574.658203 0)"/>
    <use xlink:href="#DejaVuSans-Bold-6f" transform="translate(2609.472656 0)"/>
    <use xlink:href="#DejaVuSans-Bold-6e" transform="translate(2678.173828 0)"/>
    <use xlink:href="#DejaVuSans-Bold-20" transform="translate(2749.365234 0)"/>
    <use xlink:href="#DejaVuSans-Bold-6e" transform="translate(2784.179688 0)"/>
    <use xlink:href="#DejaVuSans-Bold-65" transform="translate(2855.371094 0)"/>
    <use xlink:href="#DejaVuSans-Bold-74" transform="translate(2923.193359 0)"/>
    <use xlink:href="#DejaVuSans-Bold-20" transform="translate(2970.996094 0)"/>
    <use xlink:href="#DejaVuSans-Bold-73" transform="translate(3005.810547 0)"/>
    <use xlink:href="#DejaVuSans-Bold-79" transform="translate(3065.332031 0)"/>
    <use xlink:href="#DejaVuSans-Bold-73" transform="translate(3130.517578 0)"/>
    <use xlink:href="#DejaVuSans-Bold-74" transform="translate(3190.039062 0)"/>
    <use xlink:href="#DejaVuSans-Bold-65" transform="translate(3237.841797 0)"/>
    <use xlink:href="#DejaVuSans-Bold-6d" transform="translate(3305.664062 0)"/>
    <use xlink:href="#DejaVuSans-Bold-20" transform="translate(3409.863281 0)"/>
    <use xlink:href="#DejaVuSans-Bold-6c" transform="translate(3444.677734 0)"/>
    <use xlink:href="#DejaVuSans-Bold-6f" transform="translate(3478.955078 0)"/>
    <use xlink:href="#DejaVuSans-Bold-61" transform="translate(3547.65625 0)"/>
    <use xlink:href="#DejaVuSans-Bold-64" transform="translate(3615.136719 0)"/>
    <use xlink:href="#DejaVuSans-Bold-20" transform="translate(3686.71875 0)"/>
    <use xlink:href="#DejaVuSans-Bold-28" transform="translate(3721.533203 0)"/>
    <use xlink:href="#DejaVuSans-Bold-6e" transform="translate(3767.236328 0)"/>
    <use xlink:href="#DejaVuSans-Bold-3d" transform="translate(3838.427734 0)"/>
    <use xlink:href="#DejaVuSans-Bold-34" transform="translate(3922.216797 0)"/>
    <use xlink:href="#DejaVuSans-Bold-29" transform="translate(3991.796875 0)"/>
   </g>
  </g>
  <g id="text_10">
   <!-- Individual workloads -->
   <g transform="translate(205.992812 51.84) scale(0.14 -0.14)">
    <defs>
     <path id="DejaVuSans-Bold-49" d="M 588 4666 
L 1791 4666 
L 1791 0 
L 588 0 
L 588 4666 
z
" transform="scale(0.015625)"/>
     <path id="DejaVuSans-Bold-76" d="M 97 3500 
L 1216 3500 
L 2088 1081 
L 2956 3500 
L 4078 3500 
L 2700 0 
L 1472 0 
L 97 3500 
z
" transform="scale(0.015625)"/>
     <path id="DejaVuSans-Bold-75" d="M 500 1363 
L 500 3500 
L 1625 3500 
L 1625 3150 
Q 1625 2866 1622 2436 
Q 1619 2006 1619 1863 
Q 1619 1441 1641 1255 
Q 1663 1069 1716 984 
Q 1784 875 1895 815 
Q 2006 756 2150 756 
Q 2500 756 2700 1025 
Q 2900 1294 2900 1772 
L 2900 3500 
L 4019 3500 
L 4019 0 
L 2900 0 
L 2900 506 
Q 2647 200 2364 54 
Q 2081 -91 1741 -91 
Q 1134 -91 817 281 
Q 500 653 500 1363 
z
" transform="scale(0.015625)"/>
    </defs>
    <use xlink:href="#DejaVuSans-Bold-49"/>
    <use xlink:href="#DejaVuSans-Bold-6e" transform="translate(37.207031 0)"/>
    <use xlink:href="#DejaVuSans-Bold-64" transform="translate(108.398438 0)"/>
    <use xlink:href="#DejaVuSans-Bold-69" transform="translate(179.980469 0)"/>
    <use xlink:href="#DejaVuSans-Bold-76" transform="translate(214.257812 0)"/>
    <use xlink:href="#DejaVuSans-Bold-69" transform="translate(279.443359 0)"/>
    <use xlink:href="#DejaVuSans-Bold-64" transform="translate(313.720703 0)"/>
    <use xlink:href="#DejaVuSans-Bold-75" transform="translate(385.302734 0)"/>
    <use xlink:href="#DejaVuSans-Bold-61" transform="translate(456.494141 0)"/>
    <use xlink:href="#DejaVuSans-Bold-6c" transform="translate(523.974609 0)"/>
    <use xlink:href="#DejaVuSans-Bold-20" transform="translate(558.251953 0)"/>
    <use xlink:href="#DejaVuSans-Bold-77" transform="translate(593.066406 0)"/>
    <use xlink:href="#DejaVuSans-Bold-6f" transform="translate(685.449219 0)"/>
    <use xlink:href="#DejaVuSans-Bold-72" transform="translate(754.150391 0)"/>
    <use xlink:href="#DejaVuSans-Bold-6b" transform="translate(803.466797 0)"/>
    <use xlink:href="#DejaVuSans-Bold-6c" transform="translate(869.970703 0)"/>
    <use xlink:href="#DejaVuSans-Bold-6f" transform="translate(904.248047 0)"/>
    <use xlink:href="#DejaVuSans-Bold-61" transform="translate(972.949219 0)"/>
    <use xlink:href="#DejaVuSans-Bold-64" transform="translate(1040.429688 0)"/>
    <use xlink:href="#DejaVuSans-Bold-73" transform="translate(1112.011719 0)"/>
   </g>
  </g>
  <g id="text_11">
   <!-- Aggregate -->
   <g transform="translate(834.05375 51.84) scale(0.14 -0.14)">
    <defs>
     <path id="DejaVuSans-Bold-41" d="M 3419 850 
L 1538 850 
L 1241 0 
L 31 0 
L 1759 4666 
L 3194 4666 
L 4922 0 
L 3713 0 
L 3419 850 
z
M 1838 1716 
L 3116 1716 
L 2478 3572 
L 1838 1716 
z
" transform="scale(0.015625)"/>
    </defs>
    <use xlink:href="#DejaVuSans-Bold-41"/>
    <use xlink:href="#DejaVuSans-Bold-67" transform="translate(77.392578 0)"/>
    <use xlink:href="#DejaVuSans-Bold-67" transform="translate(148.974609 0)"/>
    <use xlink:href="#DejaVuSans-Bold-72" transform="translate(220.556641 0)"/>
    <use xlink:href="#DejaVuSans-Bold-65" transform="translate(269.873047 0)"/>
    <use xlink:href="#DejaVuSans-Bold-67" transform="translate(337.695312 0)"/>
    <use xlink:href="#DejaVuSans-Bold-61" transform="translate(409.277344 0)"/>
    <use xlink:href="#DejaVuSans-Bold-74" transform="translate(476.757812 0)"/>
    <use xlink:href="#DejaVuSans-Bold-65" transform="translate(524.560547 0)"/>
   </g>
  </g>
 </g>
 <defs>
  <clipPath id="p7510a9f391">
   <rect x="57.6" y="64.8" width="219.428571" height="231.428571"/>
  </clipPath>
  <clipPath id="p32a266d77d">
   <rect x="298.971429" y="64.8" width="219.428571" height="231.428571"/>
  </clipPath>
  <clipPath id="p48e04f49b0">
   <rect x="57.6" y="319.371429" width="219.428571" height="231.428571"/>
  </clipPath>
  <clipPath id="p1dac3d213d">
   <rect x="298.971429" y="319.371429" width="219.428571" height="231.428571"/>
  </clipPath>
  <clipPath id="pe2b66697f1">
   <rect x="668.16" y="64.8" width="426.24" height="486"/>
  </clipPath>
 </defs>
</svg>
